{"glyphs":{"0":{"ha":822,"x_min":53,"x_max":783,"o":"m 783 431 q 756 250 783 329 q 678 117 728 171 q 563 34 629 63 q 418 6 496 6 q 273 34 340 6 q 157 117 206 63 q 81 250 108 171 q 53 431 53 329 q 67 631 53 532 q 120 807 81 729 q 231 933 160 885 q 418 981 303 981 q 616 933 543 981 q 726 807 689 885 q 773 631 763 729 q 783 431 783 532 m 428 531 q 388 515 403 531 q 374 469 374 500 q 388 431 374 446 q 428 417 401 417 q 467 433 457 417 q 478 468 478 449 q 464 515 478 500 q 428 531 450 531 z "},"1":{"ha":683,"x_min":28,"x_max":644,"o":"m 286 631 q 193 582 239 597 q 114 576 154 569 q 50 631 74 582 q 31 694 33 664 q 35 750 28 724 q 58 799 43 776 q 90 842 72 822 q 197 922 132 888 q 326 961 268 957 q 424 957 383 965 q 508 922 471 947 q 565 857 542 899 q 603 763 589 815 q 626 652 618 711 q 638 535 635 593 q 631 242 644 399 q 617 158 626 193 q 592 96 607 122 q 560 52 578 69 q 525 25 543 35 q 433 0 483 0 q 345 26 379 0 q 292 83 311 51 q 260 167 269 119 q 244 333 243 250 q 256 482 246 415 q 286 631 267 560 z "},"2":{"ha":808,"x_min":39,"x_max":763,"o":"m 314 981 q 475 968 411 988 q 576 921 539 949 q 643 846 621 889 q 676 755 668 800 q 682 667 685 710 q 667 583 679 624 q 640 508 656 543 q 539 353 603 426 q 651 332 601 351 q 692 310 672 324 q 728 276 713 296 q 753 228 743 256 q 761 163 763 200 q 742 100 760 126 q 697 56 725 74 q 633 26 668 38 q 561 7 597 14 q 367 -6 475 -8 q 194 20 256 -6 q 103 76 133 46 q 60 158 67 113 q 67 259 53 217 q 110 335 82 301 q 176 398 138 368 q 254 461 214 428 q 290 497 274 478 q 317 538 307 517 q 328 581 328 560 q 314 622 328 603 q 272 653 296 646 q 228 658 249 661 q 176 646 203 656 q 103 653 129 636 q 63 696 76 671 q 40 764 47 724 q 50 827 39 799 q 80 877 61 856 q 123 915 99 899 q 174 943 147 932 q 314 981 235 969 z "},"3":{"ha":858,"x_min":38,"x_max":821,"o":"m 342 985 q 493 979 424 989 q 610 949 553 971 q 694 881 668 926 q 719 782 722 829 q 700 699 715 735 q 650 618 682 656 q 735 554 703 593 q 785 478 768 515 q 811 388 804 433 q 797 222 821 289 q 739 115 774 156 q 644 39 699 68 q 446 -7 540 -6 q 279 8 351 -8 q 124 68 194 28 q 74 110 92 89 q 47 153 56 132 q 38 193 39 174 q 42 229 38 213 q 85 304 51 268 q 149 337 114 333 q 213 333 183 340 q 282 304 247 325 q 340 281 314 285 q 383 281 365 278 q 419 296 404 285 q 440 325 435 310 q 443 353 444 340 q 433 381 442 368 q 408 403 424 396 q 378 414 393 411 q 340 417 360 418 q 242 438 274 417 q 196 483 210 458 q 181 551 181 513 q 203 613 181 588 q 253 655 225 639 q 306 678 281 671 q 336 688 331 686 q 239 683 281 681 q 168 694 197 686 q 119 713 139 701 q 88 739 100 725 q 61 815 60 771 q 74 870 61 846 q 106 912 86 894 q 151 942 126 929 q 203 963 176 954 q 342 985 264 981 z "},"4":{"ha":901,"x_min":42,"x_max":851,"o":"m 851 400 q 834 333 851 357 q 797 299 817 310 q 744 281 774 285 q 739 135 754 199 q 719 81 732 107 q 683 35 706 56 q 628 3 661 15 q 550 -10 596 -10 q 478 3 508 -10 q 426 35 447 15 q 393 81 406 56 q 375 135 381 107 q 368 281 360 199 q 271 285 313 281 q 200 294 229 289 q 142 310 165 300 q 78 346 100 321 q 49 404 57 371 q 45 476 42 438 q 60 553 49 514 q 142 750 85 643 q 208 845 174 806 q 278 910 243 885 q 348 951 314 936 q 414 972 382 965 q 558 971 488 988 q 628 934 599 960 q 679 875 658 908 q 713 802 700 842 q 733 724 726 763 q 744 522 750 632 q 806 502 785 521 q 838 460 826 483 q 851 400 850 433 m 347 600 q 306 582 324 600 q 292 542 289 564 q 309 501 294 513 q 347 490 324 490 q 386 504 371 490 q 401 542 401 518 q 388 582 401 564 q 347 600 374 600 z "},"5":{"ha":821,"x_min":47,"x_max":781,"o":"m 221 947 q 318 971 265 965 q 415 975 371 976 q 518 965 468 974 q 638 924 597 953 q 694 868 678 896 q 713 797 714 835 q 694 730 711 757 q 649 685 676 703 q 588 657 621 667 q 523 643 554 647 q 467 638 492 639 q 431 638 442 638 q 573 608 517 631 q 664 563 629 586 q 726 500 704 535 q 776 360 771 428 q 768 240 781 293 q 721 124 753 178 q 666 63 697 88 q 599 24 635 39 q 524 2 563 10 q 449 -7 486 -6 q 267 6 363 -12 q 180 39 215 19 q 120 81 144 58 q 83 126 96 103 q 63 171 69 149 q 61 278 47 222 q 108 344 79 328 q 165 361 138 361 q 235 344 199 361 q 307 320 281 321 q 347 329 333 319 q 367 363 363 340 q 360 408 374 389 q 325 439 346 426 q 267 463 300 454 q 187 496 222 478 q 127 544 151 514 q 90 620 103 575 q 81 735 78 665 q 105 840 83 799 q 153 904 126 881 q 221 947 183 932 z "},"6":{"ha":853,"x_min":57,"x_max":800,"o":"m 800 325 q 785 213 800 261 q 745 130 769 165 q 690 70 721 94 q 625 31 658 46 q 451 -8 549 -6 q 338 6 388 -8 q 248 44 288 21 q 180 99 208 68 q 131 161 151 129 q 65 331 83 236 q 63 460 57 399 q 83 574 68 521 q 122 674 99 628 q 169 757 144 719 q 307 910 228 843 q 416 972 365 961 q 507 975 467 982 q 593 938 553 967 q 630 900 617 919 q 648 862 643 881 q 651 825 653 843 q 644 790 650 807 q 600 715 632 753 q 561 669 576 688 q 536 639 546 651 q 519 615 525 624 q 615 603 574 615 q 685 569 656 590 q 735 522 715 549 q 768 469 756 496 q 800 325 797 406 m 438 381 q 397 363 414 381 q 382 322 379 344 q 399 282 385 293 q 438 271 414 271 q 476 285 461 271 q 492 322 492 299 q 478 363 492 344 q 438 381 464 381 z "},"7":{"ha":833,"x_min":51,"x_max":781,"o":"m 410 646 q 235 622 311 621 q 169 628 201 622 q 113 650 138 635 q 72 691 88 665 q 54 757 56 717 q 67 848 51 810 q 110 913 83 886 q 173 956 138 939 q 246 982 208 972 q 446 997 332 1004 q 590 972 533 993 q 681 925 646 950 q 742 860 719 896 q 773 775 765 824 q 776 670 781 726 q 758 555 772 614 q 726 439 744 496 q 614 160 683 306 q 578 91 597 119 q 536 44 558 63 q 492 14 514 25 q 449 -1 469 3 q 347 1 400 -12 q 270 48 294 18 q 236 107 246 78 q 229 179 225 142 q 264 341 235 258 q 325 492 293 424 q 410 646 363 571 z "},"8":{"ha":868,"x_min":56,"x_max":815,"o":"m 815 297 q 787 158 815 218 q 708 57 758 97 q 588 -4 657 17 q 435 -25 518 -25 q 282 -4 351 -25 q 163 57 213 17 q 84 158 113 97 q 56 297 56 218 q 88 454 56 388 q 192 561 121 521 q 135 640 153 596 q 119 733 118 683 q 143 840 119 793 q 208 920 167 888 q 305 969 249 953 q 428 986 361 986 q 549 969 493 986 q 645 921 604 953 q 709 842 686 889 q 732 733 732 794 q 669 560 732 618 q 780 447 744 515 q 815 297 815 379 m 439 379 q 398 361 415 379 q 383 321 381 343 q 401 281 386 292 q 439 269 415 269 q 478 283 463 269 q 493 321 493 297 q 479 361 493 343 q 439 379 465 379 m 439 746 q 398 728 415 746 q 383 688 381 710 q 401 647 386 658 q 439 636 415 636 q 478 650 463 636 q 493 688 493 664 q 479 728 493 710 q 439 746 465 746 z "},"9":{"ha":846,"x_min":49,"x_max":803,"o":"m 49 650 q 65 762 49 714 q 107 845 81 810 q 167 905 133 881 q 235 944 200 929 q 421 985 317 981 q 534 970 485 985 q 622 932 583 956 q 688 878 660 908 q 735 817 715 847 q 794 650 781 743 q 797 520 803 582 q 774 404 790 458 q 733 304 757 350 q 685 221 710 258 q 542 65 624 132 q 427 -1 479 11 q 336 -7 375 -14 q 253 31 290 1 q 217 68 229 49 q 200 108 204 88 q 197 147 196 128 q 204 183 199 167 q 249 261 217 224 q 286 306 271 288 q 311 338 301 325 q 328 361 322 353 q 233 374 274 361 q 162 406 192 386 q 112 452 132 426 q 79 506 92 478 q 49 650 50 569 m 432 656 q 391 638 408 656 q 376 597 374 619 q 394 557 379 568 q 432 546 408 546 q 471 560 456 546 q 486 597 486 574 q 472 638 486 619 q 432 656 458 656 z "}," ":{"ha":594,"x_min":0,"x_max":0,"o":""},"Ä":{"ha":1036,"x_min":44,"x_max":993,"o":"m 864 13 q 794 -1 831 1 q 727 1 764 -4 q 654 28 690 7 q 588 83 614 51 q 547 146 563 115 q 526 201 532 176 q 518 238 519 226 q 510 201 517 226 q 489 146 504 176 q 448 83 474 115 q 382 28 422 51 q 309 1 346 7 q 242 -1 272 -4 q 172 13 206 1 q 124 38 144 22 q 91 74 104 54 q 69 117 78 94 q 56 163 60 140 q 47 275 44 215 q 69 456 51 374 q 115 608 88 539 q 174 731 142 676 q 236 831 206 786 q 330 932 282 897 q 419 983 378 967 q 487 1001 460 999 q 518 1003 514 1003 q 549 1001 522 1003 q 617 983 576 999 q 707 932 658 967 q 801 831 756 897 q 863 731 832 786 q 922 608 894 676 q 967 456 949 539 q 989 275 985 374 q 982 163 993 215 q 969 117 978 140 q 946 74 960 94 q 912 38 932 54 q 864 13 892 22 m 754 1171 q 727 1094 754 1126 q 647 1063 700 1063 q 567 1094 594 1063 q 540 1171 540 1126 q 567 1247 540 1215 q 647 1278 594 1278 q 727 1247 700 1278 q 754 1171 754 1215 m 500 1171 q 473 1094 500 1126 q 393 1063 446 1063 q 313 1094 340 1063 q 286 1171 286 1126 q 313 1247 286 1215 q 393 1278 340 1278 q 473 1247 446 1278 q 500 1171 500 1215 m 524 513 q 483 494 500 513 q 468 454 465 476 q 485 414 471 425 q 524 403 500 403 q 563 417 547 403 q 578 454 578 431 q 564 494 578 476 q 524 513 550 513 z "},"À":{"ha":1036,"x_min":44,"x_max":993,"o":"m 864 13 q 794 -1 831 1 q 727 1 764 -4 q 654 28 690 7 q 588 83 614 51 q 547 146 563 115 q 526 201 532 176 q 518 238 519 226 q 510 201 517 226 q 489 146 504 176 q 448 83 474 115 q 382 28 422 51 q 309 1 346 7 q 242 -1 272 -4 q 172 13 206 1 q 124 38 144 22 q 91 74 104 54 q 69 117 78 94 q 56 163 60 140 q 47 275 44 215 q 69 456 51 374 q 115 608 88 539 q 174 731 142 676 q 236 831 206 786 q 330 932 282 897 q 419 983 378 967 q 487 1001 460 999 q 518 1003 514 1003 q 549 1001 522 1003 q 617 983 576 999 q 707 932 658 967 q 801 831 756 897 q 863 731 832 786 q 922 608 894 676 q 967 456 949 539 q 989 275 985 374 q 982 163 993 215 q 969 117 978 140 q 946 74 960 94 q 912 38 932 54 q 864 13 892 22 m 494 1313 q 544 1291 517 1306 q 596 1259 571 1276 q 642 1223 621 1242 q 675 1190 664 1204 q 694 1157 688 1174 q 703 1122 701 1142 q 694 1082 706 1103 q 665 1050 683 1058 q 629 1039 647 1042 q 586 1042 608 1036 q 501 1061 543 1049 q 427 1088 465 1072 q 360 1131 389 1104 q 325 1176 333 1153 q 319 1219 317 1199 q 331 1258 321 1240 q 351 1288 340 1276 q 374 1306 361 1297 q 402 1320 386 1315 q 440 1324 418 1325 q 494 1313 463 1322 m 524 513 q 483 494 500 513 q 468 454 465 476 q 485 414 471 425 q 524 403 500 403 q 563 417 547 403 q 578 454 578 431 q 564 494 578 476 q 524 513 550 513 z "},"Å":{"ha":1036,"x_min":44,"x_max":993,"o":"m 685 1113 q 666 1039 685 1072 q 615 983 647 1006 q 705 933 656 968 q 801 831 754 897 q 863 731 832 786 q 922 608 894 676 q 967 456 949 539 q 989 275 985 374 q 982 163 993 215 q 969 117 978 140 q 946 74 960 94 q 912 38 932 54 q 864 13 892 22 q 794 -1 831 1 q 727 1 764 -4 q 654 28 690 7 q 588 83 614 51 q 547 146 563 115 q 526 201 532 176 q 518 238 519 226 q 510 201 517 226 q 489 146 504 176 q 448 83 474 115 q 382 28 422 51 q 309 1 346 7 q 242 -1 272 -4 q 172 13 206 1 q 124 38 144 22 q 91 74 104 54 q 69 117 78 94 q 56 163 60 140 q 47 275 44 215 q 69 456 51 374 q 115 608 88 539 q 174 731 142 676 q 236 831 206 786 q 328 931 281 896 q 417 982 376 965 q 364 1038 383 1003 q 344 1113 344 1072 q 358 1174 344 1146 q 394 1225 371 1203 q 449 1260 418 1247 q 515 1272 479 1272 q 581 1260 550 1272 q 635 1225 613 1247 q 672 1174 658 1203 q 685 1113 685 1146 m 514 1188 q 457 1167 475 1188 q 439 1114 439 1146 q 457 1063 439 1083 q 515 1043 475 1043 q 572 1063 556 1043 q 588 1113 588 1082 q 568 1168 588 1149 q 514 1188 549 1188 m 524 513 q 483 494 500 513 q 468 454 465 476 q 485 414 471 425 q 524 403 500 403 q 563 417 547 403 q 578 454 578 431 q 564 494 578 476 q 524 513 550 513 z "},"Ã":{"ha":1036,"x_min":44,"x_max":993,"o":"m 864 13 q 794 -1 831 1 q 727 1 764 -4 q 654 28 690 7 q 588 83 614 51 q 547 146 563 115 q 526 201 532 176 q 518 238 519 226 q 510 201 517 226 q 489 146 504 176 q 448 83 474 115 q 382 28 422 51 q 309 1 346 7 q 242 -1 272 -4 q 172 13 206 1 q 124 38 144 22 q 91 74 104 54 q 69 117 78 94 q 56 163 60 140 q 47 275 44 215 q 69 456 51 374 q 115 608 88 539 q 174 731 142 676 q 236 831 206 786 q 330 932 282 897 q 419 983 378 967 q 487 1001 460 999 q 518 1003 514 1003 q 549 1001 522 1003 q 617 983 576 999 q 707 932 658 967 q 801 831 756 897 q 863 731 832 786 q 922 608 894 676 q 967 456 949 539 q 989 275 985 374 q 982 163 993 215 q 969 117 978 140 q 946 74 960 94 q 912 38 932 54 q 864 13 892 22 m 765 1132 q 718 1075 744 1094 q 664 1049 692 1056 q 608 1046 636 1042 q 553 1060 579 1050 q 425 1138 490 1083 q 390 1072 413 1090 q 343 1049 367 1053 q 286 1053 317 1043 q 253 1072 268 1058 q 231 1104 239 1086 q 220 1142 222 1122 q 225 1179 218 1161 q 297 1290 250 1254 q 345 1315 318 1306 q 408 1319 372 1324 q 488 1295 443 1315 q 586 1233 532 1275 l 589 1228 q 635 1291 603 1268 q 710 1300 667 1314 q 765 1265 744 1288 q 788 1213 783 1246 q 765 1132 793 1181 m 524 513 q 483 494 500 513 q 468 454 465 476 q 485 414 471 425 q 524 403 500 403 q 563 417 547 403 q 578 454 578 431 q 564 494 578 476 q 524 513 550 513 z "},"B":{"ha":928,"x_min":51,"x_max":886,"o":"m 518 992 q 677 958 617 988 q 772 893 738 928 q 831 801 813 853 q 836 673 851 725 q 793 588 821 621 q 714 524 761 549 q 813 469 778 504 q 863 401 847 435 q 883 318 881 363 q 872 217 886 261 q 833 140 858 172 q 775 83 808 107 q 707 44 742 60 q 517 0 624 8 q 410 1 458 -4 q 322 18 361 7 q 253 44 283 29 q 200 75 222 58 q 118 163 146 113 q 64 315 76 233 q 51 468 51 397 q 60 599 51 540 q 79 697 68 657 q 107 782 92 744 q 153 863 125 829 q 213 922 181 897 q 281 960 246 946 q 350 982 317 974 q 518 992 429 1000 m 469 714 q 430 699 446 714 q 414 661 414 685 q 426 620 414 639 q 469 601 438 601 q 511 620 497 601 q 525 661 525 639 q 511 698 525 682 q 469 714 497 714 m 482 381 q 441 363 458 381 q 426 322 424 344 q 444 282 429 293 q 482 271 458 271 q 521 285 506 271 q 536 322 536 299 q 522 363 536 344 q 482 381 508 381 z "},"C":{"ha":965,"x_min":36,"x_max":939,"o":"m 690 592 q 613 593 647 599 q 558 569 583 588 q 531 507 533 551 q 546 449 529 474 q 594 413 561 428 q 694 406 628 399 q 807 400 757 413 q 849 385 828 394 q 888 358 871 375 q 919 315 906 340 q 936 254 932 289 q 929 174 939 213 q 898 103 921 140 q 826 39 875 65 q 703 -1 775 11 q 550 -10 640 -12 q 338 26 460 -7 q 185 115 251 54 q 128 177 156 142 q 81 260 101 213 q 48 369 60 308 q 39 506 36 431 q 78 708 40 614 q 120 790 94 749 q 185 867 146 831 q 278 932 225 903 q 404 978 332 961 q 551 996 475 994 q 692 984 615 997 q 842 928 769 971 q 901 864 879 901 q 918 827 911 847 q 927 783 925 807 q 925 732 929 760 q 907 672 921 704 q 864 619 892 640 q 798 590 840 601 q 690 592 756 579 z "},"Á":{"ha":1036,"x_min":44,"x_max":993,"o":"m 864 13 q 794 -1 831 1 q 727 1 764 -4 q 654 28 690 7 q 588 83 614 51 q 547 146 563 115 q 526 201 532 176 q 518 238 519 226 q 510 201 517 226 q 489 146 504 176 q 448 83 474 115 q 382 28 422 51 q 309 1 346 7 q 242 -1 272 -4 q 172 13 206 1 q 124 38 144 22 q 91 74 104 54 q 69 117 78 94 q 56 163 60 140 q 47 275 44 215 q 69 456 51 374 q 115 608 88 539 q 174 731 142 676 q 236 831 206 786 q 330 932 282 897 q 419 983 378 967 q 487 1001 460 999 q 518 1003 514 1003 q 549 1001 522 1003 q 617 983 576 999 q 707 932 658 967 q 801 831 756 897 q 863 731 832 786 q 922 608 894 676 q 967 456 949 539 q 989 275 985 374 q 982 163 993 215 q 969 117 978 140 q 946 74 960 94 q 912 38 932 54 q 864 13 892 22 m 336 1183 q 369 1216 347 1197 q 415 1252 390 1235 q 467 1284 440 1269 q 517 1306 494 1299 q 570 1317 547 1315 q 609 1313 593 1318 q 637 1299 625 1308 q 660 1281 649 1290 q 681 1251 671 1269 q 692 1213 690 1233 q 686 1169 694 1192 q 651 1124 678 1146 q 583 1081 622 1097 q 508 1054 544 1065 q 425 1035 467 1042 q 382 1032 403 1029 q 346 1043 364 1035 q 317 1075 328 1051 q 307 1115 306 1096 q 315 1150 308 1135 q 336 1183 322 1167 m 524 513 q 483 494 500 513 q 468 454 465 476 q 485 414 471 425 q 524 403 500 403 q 563 417 547 403 q 578 454 578 431 q 564 494 578 476 q 524 513 550 513 z "},"D":{"ha":950,"x_min":56,"x_max":903,"o":"m 867 250 q 821 153 850 194 q 756 83 792 113 q 678 36 719 54 q 597 7 638 18 q 393 -15 501 -18 q 256 2 310 -17 q 168 44 201 21 q 106 104 129 71 q 74 182 85 139 q 60 269 64 225 q 56 355 56 313 q 56 433 56 397 q 60 569 56 507 q 71 676 64 631 q 86 774 76 731 q 110 849 93 817 q 148 903 126 881 q 194 942 169 926 q 243 965 218 957 q 369 983 300 986 q 492 974 436 983 q 592 951 547 965 q 672 917 636 936 q 735 878 707 897 q 835 771 799 831 q 886 633 869 711 q 898 559 893 600 q 901 469 903 518 q 892 366 900 421 q 867 250 885 311 m 482 533 q 442 522 458 533 q 426 475 426 510 q 442 433 426 442 q 482 424 458 424 q 521 438 506 424 q 536 475 536 451 q 522 515 536 497 q 482 533 508 533 z "},"E":{"ha":928,"x_min":49,"x_max":868,"o":"m 476 988 q 612 976 554 985 q 712 955 669 968 q 782 926 754 942 q 826 894 810 911 q 865 811 867 857 q 850 740 865 769 q 810 689 835 710 q 751 656 785 668 q 683 636 718 643 q 497 626 601 621 q 617 588 576 613 q 672 540 657 564 q 688 479 690 513 q 667 412 688 439 q 621 368 647 385 q 571 344 594 351 q 540 335 547 336 q 653 328 604 335 q 737 308 701 321 q 795 280 772 296 q 833 247 818 264 q 868 158 868 208 q 849 101 865 125 q 806 58 832 76 q 747 28 781 40 q 681 8 714 17 q 500 -11 601 -10 q 365 -6 424 -14 q 263 17 307 3 q 186 49 218 31 q 133 86 154 67 q 71 190 83 132 q 51 383 53 282 q 54 568 49 483 q 74 763 60 667 q 103 845 82 810 q 155 906 125 881 q 220 947 185 931 q 292 971 256 963 q 476 988 375 992 z "},"É":{"ha":928,"x_min":49,"x_max":868,"o":"m 476 988 q 612 976 554 985 q 712 955 669 968 q 782 926 754 942 q 826 894 810 911 q 865 811 867 857 q 850 740 865 769 q 810 689 835 710 q 751 656 785 668 q 683 636 718 643 q 497 626 601 621 q 617 588 576 613 q 672 540 657 564 q 688 479 690 513 q 667 412 688 439 q 621 368 647 385 q 571 344 594 351 q 540 335 547 336 q 653 328 604 335 q 737 308 701 321 q 795 280 772 296 q 833 247 818 264 q 868 158 868 208 q 849 101 865 125 q 806 58 832 76 q 747 28 781 40 q 681 8 714 17 q 500 -11 601 -10 q 365 -6 424 -14 q 263 17 307 3 q 186 49 218 31 q 133 86 154 67 q 71 190 83 132 q 51 383 53 282 q 54 568 49 483 q 74 763 60 667 q 103 845 82 810 q 155 906 125 881 q 220 947 185 931 q 292 971 256 963 q 476 988 375 992 m 322 1183 q 355 1216 333 1197 q 401 1252 376 1235 q 453 1284 426 1269 q 503 1306 481 1299 q 556 1317 533 1315 q 595 1313 579 1318 q 623 1299 611 1308 q 646 1281 635 1290 q 667 1251 657 1269 q 678 1213 676 1233 q 672 1169 681 1192 q 638 1124 664 1146 q 569 1081 608 1097 q 494 1054 531 1065 q 411 1035 453 1042 q 368 1032 389 1029 q 332 1043 350 1035 q 303 1075 314 1051 q 293 1115 292 1096 q 301 1150 294 1135 q 322 1183 308 1167 z "},"Ê":{"ha":928,"x_min":49,"x_max":868,"o":"m 476 988 q 612 976 554 985 q 712 955 669 968 q 782 926 754 942 q 826 894 810 911 q 865 811 867 857 q 850 740 865 769 q 810 689 835 710 q 751 656 785 668 q 683 636 718 643 q 497 626 601 621 q 617 588 576 613 q 672 540 657 564 q 688 479 690 513 q 667 412 688 439 q 621 368 647 385 q 571 344 594 351 q 540 335 547 336 q 653 328 604 335 q 737 308 701 321 q 795 280 772 296 q 833 247 818 264 q 868 158 868 208 q 849 101 865 125 q 806 58 832 76 q 747 28 781 40 q 681 8 714 17 q 500 -11 601 -10 q 365 -6 424 -14 q 263 17 307 3 q 186 49 218 31 q 133 86 154 67 q 71 190 83 132 q 51 383 53 282 q 54 568 49 483 q 74 763 60 667 q 103 845 82 810 q 155 906 125 881 q 220 947 185 931 q 292 971 256 963 q 476 988 375 992 m 265 1158 q 285 1181 267 1160 q 332 1225 303 1201 q 399 1269 361 1249 q 476 1289 436 1289 q 551 1269 515 1289 q 617 1224 588 1249 q 663 1177 646 1199 q 682 1154 681 1156 q 696 1096 701 1128 q 663 1044 690 1064 q 603 1031 635 1025 q 551 1064 571 1036 q 528 1089 549 1065 q 476 1131 508 1113 q 440 1106 457 1118 q 413 1082 424 1093 q 389 1060 399 1069 q 357 1035 374 1043 q 322 1028 342 1028 q 278 1047 301 1028 q 248 1101 251 1068 q 265 1158 244 1133 z "},"Ë":{"ha":928,"x_min":49,"x_max":868,"o":"m 476 988 q 612 976 554 985 q 712 955 669 968 q 782 926 754 942 q 826 894 810 911 q 865 811 867 857 q 850 740 865 769 q 810 689 835 710 q 751 656 785 668 q 683 636 718 643 q 497 626 601 621 q 617 588 576 613 q 672 540 657 564 q 688 479 690 513 q 667 412 688 439 q 621 368 647 385 q 571 344 594 351 q 540 335 547 336 q 653 328 604 335 q 737 308 701 321 q 795 280 772 296 q 833 247 818 264 q 868 158 868 208 q 849 101 865 125 q 806 58 832 76 q 747 28 781 40 q 681 8 714 17 q 500 -11 601 -10 q 365 -6 424 -14 q 263 17 307 3 q 186 49 218 31 q 133 86 154 67 q 71 190 83 132 q 51 383 53 282 q 54 568 49 483 q 74 763 60 667 q 103 845 82 810 q 155 906 125 881 q 220 947 185 931 q 292 971 256 963 q 476 988 375 992 m 426 1172 q 399 1096 426 1128 q 319 1064 372 1064 q 240 1096 267 1064 q 213 1172 213 1128 q 240 1248 213 1217 q 319 1279 267 1279 q 399 1248 372 1279 q 426 1172 426 1217 m 681 1172 q 653 1096 681 1128 q 574 1064 626 1064 q 494 1096 521 1064 q 467 1172 467 1128 q 494 1248 467 1217 q 574 1279 521 1279 q 653 1248 626 1279 q 681 1172 681 1217 z "},"È":{"ha":928,"x_min":49,"x_max":868,"o":"m 476 988 q 612 976 554 985 q 712 955 669 968 q 782 926 754 942 q 826 894 810 911 q 865 811 867 857 q 850 740 865 769 q 810 689 835 710 q 751 656 785 668 q 683 636 718 643 q 497 626 601 621 q 617 588 576 613 q 672 540 657 564 q 688 479 690 513 q 667 412 688 439 q 621 368 647 385 q 571 344 594 351 q 540 335 547 336 q 653 328 604 335 q 737 308 701 321 q 795 280 772 296 q 833 247 818 264 q 868 158 868 208 q 849 101 865 125 q 806 58 832 76 q 747 28 781 40 q 681 8 714 17 q 500 -11 601 -10 q 365 -6 424 -14 q 263 17 307 3 q 186 49 218 31 q 133 86 154 67 q 71 190 83 132 q 51 383 53 282 q 54 568 49 483 q 74 763 60 667 q 103 845 82 810 q 155 906 125 881 q 220 947 185 931 q 292 971 256 963 q 476 988 375 992 m 419 1315 q 469 1294 442 1308 q 521 1262 496 1279 q 567 1226 546 1244 q 600 1193 589 1207 q 619 1160 613 1176 q 628 1125 626 1144 q 619 1085 631 1106 q 590 1053 608 1061 q 554 1042 572 1044 q 511 1044 533 1039 q 426 1064 468 1051 q 352 1091 390 1075 q 285 1133 314 1107 q 250 1178 258 1156 q 244 1222 242 1201 q 256 1261 246 1243 q 276 1290 265 1279 q 299 1309 286 1300 q 327 1323 311 1318 q 365 1326 343 1328 q 419 1315 388 1325 z "},"Ð":{"ha":1129,"x_min":14,"x_max":1082,"o":"m 1046 250 q 1000 153 1029 194 q 935 83 971 113 q 858 36 899 54 q 776 7 817 18 q 572 -15 681 -18 q 435 2 489 -17 q 347 44 381 21 q 285 104 308 71 q 249 203 258 149 q 236 314 239 258 q 156 325 196 317 q 85 352 117 333 q 33 402 53 371 q 14 482 14 433 q 35 558 14 528 q 88 607 56 589 q 163 634 121 625 q 246 646 204 643 q 258 739 253 707 q 265 774 263 758 q 289 849 272 817 q 327 903 306 881 q 373 942 349 926 q 422 965 397 957 q 549 983 479 986 q 671 974 615 983 q 771 951 726 965 q 851 917 815 936 q 914 878 886 897 q 1014 771 978 831 q 1065 633 1049 711 q 1077 559 1072 600 q 1081 469 1082 518 q 1072 366 1079 421 q 1046 250 1064 311 m 661 533 q 622 522 638 533 q 606 475 606 510 q 622 433 606 442 q 661 424 638 424 q 700 438 685 424 q 715 475 715 451 q 701 515 715 497 q 661 533 688 533 z "},"€":{"ha":968,"x_min":31,"x_max":949,"o":"m 192 700 q 264 844 213 781 q 317 897 286 871 q 388 944 347 924 q 482 976 429 964 q 600 989 535 989 q 785 958 706 983 q 849 931 818 947 q 903 892 881 915 q 938 838 926 869 q 942 768 949 807 q 914 701 936 728 q 858 664 894 678 q 760 668 822 650 q 672 681 701 683 q 628 669 642 679 q 610 639 613 658 q 689 629 654 638 q 741 606 718 622 q 760 558 764 589 q 727 517 756 528 q 667 503 699 506 q 581 508 629 500 q 576 496 578 501 q 576 483 575 490 q 581 468 576 475 q 667 469 629 474 q 727 456 699 467 q 760 418 756 444 q 742 367 765 385 q 690 340 719 349 q 610 329 656 331 q 628 299 614 310 q 661 286 639 289 q 721 299 683 283 q 767 313 739 306 q 824 321 794 321 q 879 309 853 321 q 921 268 906 297 q 935 174 943 222 q 890 85 926 125 q 792 17 854 44 q 649 -12 731 -10 q 486 -3 561 -15 q 352 44 411 10 q 252 135 293 78 q 190 279 211 193 q 110 275 146 269 q 55 299 79 279 q 31 368 31 319 q 54 433 31 413 q 106 458 78 453 q 181 458 139 464 q 176 482 178 469 q 176 506 175 493 q 181 529 176 518 q 106 529 139 524 q 54 554 78 535 q 31 618 31 574 q 56 681 31 663 q 111 704 81 700 q 192 700 147 710 z "},"F":{"ha":864,"x_min":35,"x_max":846,"o":"m 492 357 q 506 225 507 281 q 494 130 506 169 q 462 65 482 90 q 419 26 442 40 q 288 0 365 -8 q 218 10 249 0 q 164 39 188 21 q 124 80 140 57 q 94 126 107 103 q 56 254 67 182 q 36 440 38 346 q 39 611 35 535 q 56 785 44 700 q 88 871 64 835 q 146 933 113 907 q 218 974 179 958 q 297 999 257 990 q 501 1014 390 1019 q 619 1000 568 1010 q 706 977 669 990 q 767 948 742 964 q 807 915 792 932 q 844 831 843 878 q 833 765 846 793 q 797 717 819 736 q 746 684 775 697 q 686 664 717 671 q 519 650 614 647 q 624 617 589 639 q 675 572 660 596 q 693 515 693 546 q 661 425 693 457 q 592 378 629 393 q 492 357 547 360 z "},"G":{"ha":1047,"x_min":28,"x_max":1019,"o":"m 635 388 q 591 419 603 401 q 576 453 579 438 q 581 490 574 471 q 626 527 590 515 q 707 543 661 539 q 802 544 753 547 q 888 536 851 542 q 928 524 911 532 q 956 510 944 517 q 976 490 968 501 q 997 447 989 474 q 1010 390 1006 421 q 1017 324 1015 358 q 1019 257 1019 290 q 1011 90 1019 179 q 984 3 1007 33 q 935 -42 961 -28 q 867 -60 904 -58 q 807 -53 836 -60 q 754 -31 778 -47 q 717 12 731 -15 q 703 79 703 39 q 659 40 688 60 q 590 8 631 21 q 497 -9 550 -6 q 379 -1 444 -12 q 203 78 279 18 q 138 139 169 103 q 83 226 107 175 q 43 342 58 276 q 28 490 28 407 q 65 692 29 596 q 106 774 81 732 q 168 856 131 817 q 258 927 206 894 q 379 983 310 960 q 546 1001 463 1004 q 620 994 581 1000 q 699 973 660 988 q 778 934 739 958 q 851 874 817 910 q 886 814 874 847 q 898 747 897 786 q 878 663 899 708 q 829 614 861 631 q 755 596 801 599 q 635 621 708 593 q 544 629 583 635 q 482 598 510 624 q 453 506 454 572 q 475 422 456 456 q 497 397 483 408 q 529 378 510 385 q 574 374 549 372 q 635 388 600 375 z "},"H":{"ha":1064,"x_min":46,"x_max":1028,"o":"m 561 679 q 588 838 563 768 q 614 896 597 867 q 656 947 631 925 q 714 983 681 969 q 793 997 747 997 q 892 963 846 993 q 966 880 931 936 q 1014 722 1001 824 q 1026 536 1025 624 q 1025 382 1028 449 q 1014 238 1021 304 q 979 115 1006 169 q 951 70 968 92 q 912 31 935 49 q 860 4 889 14 q 793 -6 831 -6 q 719 8 751 -6 q 664 45 688 22 q 624 97 640 68 q 597 154 608 125 q 567 311 572 224 l 515 311 q 479 154 507 222 q 449 97 467 125 q 408 47 432 68 q 353 11 385 25 q 281 -3 321 -3 q 178 26 224 -1 q 138 57 158 39 q 101 103 118 75 q 73 170 85 132 q 57 260 61 208 q 47 473 46 381 q 51 631 47 565 q 67 763 57 707 q 104 879 78 828 q 131 922 115 901 q 169 960 147 943 q 217 986 190 976 q 278 996 244 996 q 357 982 324 996 q 415 946 390 968 q 456 895 440 924 q 483 838 472 867 q 508 679 508 768 l 561 679 z "},"I":{"ha":583,"x_min":42,"x_max":542,"o":"m 54 282 q 44 406 46 339 q 43 532 42 474 q 49 669 44 600 q 83 824 56 756 q 114 881 96 853 q 158 930 132 908 q 218 965 183 951 q 299 979 253 979 q 400 946 354 975 q 440 914 419 933 q 477 865 460 894 q 508 797 494 836 q 528 708 521 758 q 540 524 539 611 q 539 371 542 438 q 528 228 535 294 q 492 107 518 160 q 463 63 479 85 q 422 24 446 42 q 368 -3 399 7 q 299 -12 338 -12 q 222 1 256 -12 q 163 35 189 14 q 120 82 138 56 q 90 136 103 108 q 54 282 63 201 z "},"Í":{"ha":583,"x_min":42,"x_max":542,"o":"m 54 282 q 44 406 46 339 q 43 532 42 474 q 49 669 44 600 q 83 824 56 756 q 114 881 96 853 q 158 930 132 908 q 218 965 183 951 q 299 979 253 979 q 400 946 354 975 q 440 914 419 933 q 477 865 460 894 q 508 797 494 836 q 528 708 521 758 q 540 524 539 611 q 539 371 542 438 q 528 228 535 294 q 492 107 518 160 q 463 63 479 85 q 422 24 446 42 q 368 -3 399 7 q 299 -12 338 -12 q 222 1 256 -12 q 163 35 189 14 q 120 82 138 56 q 90 136 103 108 q 54 282 63 201 m 135 1183 q 167 1216 146 1197 q 214 1252 189 1235 q 266 1284 239 1269 q 315 1306 293 1299 q 369 1317 346 1315 q 408 1313 392 1318 q 435 1299 424 1308 q 458 1281 447 1290 q 479 1251 469 1269 q 491 1213 489 1233 q 485 1169 493 1192 q 450 1124 476 1146 q 382 1081 421 1097 q 307 1054 343 1065 q 224 1035 265 1042 q 181 1032 201 1029 q 144 1043 163 1035 q 115 1075 126 1051 q 106 1115 104 1096 q 114 1150 107 1135 q 135 1183 121 1167 z "},"Î":{"ha":583,"x_min":42,"x_max":542,"o":"m 54 282 q 44 406 46 339 q 43 532 42 474 q 49 669 44 600 q 83 824 56 756 q 114 881 96 853 q 158 930 132 908 q 218 965 183 951 q 299 979 253 979 q 400 946 354 975 q 440 914 419 933 q 477 865 460 894 q 508 797 494 836 q 528 708 521 758 q 540 524 539 611 q 539 371 542 438 q 528 228 535 294 q 492 107 518 160 q 463 63 479 85 q 422 24 446 42 q 368 -3 399 7 q 299 -12 338 -12 q 222 1 256 -12 q 163 35 189 14 q 120 82 138 56 q 90 136 103 108 q 54 282 63 201 m 82 1158 q 101 1181 83 1160 q 149 1225 119 1201 q 215 1269 178 1249 q 293 1289 253 1289 q 368 1269 332 1289 q 433 1224 404 1249 q 480 1177 463 1199 q 499 1154 497 1156 q 513 1096 518 1128 q 479 1044 507 1064 q 419 1031 451 1025 q 368 1064 388 1036 q 345 1089 365 1065 q 293 1131 325 1113 q 257 1106 274 1118 q 229 1082 240 1093 q 206 1060 215 1069 q 174 1035 190 1043 q 138 1028 158 1028 q 94 1047 118 1028 q 65 1101 68 1068 q 82 1158 61 1133 z "},"Ï":{"ha":583,"x_min":42,"x_max":542,"o":"m 54 282 q 44 406 46 339 q 43 532 42 474 q 49 669 44 600 q 83 824 56 756 q 114 881 96 853 q 158 930 132 908 q 218 965 183 951 q 299 979 253 979 q 400 946 354 975 q 440 914 419 933 q 477 865 460 894 q 508 797 494 836 q 528 708 521 758 q 540 524 539 611 q 539 371 542 438 q 528 228 535 294 q 492 107 518 160 q 463 63 479 85 q 422 24 446 42 q 368 -3 399 7 q 299 -12 338 -12 q 222 1 256 -12 q 163 35 189 14 q 120 82 138 56 q 90 136 103 108 q 54 282 63 201 m 264 1143 q 237 1067 264 1099 q 157 1035 210 1035 q 77 1067 104 1035 q 50 1143 50 1099 q 77 1219 50 1188 q 157 1250 104 1250 q 237 1219 210 1250 q 264 1143 264 1188 m 518 1143 q 491 1067 518 1099 q 411 1035 464 1035 q 331 1067 358 1035 q 304 1143 304 1099 q 331 1219 304 1188 q 411 1250 358 1250 q 491 1219 464 1250 q 518 1143 518 1188 z "},"Ì":{"ha":583,"x_min":42,"x_max":542,"o":"m 54 282 q 44 406 46 339 q 43 532 42 474 q 49 669 44 600 q 83 824 56 756 q 114 881 96 853 q 158 930 132 908 q 218 965 183 951 q 299 979 253 979 q 400 946 354 975 q 440 914 419 933 q 477 865 460 894 q 508 797 494 836 q 528 708 521 758 q 540 524 539 611 q 539 371 542 438 q 528 228 535 294 q 492 107 518 160 q 463 63 479 85 q 422 24 446 42 q 368 -3 399 7 q 299 -12 338 -12 q 222 1 256 -12 q 163 35 189 14 q 120 82 138 56 q 90 136 103 108 q 54 282 63 201 m 276 1308 q 326 1287 299 1301 q 378 1255 353 1272 q 424 1219 403 1238 q 457 1186 446 1200 q 476 1153 469 1169 q 485 1118 483 1138 q 476 1078 488 1099 q 447 1046 465 1054 q 411 1035 429 1038 q 368 1038 390 1032 q 283 1057 325 1044 q 209 1084 247 1068 q 142 1126 171 1100 q 107 1172 115 1149 q 101 1215 99 1194 q 113 1254 103 1236 q 133 1283 122 1272 q 156 1302 143 1293 q 184 1316 168 1311 q 222 1319 200 1321 q 276 1308 244 1318 z "},"J":{"ha":760,"x_min":38,"x_max":701,"o":"m 243 354 q 237 470 239 410 q 235 581 235 531 q 236 696 235 639 q 261 842 238 776 q 287 894 271 868 q 326 942 303 921 q 380 976 349 963 q 453 989 411 989 q 563 964 513 989 q 604 935 583 953 q 642 890 625 917 q 672 824 660 863 q 689 735 685 786 q 699 564 696 639 q 700 436 701 489 q 696 326 699 374 q 681 231 693 278 q 648 144 669 190 q 586 58 626 97 q 523 21 564 38 q 432 -4 482 4 q 326 -12 382 -12 q 219 1 271 -11 q 125 37 168 13 q 57 101 82 61 q 39 156 40 126 q 48 212 38 186 q 78 256 58 238 q 126 276 99 274 q 199 293 175 281 q 233 319 224 306 q 243 354 244 335 z "},"K":{"ha":1017,"x_min":51,"x_max":971,"o":"m 296 990 q 401 979 358 992 q 469 945 443 967 q 509 897 496 924 q 527 844 522 869 q 531 796 532 818 q 529 763 531 774 q 554 820 535 781 q 619 900 574 860 q 717 950 671 944 q 799 944 764 956 q 874 900 839 931 q 919 833 906 867 q 931 767 932 800 q 917 702 929 733 q 889 643 906 671 q 775 518 849 578 q 880 389 840 447 q 940 283 919 331 q 966 197 961 235 q 967 131 971 160 q 897 26 956 64 q 783 -12 836 -11 q 685 8 729 -12 q 606 63 640 28 q 547 133 571 99 q 508 194 522 168 q 493 226 494 221 q 494 190 493 222 q 483 119 496 158 q 437 44 471 81 q 335 -4 403 8 q 264 -7 296 -12 q 207 12 232 -1 q 163 45 182 25 q 131 86 144 65 q 81 206 97 136 q 58 351 65 272 q 53 511 51 419 q 71 710 54 603 q 124 874 88 817 q 200 957 161 931 q 296 990 244 988 z "},"L":{"ha":904,"x_min":44,"x_max":869,"o":"m 493 394 q 601 439 553 426 q 688 450 650 451 q 753 435 725 449 q 801 404 782 422 q 867 286 847 361 q 869 247 869 274 q 858 188 868 221 q 824 121 847 156 q 759 57 801 86 q 651 8 717 28 q 493 -15 586 -12 q 376 -7 428 -18 q 283 23 324 4 q 210 67 242 42 q 157 118 179 92 q 81 258 104 179 q 50 416 56 329 q 49 579 44 503 q 67 758 53 668 q 118 894 82 847 q 192 961 154 942 q 285 985 235 985 q 383 962 343 986 q 449 897 424 938 q 488 802 475 856 q 506 693 501 749 q 493 394 517 563 z "},"M":{"ha":1371,"x_min":42,"x_max":1315,"o":"m 433 994 q 537 974 494 994 q 607 923 579 954 q 650 855 635 892 q 673 785 665 818 q 682 728 681 753 q 683 699 683 704 q 689 734 685 708 q 704 793 693 760 q 733 863 715 826 q 780 928 751 899 q 849 978 808 958 q 944 997 889 997 q 1063 964 1013 997 q 1147 890 1114 931 q 1214 785 1186 844 q 1272 610 1251 697 q 1301 453 1292 524 q 1314 293 1313 369 q 1308 190 1315 235 q 1286 114 1300 146 q 1253 60 1272 82 q 1214 25 1235 39 q 1106 -8 1167 -7 q 1010 10 1051 -8 q 940 60 969 29 q 890 131 910 92 q 857 213 869 171 q 825 433 826 310 q 797 310 818 351 q 751 251 775 268 q 690 233 724 231 q 606 265 636 233 q 560 335 575 296 q 538 436 542 379 q 527 287 538 351 q 500 176 517 222 q 462 97 483 129 q 418 44 440 65 q 299 -8 365 -3 q 208 4 246 -8 q 142 37 169 17 q 96 83 114 57 q 67 138 78 110 q 42 285 42 203 q 58 491 42 397 q 93 653 74 585 q 146 796 117 732 q 232 920 182 879 q 326 978 282 961 q 433 994 379 997 z "},"N":{"ha":1143,"x_min":43,"x_max":1092,"o":"m 76 767 q 124 875 90 826 q 202 952 151 917 q 335 992 253 988 q 457 972 406 994 q 543 914 508 950 q 598 834 578 878 q 629 749 618 790 q 644 675 640 707 q 649 631 647 643 q 658 752 649 700 q 682 842 667 804 q 717 906 697 881 q 758 946 738 931 q 869 982 807 982 q 974 959 935 983 q 1035 904 1014 935 q 1068 824 1060 868 q 1092 591 1092 701 q 1085 394 1092 481 q 1057 206 1075 294 q 1033 128 1047 161 q 1001 73 1018 96 q 964 35 983 50 q 926 13 944 21 q 835 -3 882 -7 q 710 23 763 -4 q 619 92 657 50 q 558 184 582 133 q 519 281 533 235 q 499 361 504 326 q 492 407 493 396 q 488 260 496 322 q 465 153 481 197 q 430 79 450 108 q 388 33 410 50 q 268 -3 336 -7 q 171 19 208 -6 q 113 72 133 43 q 76 151 88 107 q 47 370 50 261 q 50 568 43 479 q 76 767 57 671 z "},"Æ":{"ha":1582,"x_min":32,"x_max":1547,"o":"m 1404 508 q 1385 439 1404 465 q 1340 397 1367 413 q 1286 376 1314 382 q 1242 369 1258 371 q 1344 363 1300 369 q 1421 343 1389 356 q 1475 314 1453 331 q 1511 281 1497 297 q 1547 188 1544 240 q 1531 128 1546 154 q 1492 83 1515 103 q 1438 51 1468 64 q 1378 29 1408 38 q 1214 4 1306 8 q 1036 6 1110 -4 q 910 36 963 17 q 851 0 886 13 q 782 -14 818 -11 q 715 -11 751 -17 q 642 15 678 -6 q 576 71 601 39 q 535 133 550 103 q 513 189 519 164 q 506 225 507 214 q 498 189 504 214 q 476 133 492 164 q 435 71 461 103 q 369 15 410 39 q 297 -11 333 -6 q 229 -14 260 -17 q 160 0 193 -11 q 112 26 132 10 q 78 62 92 42 q 56 105 65 82 q 43 150 47 128 q 35 263 32 203 q 57 444 39 361 q 102 595 75 526 q 161 719 129 664 q 224 818 193 774 q 317 919 269 885 q 406 970 365 954 q 474 988 447 986 q 506 990 501 990 q 535 988 510 990 q 598 973 560 986 q 682 929 636 960 q 772 840 728 899 q 817 900 789 875 q 878 943 844 925 q 949 973 911 961 q 1022 992 986 985 q 1204 1006 1108 1007 q 1321 1001 1271 1007 q 1407 983 1371 994 q 1467 956 1443 971 q 1507 926 1492 942 q 1544 842 1543 890 q 1531 769 1544 800 q 1495 717 1518 739 q 1442 681 1472 694 q 1382 658 1413 667 q 1215 642 1308 639 q 1331 613 1293 635 q 1386 568 1369 592 q 1404 508 1404 540 m 510 492 q 469 474 486 492 q 454 433 451 456 q 472 393 457 404 q 510 382 486 382 q 549 396 533 382 q 564 433 564 410 q 550 474 564 456 q 510 492 536 492 z "},"Ñ":{"ha":1143,"x_min":43,"x_max":1092,"o":"m 76 767 q 124 875 90 826 q 202 952 151 917 q 335 992 253 988 q 457 972 406 994 q 543 914 508 950 q 598 834 578 878 q 629 749 618 790 q 644 675 640 707 q 649 631 647 643 q 658 752 649 700 q 682 842 667 804 q 717 906 697 881 q 758 946 738 931 q 869 982 807 982 q 974 959 935 983 q 1035 904 1014 935 q 1068 824 1060 868 q 1092 591 1092 701 q 1085 394 1092 481 q 1057 206 1075 294 q 1033 128 1047 161 q 1001 73 1018 96 q 964 35 983 50 q 926 13 944 21 q 835 -3 882 -7 q 710 23 763 -4 q 619 92 657 50 q 558 184 582 133 q 519 281 533 235 q 499 361 504 326 q 492 407 493 396 q 488 260 496 322 q 465 153 481 197 q 430 79 450 108 q 388 33 410 50 q 268 -3 336 -7 q 171 19 208 -6 q 113 72 133 43 q 76 151 88 107 q 47 370 50 261 q 50 568 43 479 q 76 767 57 671 m 831 1131 q 783 1074 810 1093 q 729 1047 757 1054 q 673 1044 701 1040 q 618 1058 644 1049 q 490 1136 556 1082 q 455 1070 478 1089 q 408 1047 432 1051 q 351 1051 382 1042 q 319 1071 333 1057 q 296 1103 304 1085 q 285 1140 288 1121 q 290 1178 283 1160 q 363 1289 315 1253 q 410 1313 383 1304 q 473 1318 438 1322 q 553 1294 508 1314 q 651 1232 597 1274 l 654 1226 q 700 1290 668 1267 q 775 1299 732 1313 q 831 1264 810 1286 q 853 1212 849 1244 q 831 1131 858 1179 z "},"O":{"ha":1039,"x_min":46,"x_max":990,"o":"m 546 978 q 692 958 629 978 q 803 904 756 938 q 882 828 850 871 q 935 742 914 786 q 990 507 983 638 q 971 334 990 408 q 920 205 951 260 q 849 113 889 150 q 768 50 810 75 q 546 -15 671 -7 q 381 5 451 -15 q 257 58 310 25 q 168 133 204 90 q 108 219 132 175 q 46 454 53 322 q 67 642 46 563 q 124 778 89 721 q 204 873 160 836 q 296 932 249 910 q 546 978 406 983 m 525 532 q 484 514 501 532 q 469 474 467 496 q 487 433 472 444 q 525 422 501 422 q 564 436 549 422 q 579 474 579 450 q 565 514 579 496 q 525 532 551 532 z "},"Œ":{"ha":1560,"x_min":39,"x_max":1517,"o":"m 1374 508 q 1355 439 1374 465 q 1310 397 1336 413 q 1256 376 1283 382 q 1211 369 1228 371 q 1314 363 1269 369 q 1390 343 1358 356 q 1444 314 1422 331 q 1481 281 1467 297 q 1517 188 1514 240 q 1500 128 1515 154 q 1461 83 1485 103 q 1408 51 1438 64 q 1347 29 1378 38 q 1183 4 1275 8 q 1045 3 1106 -1 q 938 18 985 7 q 856 45 890 29 q 799 81 822 61 q 706 28 753 46 q 622 1 660 10 q 539 -10 578 -8 q 374 10 444 -10 q 250 63 303 31 q 161 138 197 96 q 101 225 125 181 q 39 460 46 328 q 60 647 39 568 q 117 784 82 726 q 197 878 153 842 q 289 938 242 915 q 539 983 399 989 q 685 963 622 983 q 796 910 749 943 q 910 971 844 950 q 1033 999 975 992 q 1174 1006 1101 1007 q 1290 1001 1240 1007 q 1376 983 1340 994 q 1437 956 1413 971 q 1476 926 1461 942 q 1514 842 1513 890 q 1501 769 1514 800 q 1465 717 1488 739 q 1412 681 1442 694 q 1351 658 1382 667 q 1185 642 1278 639 q 1301 613 1263 635 q 1356 568 1339 592 q 1374 508 1374 540 m 524 531 q 483 513 500 531 q 468 472 465 494 q 485 432 471 443 q 524 421 500 421 q 563 435 547 421 q 578 472 578 449 q 564 513 578 494 q 524 531 550 531 z "},"Ó":{"ha":1039,"x_min":46,"x_max":990,"o":"m 546 978 q 692 958 629 978 q 803 904 756 938 q 882 828 850 871 q 935 742 914 786 q 990 507 983 638 q 971 334 990 408 q 920 205 951 260 q 849 113 889 150 q 768 50 810 75 q 546 -15 671 -7 q 381 5 451 -15 q 257 58 310 25 q 168 133 204 90 q 108 219 132 175 q 46 454 53 322 q 67 642 46 563 q 124 778 89 721 q 204 873 160 836 q 296 932 249 910 q 546 978 406 983 m 525 532 q 484 514 501 532 q 469 474 467 496 q 487 433 472 444 q 525 422 501 422 q 564 436 549 422 q 579 474 579 450 q 565 514 579 496 q 525 532 551 532 m 347 1183 q 380 1216 358 1197 q 426 1252 401 1235 q 478 1284 451 1269 q 528 1306 506 1299 q 581 1317 558 1315 q 620 1313 604 1318 q 648 1299 636 1308 q 671 1281 660 1290 q 692 1251 682 1269 q 703 1213 701 1233 q 697 1169 706 1192 q 663 1124 689 1146 q 594 1081 633 1097 q 519 1054 556 1065 q 436 1035 478 1042 q 393 1032 414 1029 q 357 1043 375 1035 q 328 1075 339 1051 q 318 1115 317 1096 q 326 1150 319 1135 q 347 1183 333 1167 z "},"Ô":{"ha":1039,"x_min":46,"x_max":990,"o":"m 546 978 q 692 958 629 978 q 803 904 756 938 q 882 828 850 871 q 935 742 914 786 q 990 507 983 638 q 971 334 990 408 q 920 205 951 260 q 849 113 889 150 q 768 50 810 75 q 546 -15 671 -7 q 381 5 451 -15 q 257 58 310 25 q 168 133 204 90 q 108 219 132 175 q 46 454 53 322 q 67 642 46 563 q 124 778 89 721 q 204 873 160 836 q 296 932 249 910 q 546 978 406 983 m 315 1157 q 335 1179 317 1158 q 382 1224 353 1200 q 449 1267 411 1247 q 526 1288 486 1288 q 601 1267 565 1288 q 667 1222 638 1247 q 713 1176 696 1197 q 732 1153 731 1154 q 746 1094 751 1126 q 713 1043 740 1063 q 653 1029 685 1024 q 601 1063 621 1035 q 578 1088 599 1064 q 526 1129 558 1111 q 490 1104 507 1117 q 463 1081 474 1092 q 439 1058 449 1068 q 407 1033 424 1042 q 372 1026 392 1026 q 328 1046 351 1026 q 298 1099 301 1067 q 315 1157 294 1132 m 525 532 q 484 514 501 532 q 469 474 467 496 q 487 433 472 444 q 525 422 501 422 q 564 436 549 422 q 579 474 579 450 q 565 514 579 496 q 525 532 551 532 z "},"Ö":{"ha":1039,"x_min":46,"x_max":990,"o":"m 546 978 q 692 958 629 978 q 803 904 756 938 q 882 828 850 871 q 935 742 914 786 q 990 507 983 638 q 971 334 990 408 q 920 205 951 260 q 849 113 889 150 q 768 50 810 75 q 546 -15 671 -7 q 381 5 451 -15 q 257 58 310 25 q 168 133 204 90 q 108 219 132 175 q 46 454 53 322 q 67 642 46 563 q 124 778 89 721 q 204 873 160 836 q 296 932 249 910 q 546 978 406 983 m 525 532 q 484 514 501 532 q 469 474 467 496 q 487 433 472 444 q 525 422 501 422 q 564 436 549 422 q 579 474 579 450 q 565 514 579 496 q 525 532 551 532 m 507 1167 q 480 1090 507 1122 q 400 1058 453 1058 q 320 1090 347 1058 q 293 1167 293 1122 q 320 1242 293 1211 q 400 1274 347 1274 q 480 1242 453 1274 q 507 1167 507 1211 m 761 1167 q 734 1090 761 1122 q 654 1058 707 1058 q 574 1090 601 1058 q 547 1167 547 1122 q 574 1242 547 1211 q 654 1274 601 1274 q 734 1242 707 1274 q 761 1167 761 1211 z "},"Ò":{"ha":1039,"x_min":46,"x_max":990,"o":"m 546 978 q 692 958 629 978 q 803 904 756 938 q 882 828 850 871 q 935 742 914 786 q 990 507 983 638 q 971 334 990 408 q 920 205 951 260 q 849 113 889 150 q 768 50 810 75 q 546 -15 671 -7 q 381 5 451 -15 q 257 58 310 25 q 168 133 204 90 q 108 219 132 175 q 46 454 53 322 q 67 642 46 563 q 124 778 89 721 q 204 873 160 836 q 296 932 249 910 q 546 978 406 983 m 525 532 q 484 514 501 532 q 469 474 467 496 q 487 433 472 444 q 525 422 501 422 q 564 436 549 422 q 579 474 579 450 q 565 514 579 496 q 525 532 551 532 m 507 1313 q 556 1291 529 1306 q 608 1259 583 1276 q 655 1223 633 1242 q 688 1190 676 1204 q 707 1157 700 1174 q 716 1122 714 1142 q 707 1082 718 1103 q 678 1050 696 1058 q 642 1039 660 1042 q 599 1042 621 1036 q 514 1061 556 1049 q 440 1088 478 1072 q 372 1131 401 1104 q 338 1176 346 1153 q 331 1219 329 1199 q 343 1258 333 1240 q 364 1288 353 1276 q 386 1306 374 1297 q 415 1320 399 1315 q 453 1324 431 1325 q 507 1313 475 1322 z "},"Ø":{"ha":1039,"x_min":31,"x_max":1019,"o":"m 546 978 q 646 968 600 978 q 729 943 692 958 q 832 1030 792 1006 q 904 1054 872 1054 q 946 1047 925 1054 q 983 1025 967 1039 q 1009 992 999 1011 q 1019 951 1019 974 q 1010 907 1019 931 q 985 860 1000 883 q 952 813 969 836 q 919 771 935 790 q 960 676 946 722 q 982 592 975 629 q 990 507 989 547 q 971 334 990 408 q 920 205 951 260 q 849 113 889 150 q 768 50 810 75 q 546 -15 671 -7 q 404 -1 467 -15 q 293 38 342 13 q 258 0 276 19 q 220 -36 240 -19 q 178 -63 200 -53 q 133 -74 157 -74 q 61 -42 92 -74 q 31 31 31 -11 q 49 92 31 50 q 114 210 68 135 q 74 299 88 254 q 54 378 61 343 q 46 454 47 418 q 67 642 46 563 q 124 778 89 721 q 204 873 160 836 q 296 932 249 910 q 546 978 406 983 m 525 532 q 484 514 501 532 q 469 474 467 496 q 487 433 472 444 q 525 422 501 422 q 564 436 549 422 q 579 474 579 450 q 565 514 579 496 q 525 532 551 532 z "},"Õ":{"ha":1039,"x_min":46,"x_max":990,"o":"m 546 978 q 692 958 629 978 q 803 904 756 938 q 882 828 850 871 q 935 742 914 786 q 990 507 983 638 q 971 334 990 408 q 920 205 951 260 q 849 113 889 150 q 768 50 810 75 q 546 -15 671 -7 q 381 5 451 -15 q 257 58 310 25 q 168 133 204 90 q 108 219 132 175 q 46 454 53 322 q 67 642 46 563 q 124 778 89 721 q 204 873 160 836 q 296 932 249 910 q 546 978 406 983 m 778 1122 q 731 1065 757 1085 q 676 1039 704 1046 q 620 1036 649 1032 q 565 1050 592 1040 q 438 1128 503 1074 q 402 1062 425 1081 q 356 1039 379 1043 q 299 1043 329 1033 q 266 1063 281 1049 q 243 1094 251 1076 q 233 1132 235 1113 q 238 1169 231 1151 q 310 1281 263 1244 q 358 1305 331 1296 q 420 1310 385 1314 q 500 1285 456 1306 q 599 1224 544 1265 l 601 1218 q 647 1281 615 1258 q 722 1290 679 1304 q 778 1256 757 1278 q 801 1203 796 1236 q 778 1122 806 1171 m 525 532 q 484 514 501 532 q 469 474 467 496 q 487 433 472 444 q 525 422 501 422 q 564 436 549 422 q 579 474 579 450 q 565 514 579 496 q 525 532 551 532 z "},"P":{"ha":1024,"x_min":76,"x_max":965,"o":"m 963 643 q 949 510 965 567 q 903 415 932 454 q 835 350 874 375 q 757 311 797 325 q 542 285 663 276 q 553 194 553 233 q 544 126 553 156 q 522 77 536 97 q 492 43 508 57 q 396 4 453 11 q 260 25 314 -4 q 174 93 206 54 q 115 199 136 139 q 80 406 83 307 q 86 581 76 504 q 121 746 97 668 q 167 840 139 800 q 228 908 196 879 q 297 953 261 936 q 368 982 333 971 q 542 1001 450 1007 q 678 982 619 999 q 781 940 738 965 q 856 882 825 914 q 907 817 886 850 q 963 643 953 740 m 539 671 q 498 653 515 671 q 483 613 481 635 q 501 572 486 583 q 539 561 515 561 q 578 575 563 561 q 593 613 593 589 q 579 653 593 635 q 539 671 565 671 z "},"Q":{"ha":1157,"x_min":79,"x_max":1111,"o":"m 1003 286 q 1057 240 1031 265 q 1097 182 1083 214 q 1108 110 1111 150 q 1071 21 1104 71 q 985 -55 1032 -37 q 896 -65 939 -72 q 818 -33 853 -57 q 769 15 783 -10 q 701 -8 733 0 q 644 -19 668 -15 q 592 -25 615 -25 q 422 -5 496 -25 q 294 49 349 15 q 203 124 240 82 q 143 211 167 167 q 79 449 88 315 q 101 637 79 557 q 159 774 124 717 q 240 869 194 832 q 335 928 286 906 q 592 974 447 979 q 742 953 676 974 q 855 899 807 932 q 936 823 903 865 q 990 736 969 781 q 1047 500 1040 632 q 1035 375 1047 424 q 1003 286 1022 326 m 592 514 q 551 496 568 514 q 536 456 533 478 q 553 415 539 426 q 592 404 568 404 q 631 418 615 404 q 646 456 646 432 q 632 496 646 478 q 592 514 618 514 z "},"R":{"ha":954,"x_min":50,"x_max":933,"o":"m 863 721 q 867 588 876 646 q 842 489 857 529 q 794 407 822 442 q 874 324 844 364 q 918 250 904 285 q 933 185 932 215 q 928 131 933 156 q 860 25 913 72 q 760 -18 808 -17 q 672 3 713 -19 q 597 65 631 26 q 540 142 564 104 q 501 210 515 181 q 486 244 488 240 q 490 165 493 200 q 477 103 486 129 q 453 58 468 76 q 422 26 439 39 q 332 -11 385 -4 q 217 5 263 -21 q 144 64 171 31 q 97 156 113 103 q 56 378 61 278 q 57 554 50 479 q 88 711 65 640 q 126 810 101 768 q 183 882 151 851 q 249 932 214 913 q 317 963 283 951 q 486 985 396 989 q 596 973 547 985 q 683 942 644 961 q 749 901 721 924 q 797 853 778 878 q 863 721 843 796 m 486 625 q 445 607 463 625 q 431 567 428 589 q 448 526 433 538 q 486 515 463 515 q 525 529 510 515 q 540 567 540 543 q 526 607 540 589 q 486 625 513 625 z "},"S":{"ha":868,"x_min":49,"x_max":821,"o":"m 425 639 q 561 610 503 628 q 662 568 619 592 q 732 518 704 544 q 778 465 760 492 q 821 332 819 404 q 806 221 821 269 q 765 137 790 172 q 706 77 739 101 q 640 36 674 53 q 460 -8 561 -1 q 322 -8 382 -14 q 219 10 263 -3 q 145 42 175 24 q 97 81 115 60 q 49 192 51 128 q 61 269 49 238 q 96 323 74 301 q 147 358 118 344 q 204 378 175 371 q 363 382 274 393 q 258 417 301 396 q 183 466 214 439 q 134 522 153 493 q 104 579 115 551 q 88 721 79 646 q 112 811 94 772 q 153 878 129 850 q 203 924 176 906 q 258 954 231 943 q 401 981 324 981 q 606 967 531 986 q 720 918 682 949 q 767 851 758 888 q 774 783 776 814 q 753 724 769 749 q 711 683 736 700 q 655 656 686 667 q 592 642 624 646 q 425 639 517 629 z "},"Š":{"ha":868,"x_min":49,"x_max":821,"o":"m 425 639 q 626 587 549 622 q 745 508 703 551 q 803 417 788 464 q 821 332 819 371 q 798 197 821 253 q 738 102 775 140 q 655 42 701 64 q 560 8 608 19 q 467 -8 513 -4 q 388 -11 421 -11 q 218 9 283 -11 q 116 60 153 29 q 65 126 79 90 q 49 192 50 161 q 72 290 49 251 q 130 349 94 328 q 208 378 165 371 q 292 386 251 386 q 363 382 325 386 q 218 440 272 403 q 134 519 164 476 q 94 605 104 561 q 85 683 85 649 q 121 840 85 781 q 208 930 157 899 q 312 971 258 961 q 401 981 365 981 q 428 981 415 981 q 456 982 442 982 q 621 965 558 982 q 717 920 683 947 q 763 862 751 893 q 774 801 774 831 q 747 716 774 749 q 678 665 719 683 q 590 641 638 647 q 501 635 543 635 q 425 639 464 635 m 656 1171 q 636 1149 654 1169 q 589 1104 618 1128 q 522 1060 560 1081 q 444 1040 485 1040 q 369 1060 406 1040 q 303 1105 332 1081 q 258 1151 275 1129 q 239 1175 240 1172 q 224 1219 224 1194 q 247 1275 224 1250 q 306 1300 269 1300 q 368 1265 343 1300 q 376 1257 369 1264 q 392 1240 382 1250 q 415 1218 401 1229 q 444 1199 429 1207 q 494 1235 474 1217 q 530 1269 514 1254 q 560 1292 546 1283 q 594 1301 575 1301 q 621 1295 607 1301 q 647 1278 635 1289 q 666 1252 658 1267 q 674 1219 674 1238 q 656 1171 674 1193 z "},"T":{"ha":996,"x_min":28,"x_max":967,"o":"m 310 576 q 168 588 231 571 q 117 608 142 594 q 72 641 92 621 q 40 690 51 661 q 28 760 28 719 q 56 870 28 829 q 119 932 85 911 q 211 965 160 957 q 428 992 322 989 q 618 990 533 996 q 806 969 715 985 q 902 926 869 956 q 950 867 935 897 q 967 790 967 831 q 953 714 965 746 q 923 659 942 682 q 881 622 904 636 q 833 600 857 608 q 707 588 778 582 q 727 401 725 482 q 725 263 729 319 q 707 149 719 196 q 662 50 693 82 q 599 3 631 18 q 518 -14 561 -14 q 428 0 469 -15 q 358 47 392 14 q 310 149 325 81 q 292 295 294 219 q 294 433 290 371 q 310 576 300 507 z "},"Þ":{"ha":983,"x_min":36,"x_max":926,"o":"m 924 514 q 910 401 926 449 q 866 321 894 354 q 801 267 838 288 q 725 233 764 246 q 515 211 633 204 q 522 133 524 167 q 510 74 519 99 q 484 32 500 49 q 450 4 468 15 q 347 -24 407 -21 q 225 -3 274 -26 q 147 51 176 21 q 93 133 113 88 q 62 237 74 189 q 44 330 50 285 q 38 419 39 375 q 36 510 36 464 q 38 597 36 556 q 47 682 40 639 q 63 771 53 725 q 89 871 72 817 q 142 965 107 925 q 219 1026 171 1000 q 343 1044 268 1051 q 447 1014 403 1039 q 482 986 465 1003 q 509 945 499 969 q 522 889 519 921 q 517 815 525 857 q 653 799 594 813 q 754 763 711 785 q 826 714 797 740 q 875 660 856 688 q 924 514 919 594 m 536 557 q 495 539 513 557 q 481 499 478 521 q 498 458 483 469 q 536 447 513 447 q 575 461 560 447 q 590 499 590 475 q 576 539 590 521 q 536 557 563 557 z "},"U":{"ha":1065,"x_min":54,"x_max":1028,"o":"m 299 988 q 388 961 349 985 q 449 899 421 942 q 478 776 478 856 q 476 663 478 717 q 479 569 475 610 q 495 503 483 528 q 532 479 507 479 q 569 503 557 479 q 585 569 581 528 q 588 663 589 610 q 585 776 586 717 q 591 845 583 815 q 613 897 599 875 q 644 934 626 919 q 679 957 661 949 q 778 978 722 978 q 892 958 849 982 q 961 906 936 935 q 1003 825 989 869 q 1027 622 1026 719 q 1018 447 1028 524 q 986 279 1007 358 q 900 128 957 194 q 842 73 875 100 q 766 25 810 46 q 667 -8 722 4 q 546 -21 613 -21 q 442 -12 489 -21 q 357 11 396 -3 q 288 43 318 25 q 233 79 257 61 q 146 176 178 122 q 103 270 119 221 q 76 370 86 319 q 60 470 65 421 q 56 565 56 519 q 69 776 54 672 q 124 908 86 864 q 200 969 161 951 q 299 988 246 990 z "},"Ú":{"ha":1065,"x_min":54,"x_max":1028,"o":"m 299 988 q 388 961 349 985 q 449 899 421 942 q 478 776 478 856 q 476 663 478 717 q 479 569 475 610 q 495 503 483 528 q 532 479 507 479 q 569 503 557 479 q 585 569 581 528 q 588 663 589 610 q 585 776 586 717 q 591 845 583 815 q 613 897 599 875 q 644 934 626 919 q 679 957 661 949 q 778 978 722 978 q 892 958 849 982 q 961 906 936 935 q 1003 825 989 869 q 1027 622 1026 719 q 1018 447 1028 524 q 986 279 1007 358 q 900 128 957 194 q 842 73 875 100 q 766 25 810 46 q 667 -8 722 4 q 546 -21 613 -21 q 442 -12 489 -21 q 357 11 396 -3 q 288 43 318 25 q 233 79 257 61 q 146 176 178 122 q 103 270 119 221 q 76 370 86 319 q 60 470 65 421 q 56 565 56 519 q 69 776 54 672 q 124 908 86 864 q 200 969 161 951 q 299 988 246 990 m 399 1185 q 431 1217 410 1199 q 478 1253 453 1236 q 530 1285 503 1271 q 579 1307 557 1300 q 633 1318 610 1317 q 672 1315 656 1319 q 699 1301 688 1310 q 722 1282 711 1292 q 743 1253 733 1271 q 755 1214 753 1235 q 749 1170 757 1193 q 714 1125 740 1147 q 646 1083 685 1099 q 571 1056 607 1067 q 488 1036 529 1043 q 444 1033 465 1031 q 408 1044 426 1036 q 379 1076 390 1053 q 369 1117 368 1097 q 378 1151 371 1136 q 399 1185 385 1168 z "},"Û":{"ha":1065,"x_min":54,"x_max":1028,"o":"m 299 988 q 388 961 349 985 q 449 899 421 942 q 478 776 478 856 q 476 663 478 717 q 479 569 475 610 q 495 503 483 528 q 532 479 507 479 q 569 503 557 479 q 585 569 581 528 q 588 663 589 610 q 585 776 586 717 q 591 845 583 815 q 613 897 599 875 q 644 934 626 919 q 679 957 661 949 q 778 978 722 978 q 892 958 849 982 q 961 906 936 935 q 1003 825 989 869 q 1027 622 1026 719 q 1018 447 1028 524 q 986 279 1007 358 q 900 128 957 194 q 842 73 875 100 q 766 25 810 46 q 667 -8 722 4 q 546 -21 613 -21 q 442 -12 489 -21 q 357 11 396 -3 q 288 43 318 25 q 233 79 257 61 q 146 176 178 122 q 103 270 119 221 q 76 370 86 319 q 60 470 65 421 q 56 565 56 519 q 69 776 54 672 q 124 908 86 864 q 200 969 161 951 q 299 988 246 990 m 329 1154 q 349 1176 331 1156 q 396 1221 367 1197 q 463 1265 425 1244 q 540 1285 500 1285 q 615 1265 579 1285 q 681 1219 651 1244 q 727 1173 710 1194 q 746 1150 744 1151 q 760 1092 765 1124 q 726 1040 754 1060 q 667 1026 699 1021 q 615 1060 635 1032 q 592 1085 613 1061 q 540 1126 572 1108 q 504 1101 521 1114 q 476 1078 488 1089 q 453 1056 463 1065 q 421 1031 438 1039 q 385 1024 406 1024 q 342 1043 365 1024 q 312 1097 315 1064 q 329 1154 308 1129 z "},"Ü":{"ha":1065,"x_min":54,"x_max":1028,"o":"m 299 988 q 388 961 349 985 q 449 899 421 942 q 478 776 478 856 q 476 663 478 717 q 479 569 475 610 q 495 503 483 528 q 532 479 507 479 q 569 503 557 479 q 585 569 581 528 q 588 663 589 610 q 585 776 586 717 q 591 845 583 815 q 613 897 599 875 q 644 934 626 919 q 679 957 661 949 q 778 978 722 978 q 892 958 849 982 q 961 906 936 935 q 1003 825 989 869 q 1027 622 1026 719 q 1018 447 1028 524 q 986 279 1007 358 q 900 128 957 194 q 842 73 875 100 q 766 25 810 46 q 667 -8 722 4 q 546 -21 613 -21 q 442 -12 489 -21 q 357 11 396 -3 q 288 43 318 25 q 233 79 257 61 q 146 176 178 122 q 103 270 119 221 q 76 370 86 319 q 60 470 65 421 q 56 565 56 519 q 69 776 54 672 q 124 908 86 864 q 200 969 161 951 q 299 988 246 990 m 513 1167 q 485 1090 513 1122 q 406 1058 458 1058 q 326 1090 353 1058 q 299 1167 299 1122 q 326 1242 299 1211 q 406 1274 353 1274 q 485 1242 458 1274 q 513 1167 513 1211 m 767 1167 q 740 1090 767 1122 q 660 1058 713 1058 q 580 1090 607 1058 q 553 1167 553 1122 q 580 1242 553 1211 q 660 1274 607 1274 q 740 1242 713 1274 q 767 1167 767 1211 z "},"Ù":{"ha":1065,"x_min":54,"x_max":1028,"o":"m 299 988 q 388 961 349 985 q 449 899 421 942 q 478 776 478 856 q 476 663 478 717 q 479 569 475 610 q 495 503 483 528 q 532 479 507 479 q 569 503 557 479 q 585 569 581 528 q 588 663 589 610 q 585 776 586 717 q 591 845 583 815 q 613 897 599 875 q 644 934 626 919 q 679 957 661 949 q 778 978 722 978 q 892 958 849 982 q 961 906 936 935 q 1003 825 989 869 q 1027 622 1026 719 q 1018 447 1028 524 q 986 279 1007 358 q 900 128 957 194 q 842 73 875 100 q 766 25 810 46 q 667 -8 722 4 q 546 -21 613 -21 q 442 -12 489 -21 q 357 11 396 -3 q 288 43 318 25 q 233 79 257 61 q 146 176 178 122 q 103 270 119 221 q 76 370 86 319 q 60 470 65 421 q 56 565 56 519 q 69 776 54 672 q 124 908 86 864 q 200 969 161 951 q 299 988 246 990 m 471 1300 q 520 1278 493 1293 q 572 1247 547 1264 q 619 1210 597 1229 q 651 1178 640 1192 q 671 1144 664 1161 q 680 1110 678 1129 q 671 1069 682 1090 q 642 1038 660 1046 q 606 1026 624 1029 q 563 1029 585 1024 q 478 1049 519 1036 q 403 1076 442 1060 q 336 1118 365 1092 q 301 1163 310 1140 q 295 1207 293 1186 q 307 1246 297 1228 q 328 1275 317 1264 q 350 1294 338 1285 q 378 1308 363 1303 q 417 1311 394 1313 q 471 1300 439 1310 z "},"V":{"ha":1119,"x_min":38,"x_max":1092,"o":"m 582 589 q 644 815 600 718 q 689 894 663 857 q 751 957 715 931 q 831 994 786 983 q 932 993 875 1006 q 1019 952 986 981 q 1068 885 1051 924 q 1088 799 1085 846 q 1088 707 1092 753 q 1029 468 1078 599 q 914 231 981 335 q 851 143 886 186 q 774 67 815 100 q 684 13 732 33 q 582 -7 636 -7 q 440 23 504 -7 q 325 101 376 53 q 235 210 274 150 q 167 328 196 269 q 118 440 138 388 q 88 528 99 493 q 63 606 76 561 q 44 697 50 650 q 41 792 38 744 q 65 879 44 839 q 126 949 85 919 q 235 990 167 978 q 328 987 286 999 q 406 949 371 975 q 467 885 440 922 q 513 808 493 849 q 582 589 558 714 z "},"W":{"ha":1383,"x_min":40,"x_max":1340,"o":"m 953 -11 q 845 9 889 -11 q 772 60 801 29 q 728 127 743 90 q 705 197 713 164 q 696 253 697 229 q 694 283 694 278 q 688 248 693 274 q 672 190 683 222 q 642 121 661 157 q 594 55 624 85 q 522 6 564 25 q 424 -14 481 -14 q 301 19 353 -14 q 214 92 249 51 q 144 199 174 138 q 85 372 106 285 q 56 531 65 460 q 43 690 44 614 q 48 790 40 747 q 70 865 56 833 q 104 919 85 897 q 144 954 124 940 q 257 992 193 988 q 365 967 319 992 q 443 903 411 943 q 494 816 475 864 q 524 721 514 768 q 539 633 535 674 q 544 567 543 592 q 568 676 546 639 q 617 731 590 714 q 686 750 647 750 q 740 740 717 750 q 779 716 763 731 q 808 683 796 701 q 826 644 819 664 q 843 540 842 599 q 853 689 843 625 q 881 801 864 753 q 921 881 899 849 q 967 935 943 914 q 1092 992 1022 985 q 1175 979 1139 992 q 1238 946 1211 967 q 1282 899 1264 925 q 1311 843 1300 872 q 1340 690 1338 776 q 1325 485 1340 576 q 1290 326 1310 393 q 1240 189 1268 250 q 1201 119 1222 149 q 1156 69 1179 90 q 1108 33 1132 47 q 1061 10 1083 18 q 953 -11 1008 -11 z "},"X":{"ha":1157,"x_min":24,"x_max":1061,"o":"m 558 749 q 674 926 608 860 q 735 976 701 954 q 806 1003 768 997 q 888 995 844 1008 q 978 940 931 982 q 1032 870 1015 907 q 1049 795 1049 833 q 1038 719 1050 757 q 1008 649 1026 682 q 886 490 965 569 q 1017 349 971 422 q 1049 281 1036 317 q 1060 208 1061 246 q 1041 129 1058 169 q 982 50 1024 89 q 874 -13 926 -3 q 775 -8 822 -24 q 688 44 728 8 q 617 117 647 79 q 567 190 586 156 q 542 239 547 224 q 426 58 490 125 q 367 8 399 29 q 297 -18 335 -12 q 218 -9 260 -24 q 131 49 176 6 q 69 130 88 89 q 50 210 51 171 q 62 287 49 250 q 96 356 75 324 q 233 501 143 432 q 76 644 131 569 q 38 713 53 676 q 25 788 24 749 q 48 866 26 826 q 119 946 69 906 q 208 993 165 982 q 291 997 251 1004 q 366 968 331 989 q 431 919 401 947 q 558 749 500 854 z "},"Y":{"ha":1028,"x_min":25,"x_max":1006,"o":"m 542 760 q 616 917 571 865 q 706 989 661 969 q 813 1006 757 1013 q 888 986 857 1000 q 940 953 919 972 q 973 913 961 935 q 992 868 985 890 q 994 751 1006 815 q 935 619 976 675 q 850 526 893 563 q 742 454 800 483 q 767 297 769 367 q 751 179 764 228 q 708 78 736 122 q 636 15 676 33 q 542 -4 596 -4 q 465 6 497 -4 q 411 28 432 15 q 369 60 386 42 q 333 114 347 85 q 310 175 318 143 q 299 240 301 207 q 296 301 296 272 q 311 444 296 371 q 182 521 240 475 q 133 565 157 540 q 88 618 108 589 q 52 681 67 647 q 32 754 38 715 q 31 835 25 800 q 49 898 36 871 q 78 944 61 925 q 115 976 96 964 q 222 1015 161 1007 q 307 1008 268 1018 q 377 981 346 999 q 433 941 408 964 q 475 893 457 918 q 542 760 518 836 z "},"Ý":{"ha":1028,"x_min":25,"x_max":1006,"o":"m 542 760 q 616 917 571 865 q 706 989 661 969 q 813 1006 757 1013 q 888 986 857 1000 q 940 953 919 972 q 973 913 961 935 q 992 868 985 890 q 994 751 1006 815 q 935 619 976 675 q 850 526 893 563 q 742 454 800 483 q 767 297 769 367 q 751 179 764 228 q 708 78 736 122 q 636 15 676 33 q 542 -4 596 -4 q 465 6 497 -4 q 411 28 432 15 q 369 60 386 42 q 333 114 347 85 q 310 175 318 143 q 299 240 301 207 q 296 301 296 272 q 311 444 296 371 q 182 521 240 475 q 133 565 157 540 q 88 618 108 589 q 52 681 67 647 q 32 754 38 715 q 31 835 25 800 q 49 898 36 871 q 78 944 61 925 q 115 976 96 964 q 222 1015 161 1007 q 307 1008 268 1018 q 377 981 346 999 q 433 941 408 964 q 475 893 457 918 q 542 760 518 836 m 444 1185 q 477 1217 456 1199 q 524 1253 499 1236 q 576 1285 549 1271 q 625 1307 603 1300 q 678 1318 656 1317 q 717 1315 701 1319 q 745 1301 733 1310 q 768 1282 757 1292 q 789 1253 779 1271 q 801 1214 799 1235 q 794 1170 803 1193 q 760 1125 786 1147 q 692 1083 731 1099 q 617 1056 653 1067 q 533 1036 575 1043 q 490 1033 511 1031 q 454 1044 472 1036 q 425 1076 436 1053 q 415 1117 414 1097 q 424 1151 417 1136 q 444 1185 431 1168 z "},"Ÿ":{"ha":1028,"x_min":25,"x_max":1006,"o":"m 542 760 q 616 917 571 865 q 706 989 661 969 q 813 1006 757 1013 q 888 986 857 1000 q 940 953 919 972 q 973 913 961 935 q 992 868 985 890 q 994 751 1006 815 q 935 619 976 675 q 850 526 893 563 q 742 454 800 483 q 767 297 769 367 q 751 179 764 228 q 708 78 736 122 q 636 15 676 33 q 542 -4 596 -4 q 465 6 497 -4 q 411 28 432 15 q 369 60 386 42 q 333 114 347 85 q 310 175 318 143 q 299 240 301 207 q 296 301 296 272 q 311 444 296 371 q 182 521 240 475 q 133 565 157 540 q 88 618 108 589 q 52 681 67 647 q 32 754 38 715 q 31 835 25 800 q 49 898 36 871 q 78 944 61 925 q 115 976 96 964 q 222 1015 161 1007 q 307 1008 268 1018 q 377 981 346 999 q 433 941 408 964 q 475 893 457 918 q 542 760 518 836 m 524 1186 q 497 1110 524 1142 q 417 1078 469 1078 q 337 1110 364 1078 q 310 1186 310 1142 q 337 1262 310 1231 q 417 1293 364 1293 q 497 1262 469 1293 q 524 1186 524 1231 m 778 1186 q 751 1110 778 1142 q 671 1078 724 1078 q 591 1110 618 1078 q 564 1186 564 1142 q 591 1262 564 1231 q 671 1293 618 1293 q 751 1262 724 1293 q 778 1186 778 1231 z "},"Z":{"ha":1010,"x_min":50,"x_max":965,"o":"m 339 544 q 194 563 258 542 q 141 585 167 571 q 95 622 115 600 q 63 676 75 644 q 50 751 50 708 q 96 865 50 815 q 146 906 115 886 q 223 942 176 926 q 333 967 269 958 q 483 974 397 975 q 673 958 597 971 q 792 919 749 944 q 851 855 836 893 q 860 767 867 817 q 818 651 847 711 q 748 534 793 599 q 628 401 703 469 q 796 396 721 411 q 858 376 828 389 q 913 342 889 364 q 951 288 936 319 q 965 211 965 256 q 925 74 965 122 q 822 3 885 25 q 681 -23 758 -19 q 532 -26 604 -26 q 390 -25 460 -26 q 263 -10 321 -24 q 161 35 204 4 q 97 128 118 67 q 86 208 83 168 q 103 284 89 247 q 141 354 118 321 q 190 417 164 388 q 339 544 251 483 z "},"Ž":{"ha":1010,"x_min":50,"x_max":965,"o":"m 339 544 l 322 544 q 235 552 282 544 q 147 581 188 560 q 78 644 106 603 q 50 751 50 685 q 65 822 50 783 q 125 894 81 861 q 249 951 169 928 q 460 974 329 974 q 647 963 569 974 q 772 929 724 951 q 841 874 819 907 q 863 799 863 842 q 849 727 863 764 q 818 651 836 690 q 748 534 793 599 q 628 401 703 469 q 696 406 663 406 q 783 399 736 406 q 871 371 831 392 q 938 312 911 350 q 965 211 965 274 q 919 66 965 115 q 801 -4 872 17 q 645 -26 729 -25 q 486 -26 561 -26 q 358 -23 419 -26 q 244 -5 296 -19 q 155 41 193 10 q 97 128 117 72 q 88 161 90 144 q 86 194 86 178 q 108 298 86 249 q 166 391 131 347 q 247 474 201 435 q 339 544 292 513 m 704 1154 q 685 1132 703 1153 q 638 1088 667 1111 q 571 1044 608 1064 q 493 1024 533 1024 q 417 1044 454 1024 q 353 1089 381 1064 q 307 1135 325 1114 q 288 1158 289 1157 q 272 1203 272 1178 q 295 1258 272 1233 q 354 1283 318 1283 q 417 1249 394 1283 q 424 1240 418 1247 q 440 1223 431 1233 q 464 1201 450 1213 q 493 1182 478 1190 q 542 1219 522 1200 q 578 1252 563 1238 q 609 1276 594 1267 q 643 1285 624 1285 q 669 1278 656 1285 q 695 1261 683 1272 q 715 1235 707 1250 q 722 1203 722 1221 q 704 1154 722 1176 z "},"a":{"ha":978,"x_min":39,"x_max":953,"o":"m 336 713 q 457 705 410 719 q 531 669 504 690 q 569 628 558 649 q 582 604 581 608 q 590 624 582 606 q 615 665 597 643 q 664 705 633 688 q 740 722 694 722 q 808 707 779 722 q 860 667 838 692 q 897 610 882 642 q 922 544 913 578 q 949 368 946 467 q 946 230 953 289 q 926 128 939 171 q 894 58 913 86 q 857 13 876 29 q 750 -25 811 -28 q 679 -12 713 -26 q 625 26 651 -1 q 592 106 599 53 q 542 35 578 64 q 456 -8 511 10 q 308 -15 400 -26 q 175 29 233 -7 q 126 68 150 44 q 83 126 101 92 q 53 207 64 161 q 42 313 42 253 q 68 501 39 417 q 101 573 81 538 q 154 638 122 608 q 231 687 186 667 q 336 713 275 707 m 521 386 q 480 368 497 386 q 465 328 463 350 q 483 288 468 299 q 521 276 497 276 q 560 290 544 276 q 575 328 575 304 q 561 368 575 350 q 521 386 547 386 z "},"á":{"ha":978,"x_min":39,"x_max":953,"o":"m 582 604 q 614 663 593 638 q 662 703 632 685 q 740 722 692 722 q 808 707 779 722 q 860 667 838 692 q 897 610 882 642 q 922 544 913 578 q 949 368 946 467 q 946 230 953 289 q 926 128 939 171 q 894 58 913 86 q 857 13 876 29 q 750 -25 811 -28 q 679 -12 713 -26 q 625 26 651 -1 q 592 106 599 53 q 542 35 578 64 q 456 -8 511 10 q 308 -15 400 -26 q 175 29 233 -7 q 126 68 150 44 q 83 126 101 92 q 53 207 64 161 q 42 313 42 253 q 68 501 39 417 q 101 573 81 538 q 154 638 122 608 q 231 687 186 667 q 336 713 275 707 q 461 703 414 719 q 536 665 508 688 q 582 604 568 640 m 521 386 q 480 368 497 386 q 465 328 463 350 q 483 288 468 299 q 521 276 497 276 q 560 290 544 276 q 575 328 575 304 q 561 368 575 350 q 521 386 547 386 m 349 926 q 381 959 360 940 q 428 995 403 978 q 480 1027 453 1013 q 529 1049 507 1042 q 583 1060 560 1058 q 622 1056 606 1061 q 649 1042 638 1051 q 672 1024 661 1033 q 693 994 683 1013 q 705 956 703 976 q 699 912 707 935 q 664 867 690 889 q 596 824 635 840 q 521 797 557 808 q 438 778 479 785 q 394 775 415 772 q 358 786 376 778 q 329 818 340 794 q 319 858 318 839 q 328 893 321 878 q 349 926 335 910 z "},"â":{"ha":978,"x_min":39,"x_max":953,"o":"m 582 604 q 614 663 593 638 q 662 703 632 685 q 740 722 692 722 q 808 707 779 722 q 860 667 838 692 q 897 610 882 642 q 922 544 913 578 q 949 368 946 467 q 946 230 953 289 q 926 128 939 171 q 894 58 913 86 q 857 13 876 29 q 750 -25 811 -28 q 679 -12 713 -26 q 625 26 651 -1 q 592 106 599 53 q 542 35 578 64 q 456 -8 511 10 q 308 -15 400 -26 q 175 29 233 -7 q 126 68 150 44 q 83 126 101 92 q 53 207 64 161 q 42 313 42 253 q 68 501 39 417 q 101 573 81 538 q 154 638 122 608 q 231 687 186 667 q 336 713 275 707 q 461 703 414 719 q 536 665 508 688 q 582 604 568 640 m 282 910 q 301 932 283 911 q 349 976 319 953 q 415 1020 378 1000 q 493 1040 453 1040 q 568 1020 532 1040 q 633 975 604 1000 q 680 928 663 950 q 699 906 697 907 q 713 847 718 879 q 679 796 707 815 q 619 782 651 776 q 568 815 588 788 q 545 840 565 817 q 493 882 525 864 q 457 857 474 869 q 429 833 440 844 q 406 811 415 821 q 374 786 390 794 q 338 779 358 779 q 294 799 318 779 q 265 852 268 819 q 282 910 261 885 m 521 386 q 480 368 497 386 q 465 328 463 350 q 483 288 468 299 q 521 276 497 276 q 560 290 544 276 q 575 328 575 304 q 561 368 575 350 q 521 386 547 386 z "},"´":{"ha":475,"x_min":38,"x_max":426,"o":"m 68 926 q 101 959 79 940 q 147 995 122 978 q 199 1027 172 1013 q 249 1049 226 1042 q 302 1060 279 1058 q 341 1056 325 1061 q 369 1042 357 1051 q 392 1024 381 1033 q 413 994 403 1013 q 424 956 422 976 q 418 912 426 935 q 383 867 410 889 q 315 824 354 840 q 240 797 276 808 q 157 778 199 785 q 114 775 135 772 q 78 786 96 778 q 49 818 60 794 q 39 858 38 839 q 47 893 40 878 q 68 926 54 910 z "},"ä":{"ha":978,"x_min":39,"x_max":953,"o":"m 336 713 q 457 705 410 719 q 531 669 504 690 q 569 628 558 649 q 582 604 581 608 q 590 624 582 606 q 615 665 597 643 q 664 705 633 688 q 740 722 694 722 q 808 707 779 722 q 860 667 838 692 q 897 610 882 642 q 922 544 913 578 q 949 368 946 467 q 946 230 953 289 q 926 128 939 171 q 894 58 913 86 q 857 13 876 29 q 750 -25 811 -28 q 679 -12 713 -26 q 625 26 651 -1 q 592 106 599 53 q 542 35 578 64 q 456 -8 511 10 q 308 -15 400 -26 q 175 29 233 -7 q 126 68 150 44 q 83 126 101 92 q 53 207 64 161 q 42 313 42 253 q 68 501 39 417 q 101 573 81 538 q 154 638 122 608 q 231 687 186 667 q 336 713 275 707 m 754 914 q 727 838 754 869 q 647 806 700 806 q 567 838 594 806 q 540 914 540 869 q 567 990 540 958 q 647 1021 594 1021 q 727 990 700 1021 q 754 914 754 958 m 500 914 q 473 838 500 869 q 393 806 446 806 q 313 838 340 806 q 286 914 286 869 q 313 990 286 958 q 393 1021 340 1021 q 473 990 446 1021 q 500 914 500 958 m 521 386 q 480 368 497 386 q 465 328 463 350 q 483 288 468 299 q 521 276 497 276 q 560 290 544 276 q 575 328 575 304 q 561 368 575 350 q 521 386 547 386 z "},"æ":{"ha":1489,"x_min":51,"x_max":1433,"o":"m 1158 286 q 1243 247 1199 254 q 1326 233 1288 239 q 1391 213 1364 228 q 1425 149 1418 197 q 1418 94 1426 121 q 1390 47 1410 71 q 1326 6 1369 22 q 1194 -19 1265 -14 q 1056 -17 1133 -25 q 893 25 978 -10 l 888 28 q 882 31 885 29 q 875 35 879 32 q 834 6 854 15 q 799 -6 814 -3 q 763 -8 781 -10 q 692 4 725 -10 q 638 42 664 15 q 604 122 611 69 q 554 51 590 81 q 468 8 524 26 q 321 1 413 -10 q 188 46 246 10 q 138 85 163 61 q 95 143 114 108 q 65 224 76 178 q 54 329 54 269 q 81 518 51 433 q 114 590 93 554 q 167 654 135 625 q 243 703 199 683 q 349 729 288 724 q 469 722 422 736 q 544 686 517 707 q 582 645 571 665 q 594 621 593 625 q 602 641 594 622 q 628 682 610 660 q 676 722 646 704 q 753 739 707 739 q 822 724 793 739 q 874 683 851 708 q 902 699 888 692 q 933 711 917 706 q 1078 733 1004 732 q 1144 730 1108 733 q 1215 716 1179 726 q 1286 686 1250 706 q 1356 638 1322 667 q 1394 588 1378 615 q 1421 527 1410 563 q 1433 443 1432 492 q 1409 354 1433 389 q 1345 301 1385 319 q 1256 280 1306 283 q 1158 286 1207 276 m 522 279 q 560 292 544 279 q 575 329 575 304 q 560 372 575 357 q 522 388 544 388 q 486 372 501 388 q 471 329 471 357 q 486 292 471 304 q 522 279 501 279 m 1119 365 q 1151 376 1139 365 q 1164 406 1164 386 q 1153 435 1164 424 q 1119 447 1143 447 q 1086 435 1096 447 q 1076 406 1076 424 q 1088 374 1076 383 q 1119 365 1100 365 z "},"à":{"ha":978,"x_min":39,"x_max":953,"o":"m 336 713 q 457 705 410 719 q 531 669 504 690 q 569 628 558 649 q 582 604 581 608 q 590 624 582 606 q 615 665 597 643 q 664 705 633 688 q 740 722 694 722 q 808 707 779 722 q 860 667 838 692 q 897 610 882 642 q 922 544 913 578 q 949 368 946 467 q 946 230 953 289 q 926 128 939 171 q 894 58 913 86 q 857 13 876 29 q 750 -25 811 -28 q 679 -12 713 -26 q 625 26 651 -1 q 592 106 599 53 q 542 35 578 64 q 456 -8 511 10 q 308 -15 400 -26 q 175 29 233 -7 q 126 68 150 44 q 83 126 101 92 q 53 207 64 161 q 42 313 42 253 q 68 501 39 417 q 101 573 81 538 q 154 638 122 608 q 231 687 186 667 q 336 713 275 707 m 463 1051 q 512 1030 485 1044 q 564 998 539 1015 q 610 962 589 981 q 643 929 632 943 q 663 896 656 913 q 672 861 669 881 q 663 821 674 842 q 633 789 651 797 q 597 778 615 781 q 554 781 576 775 q 469 800 511 788 q 395 827 433 811 q 328 869 357 843 q 293 915 301 892 q 287 958 285 938 q 299 997 289 979 q 319 1026 308 1015 q 342 1045 329 1036 q 370 1059 354 1054 q 408 1063 386 1064 q 463 1051 431 1061 m 521 386 q 480 368 497 386 q 465 328 463 350 q 483 288 468 299 q 521 276 497 276 q 560 290 544 276 q 575 328 575 304 q 561 368 575 350 q 521 386 547 386 z "},"&":{"ha":1108,"x_min":53,"x_max":1068,"o":"m 243 649 q 206 764 215 707 q 206 869 197 813 q 261 972 214 925 q 354 1034 303 1014 q 458 1055 406 1054 q 559 1037 510 1056 q 644 981 608 1018 q 699 885 683 938 q 706 780 713 840 q 644 649 699 719 q 697 589 672 621 q 744 524 719 561 q 789 446 769 488 q 876 507 832 486 q 956 524 914 525 q 1035 479 999 524 q 1058 390 1068 435 q 1022 308 1049 344 q 966 247 994 271 q 933 219 938 222 q 950 203 936 217 q 980 165 964 189 q 1010 112 996 142 q 1025 50 1024 82 q 1011 -15 1026 18 q 956 -79 996 -49 q 901 -106 928 -100 q 850 -110 875 -112 q 803 -97 825 -107 q 761 -74 781 -87 q 678 11 715 -42 q 540 -56 614 -33 q 472 -71 508 -65 q 395 -74 436 -76 q 310 -60 354 -72 q 221 -22 267 -47 q 121 68 161 13 q 89 122 104 92 q 65 189 74 151 q 54 271 56 226 q 64 368 53 315 q 94 461 72 414 q 149 551 114 501 q 243 649 183 601 m 428 358 q 385 326 396 343 q 376 296 375 310 q 389 264 378 281 q 422 242 404 243 q 453 250 439 242 q 485 278 468 258 l 428 358 z "},"å":{"ha":978,"x_min":39,"x_max":953,"o":"m 336 713 q 457 705 410 719 q 531 669 504 690 q 569 628 558 649 q 582 604 581 608 q 590 624 582 606 q 615 665 597 643 q 664 705 633 688 q 740 722 694 722 q 808 707 779 722 q 860 667 838 692 q 897 610 882 642 q 922 544 913 578 q 949 368 946 467 q 946 230 953 289 q 926 128 939 171 q 894 58 913 86 q 857 13 876 29 q 750 -25 811 -28 q 679 -12 713 -26 q 625 26 651 -1 q 592 106 599 53 q 542 35 578 64 q 456 -8 511 10 q 308 -15 400 -26 q 175 29 233 -7 q 126 68 150 44 q 83 126 101 92 q 53 207 64 161 q 42 313 42 253 q 68 501 39 417 q 101 573 81 538 q 154 638 122 608 q 231 687 186 667 q 336 713 275 707 m 686 901 q 673 839 686 868 q 637 788 660 810 q 583 754 614 767 q 517 742 551 742 q 450 754 481 742 q 396 788 419 767 q 359 839 372 810 q 346 901 346 868 q 359 963 346 935 q 396 1014 372 992 q 450 1049 419 1036 q 517 1061 481 1061 q 583 1049 551 1061 q 637 1014 614 1036 q 673 963 660 992 q 686 901 686 935 m 515 976 q 458 956 476 976 q 440 903 440 935 q 458 852 440 872 q 517 832 476 832 q 573 851 557 832 q 589 901 589 871 q 569 957 589 938 q 515 976 550 976 m 521 386 q 480 368 497 386 q 465 328 463 350 q 483 288 468 299 q 521 276 497 276 q 560 290 544 276 q 575 328 575 304 q 561 368 575 350 q 521 386 547 386 z "},"^":{"ha":882,"x_min":49,"x_max":825,"o":"m 79 757 q 95 781 81 758 q 135 835 110 803 q 193 904 160 867 q 266 974 226 942 q 349 1026 306 1006 q 438 1047 392 1047 q 525 1026 482 1047 q 608 974 568 1006 q 683 904 649 942 q 744 835 718 867 q 784 781 769 803 q 800 757 799 758 q 821 703 817 733 q 819 643 825 674 q 795 585 813 613 q 750 540 778 558 q 636 519 690 503 q 544 586 582 535 q 517 619 532 601 q 483 654 503 635 q 440 697 464 674 q 385 640 410 667 q 343 592 361 613 q 304 547 322 567 q 247 510 279 521 q 182 504 219 500 q 100 547 144 508 q 67 592 79 565 q 51 649 54 619 q 56 707 49 678 q 79 757 63 736 z "},"~":{"ha":689,"x_min":43,"x_max":618,"o":"m 590 297 q 543 240 569 260 q 489 214 517 221 q 433 211 461 207 q 378 225 404 215 q 250 303 315 249 q 215 237 238 256 q 168 214 192 218 q 111 218 142 208 q 78 238 93 224 q 56 269 64 251 q 45 307 47 288 q 50 344 43 326 q 122 456 75 419 q 170 480 143 471 q 233 485 197 489 q 313 460 268 481 q 411 399 357 440 l 414 393 q 460 456 428 433 q 535 465 492 479 q 590 431 569 453 q 613 378 608 411 q 590 297 618 346 z "},"*":{"ha":868,"x_min":93,"x_max":760,"o":"m 339 819 q 339 901 331 865 q 350 932 343 917 q 371 959 357 947 q 404 978 385 971 q 453 985 424 985 q 529 961 499 982 q 569 906 556 943 q 561 800 583 868 q 660 810 615 815 q 696 801 678 807 q 728 781 714 794 q 751 745 743 767 q 760 692 760 724 q 752 638 760 660 q 733 601 744 615 q 706 578 721 586 q 675 567 690 571 q 590 568 638 558 q 629 496 618 532 q 631 431 639 465 q 576 369 622 397 q 493 353 528 342 q 435 390 458 365 q 390 467 408 419 q 338 408 368 428 q 274 391 311 392 q 192 431 238 390 q 161 489 168 458 q 165 548 154 515 q 222 615 175 581 q 139 661 171 635 q 114 687 125 672 q 98 719 103 701 q 96 756 93 736 q 114 800 99 776 q 183 858 144 849 q 257 858 222 867 q 339 819 297 849 z "},"@":{"ha":986,"x_min":58,"x_max":940,"o":"m 222 638 q 269 631 250 638 q 299 615 288 624 q 315 597 310 606 q 321 585 319 588 q 326 598 322 589 q 340 617 331 607 q 363 634 349 626 q 399 642 378 642 q 456 614 436 642 q 486 554 476 586 q 500 468 497 517 q 487 353 500 393 q 456 297 474 314 q 422 279 439 281 q 399 278 406 278 q 383 279 393 278 q 360 287 372 281 q 339 306 349 293 q 326 340 329 318 q 307 310 321 324 q 274 290 296 299 q 217 281 251 281 q 202 281 210 281 q 188 282 194 281 q 166 285 186 282 q 122 305 146 289 q 78 356 97 321 q 58 453 58 390 q 63 499 58 468 q 83 561 67 531 q 133 615 100 592 q 222 638 165 638 m 622 674 q 621 681 621 676 q 619 697 619 685 q 623 727 619 711 q 636 758 626 743 q 665 782 646 772 q 715 792 683 792 q 768 779 749 792 q 797 749 788 767 q 810 714 807 732 q 813 685 813 696 q 833 672 813 674 q 876 665 853 671 q 920 641 900 658 q 940 582 940 624 q 928 536 940 553 q 897 510 915 519 q 861 499 879 501 q 832 497 843 497 l 821 497 q 822 481 821 489 q 823 463 822 474 q 824 440 824 453 q 820 385 824 415 q 808 331 817 356 q 781 288 799 306 q 733 271 763 271 q 681 281 701 271 q 650 310 661 292 q 635 353 639 328 q 631 408 631 379 q 635 501 631 451 q 625 500 631 500 q 600 499 618 499 q 567 501 585 499 q 535 513 550 504 q 509 538 519 522 q 499 582 499 554 q 511 628 499 610 q 542 656 524 646 q 583 670 561 667 q 622 674 604 674 m 850 201 q 888 195 874 201 q 908 181 901 189 q 917 166 915 174 q 918 156 918 158 q 917 147 918 153 q 910 133 915 140 q 894 120 906 126 q 864 113 883 114 q 788 108 832 110 q 690 106 743 107 q 577 103 636 104 q 458 103 518 103 q 285 104 368 103 q 139 108 201 106 q 99 117 113 110 q 79 131 86 124 q 71 150 72 139 q 79 174 71 163 q 101 191 86 183 q 143 200 115 199 q 308 203 221 203 q 482 204 396 204 q 623 203 557 204 q 740 203 689 203 q 850 201 799 201 m 286 469 q 268 463 275 469 q 261 442 261 456 q 268 423 261 429 q 286 417 275 417 q 304 423 297 417 q 311 442 311 429 q 304 463 311 456 q 286 469 297 469 z "},"ã":{"ha":1006,"x_min":39,"x_max":953,"o":"m 336 713 q 457 705 410 719 q 531 669 504 690 q 569 628 558 649 q 582 604 581 608 q 590 624 582 606 q 615 665 597 643 q 664 705 633 688 q 740 722 694 722 q 808 707 779 722 q 860 667 838 692 q 897 610 882 642 q 922 544 913 578 q 949 368 946 467 q 946 230 953 289 q 926 128 939 171 q 894 58 913 86 q 857 13 876 29 q 750 -25 811 -28 q 679 -12 713 -26 q 625 26 651 -1 q 592 106 599 53 q 542 35 578 64 q 456 -8 511 10 q 308 -15 400 -26 q 175 29 233 -7 q 126 68 150 44 q 83 126 101 92 q 53 207 64 161 q 42 313 42 253 q 68 501 39 417 q 101 573 81 538 q 154 638 122 608 q 231 687 186 667 q 336 713 275 707 m 754 874 q 707 817 733 836 q 653 790 681 797 q 597 788 625 783 q 542 801 568 792 q 414 879 479 825 q 378 813 401 832 q 332 790 356 794 q 275 794 306 785 q 242 814 257 800 q 219 846 228 828 q 209 883 211 864 q 214 921 207 903 q 286 1032 239 996 q 334 1056 307 1047 q 397 1061 361 1065 q 476 1037 432 1057 q 575 975 521 1017 l 578 969 q 624 1033 592 1010 q 699 1042 656 1056 q 754 1007 733 1029 q 777 955 772 988 q 754 874 782 922 m 521 386 q 480 368 497 386 q 465 328 463 350 q 483 288 468 299 q 521 276 497 276 q 560 290 544 276 q 575 328 575 304 q 561 368 575 350 q 521 386 547 386 z "},"b":{"ha":944,"x_min":49,"x_max":906,"o":"m 294 1063 q 369 1040 339 1058 q 419 992 400 1021 q 449 929 439 964 q 461 860 458 894 q 449 674 468 776 q 579 701 513 700 q 639 697 607 701 q 703 680 671 693 q 769 644 736 667 q 833 588 801 622 q 880 505 863 554 q 901 403 897 456 q 898 297 906 350 q 871 201 890 243 q 818 117 847 150 q 763 64 789 83 q 701 28 732 40 q 540 -14 622 -8 q 383 -1 457 -19 q 247 53 308 17 q 149 139 186 90 q 97 231 117 179 q 67 339 78 282 q 52 455 56 396 q 49 569 49 514 q 72 839 50 699 q 111 957 83 906 q 140 999 124 979 q 179 1035 157 1019 q 230 1058 201 1050 q 294 1063 258 1065 m 483 401 q 442 383 460 401 q 428 343 425 365 q 445 303 431 314 q 483 292 460 292 q 522 306 507 292 q 538 343 538 319 q 524 383 538 365 q 483 401 510 401 z "},"\\":{"ha":688,"x_min":85,"x_max":599,"o":"m 519 -46 q 471 -47 494 -53 q 428 -28 450 -43 q 388 25 406 -12 q 263 333 319 175 q 213 475 238 400 q 165 627 188 550 q 123 781 142 704 q 93 931 104 858 q 94 1009 85 981 q 119 1051 104 1038 q 163 1071 136 1067 q 221 1074 193 1079 q 272 1049 244 1068 q 318 985 299 1031 q 360 878 335 946 q 414 726 385 810 q 473 551 443 643 q 528 372 503 460 q 571 210 553 285 q 594 86 589 135 q 588 16 599 42 q 561 -24 576 -10 q 519 -46 543 -39 z "},"|":{"ha":358,"x_min":44,"x_max":310,"o":"m 278 11 q 253 -49 271 -29 q 215 -78 235 -69 q 165 -87 192 -87 q 111 -81 136 -90 q 73 -52 90 -72 q 53 11 56 -32 q 45 276 46 138 q 47 544 44 415 q 55 781 50 674 q 67 950 60 888 q 90 1025 72 999 q 129 1063 108 1051 q 182 1076 153 1076 q 238 1060 213 1075 q 277 1022 258 1047 q 299 947 296 996 q 308 579 310 749 q 299 283 306 410 q 278 11 292 136 z "},"{":{"ha":789,"x_min":147,"x_max":672,"o":"m 601 81 q 653 53 639 72 q 669 13 667 33 q 663 -40 672 -12 q 631 -83 654 -67 q 582 -108 607 -99 q 518 -124 553 -119 q 424 -119 461 -129 q 364 -97 388 -110 q 321 -62 338 -82 q 288 15 293 -26 q 288 93 282 57 q 310 176 293 135 q 325 240 322 211 q 317 287 328 265 q 275 315 307 308 q 213 336 240 318 q 169 384 189 351 q 147 475 149 417 l 147 481 q 169 571 149 539 q 213 618 189 603 q 275 639 240 635 q 317 667 307 644 q 325 714 328 689 q 310 778 322 743 q 288 861 293 819 q 288 939 282 897 q 321 1017 293 981 q 364 1053 338 1038 q 424 1074 388 1065 q 518 1079 461 1083 q 582 1063 553 1074 q 631 1037 607 1053 q 663 994 654 1021 q 669 942 672 967 q 653 901 667 921 q 601 875 639 882 q 561 843 575 867 q 551 786 550 824 q 582 685 551 749 q 599 604 603 640 q 582 542 596 568 q 550 500 568 517 q 524 478 532 483 q 550 456 532 472 q 582 413 568 439 q 599 351 596 386 q 582 271 603 315 q 551 168 551 206 q 561 111 550 131 q 601 81 575 88 z "},"}":{"ha":718,"x_min":100,"x_max":626,"o":"m 171 93 q 211 124 197 100 q 222 181 222 143 q 190 282 221 218 q 173 363 169 326 q 191 424 176 399 q 224 467 206 450 q 250 489 242 483 q 224 511 242 494 q 191 554 206 528 q 173 616 176 581 q 190 696 169 651 q 222 798 221 760 q 211 856 222 836 q 171 886 197 879 q 119 913 133 893 q 103 954 106 933 q 111 1007 100 979 q 142 1049 118 1033 q 190 1075 165 1065 q 254 1092 219 1086 q 348 1086 310 1096 q 410 1064 386 1076 q 453 1029 436 1049 q 485 951 481 993 q 485 874 490 910 q 463 790 479 832 q 447 726 449 756 q 455 679 444 701 q 497 651 465 657 q 561 629 533 647 q 605 582 585 614 q 626 492 625 550 l 626 486 q 605 396 625 428 q 561 349 585 364 q 497 328 533 331 q 455 299 465 321 q 447 253 444 278 q 463 189 449 224 q 485 106 479 147 q 485 28 490 69 q 453 -50 481 -14 q 410 -86 436 -71 q 348 -108 386 -99 q 254 -112 310 -118 q 190 -96 219 -107 q 142 -70 165 -86 q 111 -28 118 -54 q 103 25 100 0 q 119 65 106 46 q 171 93 133 85 z "},"[":{"ha":857,"x_min":83,"x_max":826,"o":"m 694 31 q 767 10 743 26 q 803 -24 792 -6 q 814 -71 815 -44 q 801 -122 814 -97 q 766 -163 790 -143 q 693 -193 742 -183 q 468 -213 567 -217 q 311 -197 369 -210 q 241 -172 271 -189 q 189 -131 211 -154 q 151 -82 167 -108 q 125 -29 135 -56 q 96 104 100 32 q 89 187 92 135 q 85 303 86 239 q 83 438 83 367 q 83 578 83 508 q 89 925 85 740 q 90 985 86 954 q 103 1043 93 1011 q 133 1107 113 1075 q 150 1129 138 1117 q 179 1153 163 1142 q 214 1176 196 1165 q 247 1190 232 1186 q 351 1213 292 1204 q 474 1223 410 1221 q 600 1221 538 1225 q 715 1206 663 1217 q 783 1179 760 1196 q 815 1147 806 1163 q 825 1108 826 1129 q 813 1065 825 1085 q 778 1031 801 1047 q 707 1007 754 1014 q 589 996 660 1000 q 454 988 518 992 q 458 952 457 972 q 461 913 458 932 q 467 765 465 849 q 469 593 469 682 q 467 415 469 504 q 463 249 465 325 q 458 115 461 172 q 454 31 456 57 q 521 34 485 33 q 590 34 557 35 q 651 33 624 33 q 694 31 679 32 z "},"]":{"ha":808,"x_min":14,"x_max":757,"o":"m 146 1000 q 73 1019 97 1003 q 38 1054 49 1036 q 26 1101 25 1075 q 39 1153 26 1128 q 74 1194 50 1174 q 147 1224 99 1214 q 372 1244 274 1247 q 529 1228 471 1240 q 598 1201 568 1219 q 651 1160 628 1183 q 689 1112 674 1138 q 715 1060 704 1086 q 744 926 740 999 q 751 842 749 894 q 756 727 754 790 q 757 593 757 664 q 757 453 757 522 q 751 106 756 290 q 750 46 754 76 q 737 -13 747 19 q 707 -76 726 -46 q 690 -99 703 -86 q 661 -123 678 -111 q 626 -145 644 -135 q 593 -160 608 -156 q 490 -182 549 -174 q 367 -192 431 -190 q 240 -190 303 -194 q 125 -175 176 -186 q 58 -149 81 -165 q 25 -117 35 -132 q 15 -78 14 -99 q 28 -35 15 -56 q 63 -1 39 -18 q 133 24 86 17 q 251 35 181 31 q 386 43 322 39 q 383 78 383 58 q 379 118 382 99 q 373 265 375 182 q 371 438 371 349 q 373 616 371 526 q 377 782 375 706 q 382 916 379 858 q 386 1000 385 974 q 319 997 354 997 q 250 997 283 996 q 189 998 217 997 q 146 1000 161 999 z "},"•":{"ha":751,"x_min":97,"x_max":661,"o":"m 661 454 q 643 344 661 396 q 590 255 625 293 q 501 194 554 217 q 379 172 449 172 q 258 194 311 172 q 170 255 206 217 q 116 344 135 293 q 97 454 97 396 q 116 563 97 513 q 170 653 135 614 q 258 714 206 692 q 379 736 311 736 q 501 714 449 736 q 590 653 554 692 q 643 563 625 614 q 661 454 661 513 z "},"c":{"ha":792,"x_min":53,"x_max":769,"o":"m 533 396 q 485 403 506 404 q 451 392 465 401 q 436 356 436 382 q 449 325 438 336 q 478 312 458 315 q 535 324 497 308 q 614 339 575 339 q 685 321 647 338 q 753 256 722 304 q 769 183 769 219 q 753 113 769 151 q 683 36 736 74 q 558 -18 628 -1 q 415 -30 499 -33 q 231 19 332 -26 q 142 90 181 44 q 81 194 108 129 q 53 354 53 258 q 81 506 54 435 q 110 567 92 536 q 154 626 128 597 q 217 677 181 654 q 303 715 254 700 q 442 736 371 735 q 572 719 501 738 q 703 646 642 701 q 732 603 721 628 q 745 549 742 581 q 733 476 749 517 q 693 425 719 446 q 631 396 669 407 q 533 396 593 385 z "},"ˇ":{"ha":572,"x_min":68,"x_max":518,"o":"m 500 860 q 481 838 499 858 q 433 793 463 817 q 367 749 404 769 q 289 729 329 729 q 213 749 250 729 q 149 794 176 769 q 103 841 121 819 q 83 864 85 863 q 68 908 68 883 q 91 964 68 939 q 150 989 114 989 q 187 977 171 989 q 219 949 203 965 q 251 916 235 933 q 289 888 268 899 q 338 924 318 906 q 374 958 358 943 q 405 981 390 972 q 439 990 419 990 q 465 984 451 990 q 491 967 479 978 q 510 941 503 956 q 518 908 518 926 q 500 860 518 882 z "},"¸":{"ha":360,"x_min":40,"x_max":332,"o":"m 165 32 l 165 -57 q 228 -67 199 -57 q 281 -94 258 -76 q 318 -137 304 -111 q 332 -196 332 -162 q 317 -259 332 -232 q 278 -304 303 -286 q 224 -331 254 -322 q 163 -340 193 -340 q 138 -340 150 -340 q 113 -339 125 -339 q 68 -321 86 -339 q 50 -276 50 -303 q 69 -235 50 -244 q 113 -226 89 -226 q 128 -227 119 -226 q 147 -228 138 -228 q 185 -222 168 -228 q 203 -192 203 -215 q 183 -161 203 -169 q 131 -154 163 -154 q 87 -151 99 -154 q 65 -143 75 -149 q 40 -100 40 -131 l 40 42 l 165 32 z "},"¢":{"ha":771,"x_min":57,"x_max":731,"o":"m 714 436 q 731 368 731 403 q 714 302 731 338 q 649 231 697 267 q 613 210 633 219 q 569 192 594 201 q 511 176 543 183 q 510 145 510 160 q 507 118 510 131 q 488 47 503 71 q 457 13 472 24 q 415 0 438 0 q 371 15 390 1 q 340 51 354 26 q 322 121 325 75 l 319 181 q 273 196 297 188 q 224 215 249 204 q 140 282 176 239 q 83 378 108 318 q 57 529 57 439 q 82 671 57 604 q 109 728 92 699 q 151 783 126 757 q 211 832 176 810 q 292 868 246 854 q 300 871 294 869 q 310 873 304 872 q 324 876 315 874 l 326 924 q 345 994 331 969 q 376 1029 360 1018 q 419 1042 396 1042 q 464 1026 444 1040 q 494 990 481 1015 q 511 921 508 965 q 512 900 511 910 q 513 881 513 890 q 592 854 553 872 q 667 803 631 836 q 694 763 683 786 q 706 713 703 743 q 696 644 710 683 q 658 596 683 615 q 601 568 638 579 q 508 568 565 557 q 463 574 482 575 q 431 564 444 572 q 417 531 417 556 q 428 503 418 513 q 455 490 436 493 q 510 501 474 488 q 583 515 547 517 q 651 498 615 514 q 714 436 686 482 z "},"ˆ":{"ha":546,"x_min":43,"x_max":500,"o":"m 64 910 q 83 932 65 911 q 131 976 101 953 q 197 1020 160 1000 q 275 1040 235 1040 q 350 1020 314 1040 q 415 975 386 1000 q 462 928 444 950 q 481 906 479 907 q 494 847 500 879 q 461 796 489 815 q 401 782 433 776 q 350 815 369 788 q 327 840 347 817 q 275 882 307 864 q 239 857 256 869 q 211 833 222 844 q 188 811 197 821 q 156 786 172 794 q 120 779 140 779 q 76 799 100 779 q 47 852 50 819 q 64 910 43 885 z "},":":{"ha":471,"x_min":72,"x_max":386,"o":"m 386 567 q 347 456 386 500 q 228 411 307 411 q 113 456 153 411 q 72 567 72 500 q 113 678 72 632 q 228 724 153 724 q 297 711 267 724 q 346 677 326 699 q 376 627 365 656 q 386 567 386 599 m 386 131 q 347 19 386 64 q 228 -25 307 -25 q 113 19 153 -25 q 72 131 72 64 q 83 192 72 164 q 113 242 93 221 q 162 276 133 264 q 228 289 190 289 q 346 242 306 289 q 386 131 386 196 z "},",":{"ha":453,"x_min":29,"x_max":381,"o":"m 378 163 q 374 49 381 97 q 352 -32 367 1 q 319 -87 338 -65 q 279 -121 300 -108 q 168 -143 232 -150 q 142 -132 149 -140 q 132 -114 135 -124 q 133 -90 129 -103 q 154 -67 139 -72 q 168 -64 160 -64 q 190 -49 188 -64 q 190 -21 192 -35 q 70 34 111 -15 q 29 154 29 83 q 74 277 29 226 q 203 328 118 328 q 331 280 286 328 q 378 163 375 232 z "},"d":{"ha":1039,"x_min":54,"x_max":1007,"o":"m 957 42 q 880 -2 921 4 q 803 -1 839 -8 q 743 19 767 7 q 719 32 719 32 q 600 -11 665 4 q 467 -29 535 -26 q 336 -21 400 -32 q 222 17 272 -10 q 160 63 189 36 q 109 120 135 86 q 72 201 83 154 q 58 297 61 244 q 63 403 54 349 q 93 508 71 457 q 157 597 115 558 q 291 676 221 657 q 421 696 361 696 q 557 675 490 694 q 553 861 542 779 q 568 930 557 896 q 599 990 579 964 q 651 1033 619 1017 q 726 1049 682 1049 q 796 1038 765 1049 q 850 1008 826 1026 q 891 967 874 990 q 919 921 908 944 q 954 793 946 865 q 963 635 963 717 q 953 477 963 564 q 921 303 944 390 q 981 250 961 283 q 1004 179 1001 217 q 994 105 1007 142 q 957 42 982 68 m 550 386 q 509 368 526 386 q 494 328 492 350 q 512 288 497 299 q 550 276 526 276 q 589 290 574 276 q 604 328 604 304 q 590 368 604 350 q 550 386 576 386 z "},"°":{"ha":542,"x_min":71,"x_max":486,"o":"m 486 792 q 471 711 486 749 q 428 645 456 674 q 363 601 400 617 q 279 585 325 585 q 195 601 233 585 q 129 645 157 617 q 86 711 101 674 q 71 792 71 749 q 86 872 71 835 q 129 938 101 910 q 195 982 157 965 q 279 999 233 999 q 363 982 325 999 q 428 938 400 965 q 471 872 456 910 q 486 792 486 835 m 279 908 q 228 897 250 908 q 191 869 206 886 q 169 830 176 851 q 161 788 161 808 q 190 713 161 743 q 279 682 219 682 q 365 713 338 682 q 393 788 393 743 q 361 876 393 843 q 279 908 329 908 z "},"¨":{"ha":590,"x_min":57,"x_max":525,"o":"m 271 1143 q 244 1067 271 1099 q 164 1035 217 1035 q 84 1067 111 1035 q 57 1143 57 1099 q 84 1219 57 1188 q 164 1250 111 1250 q 244 1219 217 1250 q 271 1143 271 1188 m 525 1143 q 498 1067 525 1099 q 418 1035 471 1035 q 338 1067 365 1035 q 311 1143 311 1099 q 338 1219 311 1188 q 418 1250 365 1250 q 498 1219 471 1250 q 525 1143 525 1188 z "},"÷":{"ha":797,"x_min":32,"x_max":747,"o":"m 522 882 q 488 785 522 824 q 386 746 453 746 q 285 785 319 746 q 250 882 250 824 q 285 978 250 939 q 386 1018 319 1018 q 488 978 453 1018 q 522 882 522 939 m 522 164 q 488 67 522 106 q 386 28 453 28 q 285 67 319 28 q 250 164 250 106 q 285 260 250 221 q 386 300 319 300 q 488 260 453 300 q 522 164 522 221 m 597 674 q 681 636 651 660 q 725 589 711 613 q 743 531 740 561 q 738 467 747 496 q 705 415 729 440 q 628 378 681 390 q 512 357 567 364 q 404 349 457 350 q 298 353 351 349 q 186 365 244 357 q 98 396 128 372 q 54 444 68 419 q 36 508 39 474 q 47 576 32 544 q 90 631 58 604 q 185 671 121 657 q 340 688 267 686 q 472 688 414 690 q 597 674 539 683 z "},"$":{"ha":811,"x_min":53,"x_max":739,"o":"m 515 585 q 634 538 590 567 q 701 476 678 508 q 732 412 725 443 q 739 358 739 381 q 713 240 739 288 q 649 165 686 193 q 569 122 611 136 q 497 103 528 108 q 491 58 492 75 q 490 32 490 40 q 474 -24 486 -4 q 445 -54 461 -44 q 413 -65 429 -64 q 385 -67 396 -67 q 360 -63 374 -67 q 333 -49 346 -60 q 310 -19 319 -37 q 300 32 301 0 l 297 108 q 165 145 214 121 q 92 197 117 169 q 60 253 67 225 q 53 301 53 281 q 71 372 53 344 q 117 414 89 399 q 178 434 144 429 q 242 439 211 439 q 265 438 253 439 q 290 436 278 438 q 189 481 228 453 q 128 540 150 508 q 100 603 107 571 q 93 661 93 635 q 113 754 93 715 q 164 819 133 793 q 232 860 194 844 q 306 883 269 875 l 311 971 q 325 1035 314 1010 q 351 1074 336 1060 q 383 1092 367 1088 q 410 1097 399 1097 q 449 1088 431 1096 q 481 1057 468 1079 q 503 995 494 1035 q 511 892 511 956 q 624 866 581 883 q 692 826 668 849 q 725 779 717 804 q 733 732 733 754 q 711 664 733 690 q 656 623 689 638 q 585 603 624 608 q 515 596 547 597 l 515 585 z "},"ı":{"ha":540,"x_min":49,"x_max":503,"o":"m 482 147 q 440 51 471 85 q 374 3 408 18 q 286 -15 333 -14 q 188 1 226 -18 q 126 43 150 19 q 86 107 100 69 q 53 263 58 183 q 56 410 49 343 q 81 561 63 486 q 131 658 99 625 q 196 707 164 692 q 276 725 233 724 q 381 703 342 728 q 444 646 421 678 q 483 560 471 608 q 499 453 493 514 q 501 324 503 400 q 482 147 499 247 z "},"e":{"ha":813,"x_min":40,"x_max":774,"o":"m 499 288 q 583 248 539 256 q 666 235 628 240 q 731 214 704 229 q 765 150 758 199 q 758 96 767 122 q 730 48 750 72 q 667 7 710 24 q 535 -18 606 -12 q 396 -16 474 -24 q 233 26 318 -8 q 135 97 178 51 q 99 142 117 117 q 69 201 82 168 q 48 274 56 233 q 43 363 40 314 q 72 506 47 438 q 100 565 83 535 q 141 622 117 594 q 198 674 165 650 q 274 713 231 697 q 418 735 344 733 q 484 731 449 735 q 555 717 519 728 q 626 688 590 707 q 696 639 663 668 q 735 589 718 617 q 761 528 750 564 q 774 444 772 493 q 749 356 774 390 q 685 303 725 321 q 597 281 646 285 q 499 288 547 278 m 463 464 q 422 446 439 464 q 407 406 404 428 q 424 365 410 376 q 463 354 439 354 q 501 368 486 354 q 517 406 517 382 q 503 446 517 428 q 463 464 489 464 z "},"é":{"ha":813,"x_min":40,"x_max":774,"o":"m 499 288 q 583 248 539 256 q 666 235 628 240 q 731 214 704 229 q 765 150 758 199 q 758 96 767 122 q 730 48 750 72 q 667 7 710 24 q 535 -18 606 -12 q 396 -16 474 -24 q 233 26 318 -8 q 135 97 178 51 q 99 142 117 117 q 69 201 82 168 q 48 274 56 233 q 43 363 40 314 q 72 506 47 438 q 100 565 83 535 q 141 622 117 594 q 198 674 165 650 q 274 713 231 697 q 418 735 344 733 q 484 731 449 735 q 555 717 519 728 q 626 688 590 707 q 696 639 663 668 q 735 589 718 617 q 761 528 750 564 q 774 444 772 493 q 749 356 774 390 q 685 303 725 321 q 597 281 646 285 q 499 288 547 278 m 463 464 q 422 446 439 464 q 407 406 404 428 q 424 365 410 376 q 463 354 439 354 q 501 368 486 354 q 517 406 517 382 q 503 446 517 428 q 463 464 489 464 m 249 926 q 281 959 260 940 q 328 995 303 978 q 380 1027 353 1013 q 429 1049 407 1042 q 483 1060 460 1058 q 522 1056 506 1061 q 549 1042 538 1051 q 572 1024 561 1033 q 593 994 583 1013 q 605 956 603 976 q 599 912 607 935 q 564 867 590 889 q 496 824 535 840 q 421 797 457 808 q 338 778 379 785 q 294 775 315 772 q 258 786 276 778 q 229 818 240 794 q 219 858 218 839 q 228 893 221 878 q 249 926 235 910 z "},"ê":{"ha":813,"x_min":40,"x_max":774,"o":"m 499 288 q 583 248 539 256 q 666 235 628 240 q 731 214 704 229 q 765 150 758 199 q 758 96 767 122 q 730 48 750 72 q 667 7 710 24 q 535 -18 606 -12 q 396 -16 474 -24 q 233 26 318 -8 q 135 97 178 51 q 99 142 117 117 q 69 201 82 168 q 48 274 56 233 q 43 363 40 314 q 72 506 47 438 q 100 565 83 535 q 141 622 117 594 q 198 674 165 650 q 274 713 231 697 q 418 735 344 733 q 484 731 449 735 q 555 717 519 728 q 626 688 590 707 q 696 639 663 668 q 735 589 718 617 q 761 528 750 564 q 774 444 772 493 q 749 356 774 390 q 685 303 725 321 q 597 281 646 285 q 499 288 547 278 m 224 910 q 243 932 225 911 q 290 976 261 953 q 357 1020 319 1000 q 435 1040 394 1040 q 510 1020 474 1040 q 575 975 546 1000 q 622 928 604 950 q 640 906 639 907 q 654 847 660 879 q 621 796 649 815 q 561 782 593 776 q 510 815 529 788 q 487 840 507 817 q 435 882 467 864 q 399 857 415 869 q 371 833 382 844 q 347 811 357 821 q 315 786 332 794 q 280 779 300 779 q 236 799 260 779 q 206 852 210 819 q 224 910 203 885 m 463 464 q 422 446 439 464 q 407 406 404 428 q 424 365 410 376 q 463 354 439 354 q 501 368 486 354 q 517 406 517 382 q 503 446 517 428 q 463 464 489 464 z "},"ë":{"ha":813,"x_min":40,"x_max":774,"o":"m 499 288 q 583 248 539 256 q 666 235 628 240 q 731 214 704 229 q 765 150 758 199 q 758 96 767 122 q 730 48 750 72 q 667 7 710 24 q 535 -18 606 -12 q 396 -16 474 -24 q 233 26 318 -8 q 135 97 178 51 q 99 142 117 117 q 69 201 82 168 q 48 274 56 233 q 43 363 40 314 q 72 506 47 438 q 100 565 83 535 q 141 622 117 594 q 198 674 165 650 q 274 713 231 697 q 418 735 344 733 q 484 731 449 735 q 555 717 519 728 q 626 688 590 707 q 696 639 663 668 q 735 589 718 617 q 761 528 750 564 q 774 444 772 493 q 749 356 774 390 q 685 303 725 321 q 597 281 646 285 q 499 288 547 278 m 463 464 q 422 446 439 464 q 407 406 404 428 q 424 365 410 376 q 463 354 439 354 q 501 368 486 354 q 517 406 517 382 q 503 446 517 428 q 463 464 489 464 m 408 914 q 381 838 408 869 q 301 806 354 806 q 222 838 249 806 q 194 914 194 869 q 222 990 194 958 q 301 1021 249 1021 q 381 990 354 1021 q 408 914 408 958 m 663 914 q 635 838 663 869 q 556 806 608 806 q 476 838 503 806 q 449 914 449 869 q 476 990 449 958 q 556 1021 503 1021 q 635 990 608 1021 q 663 914 663 958 z "},"è":{"ha":813,"x_min":40,"x_max":774,"o":"m 499 288 q 583 248 539 256 q 666 235 628 240 q 731 214 704 229 q 765 150 758 199 q 758 96 767 122 q 730 48 750 72 q 667 7 710 24 q 535 -18 606 -12 q 396 -16 474 -24 q 233 26 318 -8 q 135 97 178 51 q 99 142 117 117 q 69 201 82 168 q 48 274 56 233 q 43 363 40 314 q 72 506 47 438 q 100 565 83 535 q 141 622 117 594 q 198 674 165 650 q 274 713 231 697 q 418 735 344 733 q 484 731 449 735 q 555 717 519 728 q 626 688 590 707 q 696 639 663 668 q 735 589 718 617 q 761 528 750 564 q 774 444 772 493 q 749 356 774 390 q 685 303 725 321 q 597 281 646 285 q 499 288 547 278 m 463 464 q 422 446 439 464 q 407 406 404 428 q 424 365 410 376 q 463 354 439 354 q 501 368 486 354 q 517 406 517 382 q 503 446 517 428 q 463 464 489 464 m 386 1051 q 435 1030 408 1044 q 488 998 463 1015 q 534 962 513 981 q 567 929 556 943 q 586 896 579 913 q 595 861 593 881 q 586 821 597 842 q 557 789 575 797 q 521 778 539 781 q 478 781 500 775 q 393 800 435 788 q 319 827 357 811 q 251 869 281 843 q 217 915 225 892 q 210 958 208 938 q 222 997 213 979 q 243 1026 232 1015 q 265 1045 253 1036 q 294 1059 278 1054 q 332 1063 310 1064 q 386 1051 354 1061 z "},"—":{"ha":1157,"x_min":81,"x_max":865,"o":"m 738 568 q 811 534 785 557 q 849 488 838 511 q 864 426 863 460 q 856 363 865 393 q 826 310 847 336 q 760 269 804 285 q 641 244 710 253 q 498 233 572 235 q 349 236 424 231 q 213 254 275 242 q 138 288 164 264 q 100 336 113 313 q 83 397 85 364 q 93 465 81 433 q 130 519 104 493 q 211 558 156 544 q 391 583 299 579 q 561 583 483 586 q 738 568 651 579 z "},"–":{"ha":804,"x_min":81,"x_max":694,"o":"m 565 568 q 639 532 613 556 q 676 485 665 508 q 692 426 690 457 q 686 367 694 394 q 658 318 679 343 q 592 278 636 293 q 401 242 490 244 q 213 254 311 239 q 137 285 164 261 q 99 333 110 308 q 83 397 83 363 q 93 465 81 433 q 130 519 104 493 q 211 558 156 546 q 346 578 282 574 q 458 579 410 582 q 565 568 515 576 z "},"=":{"ha":744,"x_min":69,"x_max":681,"o":"m 553 764 q 626 735 600 753 q 663 699 651 717 q 678 654 676 678 q 672 604 681 628 q 644 565 665 585 q 579 535 624 544 q 388 513 476 513 q 201 525 300 513 q 126 549 153 532 q 89 586 100 567 q 74 636 75 608 q 82 689 69 664 q 119 731 93 710 q 200 761 146 751 q 333 776 269 774 q 446 775 397 778 q 553 764 503 771 m 553 456 q 626 426 600 444 q 663 390 651 408 q 678 346 676 369 q 672 296 681 319 q 644 256 665 276 q 579 226 624 236 q 388 204 476 204 q 201 217 300 204 q 126 241 153 224 q 89 278 100 258 q 74 328 75 300 q 82 381 69 356 q 119 422 93 401 q 200 453 146 443 q 333 467 269 465 q 446 467 397 469 q 553 456 503 463 z "},"ð":{"ha":1140,"x_min":22,"x_max":1118,"o":"m 1117 874 q 1108 828 1118 849 q 1080 794 1100 810 q 1018 771 1060 778 q 976 766 999 768 q 926 763 953 764 q 931 679 928 729 q 932 569 933 629 q 923 446 931 510 q 897 319 915 382 q 869 236 886 274 q 826 167 851 199 q 767 110 801 136 q 688 57 733 83 q 568 14 633 29 q 435 -4 503 -1 q 304 4 368 -7 q 190 42 240 15 q 128 88 157 61 q 77 145 103 111 q 40 226 51 179 q 26 322 29 269 q 31 428 22 374 q 61 533 39 482 q 125 622 83 583 q 259 701 189 682 q 389 721 329 721 q 525 700 458 719 q 522 717 524 708 q 518 758 519 731 q 473 760 494 760 q 431 764 451 761 q 356 782 382 767 q 318 814 329 797 q 303 857 304 833 q 314 906 300 883 q 352 942 325 925 q 435 967 379 960 q 490 972 463 969 q 544 976 517 974 q 599 1046 564 1018 q 694 1074 635 1074 q 803 1044 761 1074 q 871 975 846 1015 q 921 972 899 972 q 958 969 943 971 q 992 967 976 968 q 1066 947 1040 961 q 1103 915 1092 932 q 1117 874 1117 896 m 496 381 q 455 363 472 381 q 440 322 438 344 q 458 282 443 293 q 496 271 472 271 q 535 285 519 271 q 550 322 550 299 q 536 363 550 344 q 496 381 522 381 z "},"!":{"ha":619,"x_min":72,"x_max":553,"o":"m 86 567 q 74 647 76 603 q 74 731 72 690 q 79 825 75 776 q 114 936 88 888 q 142 977 125 957 q 183 1013 160 997 q 239 1038 207 1028 q 311 1047 271 1047 q 404 1021 360 1043 q 478 963 442 1001 q 532 854 514 925 q 550 726 547 786 q 549 618 553 665 q 532 515 543 563 q 486 429 515 467 q 419 371 461 397 q 311 344 376 344 q 193 379 238 344 q 125 456 149 414 q 86 567 97 504 m 490 107 q 476 48 490 75 q 438 1 463 21 q 380 -31 413 -19 q 310 -43 347 -43 q 240 -31 272 -43 q 183 1 207 -19 q 144 48 158 21 q 131 107 131 75 q 144 165 131 138 q 183 213 158 193 q 240 245 207 233 q 310 257 272 257 q 380 245 347 257 q 438 213 413 233 q 476 165 463 193 q 490 107 490 138 z "},"¡":{"ha":619,"x_min":71,"x_max":551,"o":"m 538 146 q 549 65 546 110 q 550 -19 551 21 q 544 -112 549 -65 q 510 -224 536 -175 q 481 -265 499 -244 q 440 -300 464 -285 q 385 -325 417 -315 q 313 -335 353 -335 q 219 -310 264 -332 q 145 -251 182 -290 q 92 -142 108 -212 q 73 -14 75 -75 q 75 94 71 47 q 92 197 81 150 q 138 282 108 244 q 204 341 163 314 q 313 368 246 368 q 430 333 385 368 q 499 257 475 299 q 538 146 526 208 m 133 606 q 147 664 133 636 q 186 712 161 692 q 244 744 211 732 q 314 756 276 756 q 384 744 351 756 q 441 712 417 732 q 479 664 465 692 q 493 606 493 636 q 479 547 493 574 q 441 499 465 519 q 384 467 417 479 q 314 456 351 456 q 244 467 276 456 q 186 499 211 479 q 147 547 161 519 q 133 606 133 574 z "},"f":{"ha":793,"x_min":-1,"x_max":792,"o":"m 586 713 q 686 725 642 728 q 756 701 724 722 q 790 622 788 679 q 765 540 792 565 q 706 507 739 515 q 617 504 667 497 q 625 244 636 360 q 608 149 621 196 q 573 64 596 101 q 515 3 550 26 q 428 -22 479 -21 q 290 9 338 -26 q 220 114 242 44 q 196 282 199 183 q 196 504 193 381 q 101 494 143 489 q 66 503 83 496 q 34 522 49 510 q 10 555 19 535 q 0 606 1 575 q 19 672 -1 647 q 69 708 39 697 q 135 720 100 719 q 196 715 169 721 q 199 796 193 754 q 220 876 204 832 q 271 965 236 921 q 364 1036 308 1010 q 487 1068 413 1060 q 668 1049 561 1076 q 724 1021 699 1038 q 760 981 744 1006 q 771 921 775 957 q 758 876 769 896 q 730 847 749 860 q 676 835 711 833 q 642 829 657 835 q 614 815 628 825 q 593 786 600 806 q 589 768 590 779 q 586 713 585 747 z "},"⁄":{"ha":594,"x_min":46,"x_max":560,"o":"m 258 36 q 217 -17 240 -1 q 175 -36 194 -32 q 126 -35 150 -42 q 85 -12 103 -28 q 58 27 69 1 q 51 97 46 53 q 75 221 57 146 q 118 383 93 296 q 173 563 143 471 q 232 738 203 654 q 286 889 261 821 q 328 996 311 957 q 374 1060 347 1042 q 425 1085 401 1079 q 483 1082 453 1090 q 526 1063 510 1078 q 551 1020 542 1049 q 553 942 560 992 q 522 792 542 869 q 480 638 503 715 q 432 486 457 561 q 382 344 407 411 q 258 36 324 186 z "},"g":{"ha":944,"x_min":49,"x_max":914,"o":"m 296 -369 q 238 -342 261 -357 q 201 -310 215 -326 q 181 -276 188 -293 q 172 -242 174 -258 q 188 -164 168 -204 q 231 -116 203 -131 q 286 -96 258 -101 q 354 -94 318 -90 q 448 -75 417 -92 q 493 -39 479 -58 q 508 11 508 -17 q 372 -1 439 -4 q 251 21 314 1 q 138 93 188 40 q 87 170 107 125 q 58 265 67 215 q 51 364 49 314 q 69 457 54 414 q 114 547 89 510 q 163 607 139 583 q 218 654 189 635 q 364 707 286 694 q 517 709 442 719 q 658 669 592 699 q 769 596 724 639 q 835 513 808 558 q 877 418 861 468 q 900 317 893 368 q 910 219 907 267 q 893 -8 914 108 q 842 -169 876 -103 q 762 -278 807 -235 q 665 -344 717 -321 q 561 -378 613 -368 q 296 -369 439 -403 m 490 360 q 449 342 467 360 q 435 301 432 324 q 452 261 438 272 q 490 250 467 250 q 529 264 514 250 q 544 301 544 278 q 531 342 544 324 q 490 360 517 360 z "},"ß":{"ha":913,"x_min":42,"x_max":894,"o":"m 42 447 q 48 581 42 522 q 61 682 54 640 q 82 768 69 731 q 124 852 99 817 q 179 913 150 888 q 240 956 208 939 q 303 982 272 972 q 456 1003 375 1006 q 618 969 554 999 q 719 907 682 940 q 786 818 764 868 q 806 697 813 750 q 781 608 800 644 q 722 535 758 565 q 808 487 776 517 q 858 428 840 457 q 886 357 878 393 q 883 219 894 285 q 842 108 874 164 q 743 19 811 51 q 644 -7 689 -6 q 563 6 599 -8 q 503 45 528 21 q 463 96 478 69 q 445 151 447 121 q 451 208 443 181 q 474 256 458 235 q 513 286 490 278 q 540 307 532 293 q 550 335 549 321 q 546 368 551 350 q 482 408 532 408 q 442 393 458 408 q 426 347 426 378 q 428 300 426 315 q 429 269 429 285 q 426 230 429 254 q 417 157 424 206 q 392 79 408 108 q 355 34 376 50 q 308 13 333 18 q 256 7 282 7 q 185 24 222 7 q 115 88 147 40 q 63 222 83 136 q 42 447 42 308 m 478 725 q 438 710 454 725 q 422 672 422 696 q 434 631 422 650 q 478 613 446 613 q 519 631 506 613 q 533 672 533 650 q 522 709 533 693 q 478 725 511 725 z "},"`":{"ha":522,"x_min":75,"x_max":464,"o":"m 253 1067 q 302 1045 275 1060 q 354 1013 329 1031 q 401 977 379 996 q 433 944 422 958 q 453 911 446 928 q 462 876 460 896 q 453 836 464 857 q 424 804 442 813 q 388 793 406 796 q 344 796 367 790 q 260 815 301 803 q 185 842 224 826 q 118 885 147 858 q 83 930 92 907 q 77 974 75 953 q 89 1013 79 994 q 110 1042 99 1031 q 132 1060 119 1051 q 160 1074 144 1069 q 199 1078 176 1079 q 253 1067 221 1076 z "},">":{"ha":650,"x_min":54,"x_max":601,"o":"m 311 861 q 335 845 313 860 q 389 806 357 831 q 458 747 421 781 q 528 674 496 714 q 581 591 560 635 q 601 503 601 547 q 581 416 601 460 q 528 332 560 372 q 458 257 496 292 q 389 197 421 222 q 335 156 357 171 q 311 140 313 140 q 258 119 288 124 q 197 122 228 115 q 140 145 167 128 q 94 190 113 163 q 73 304 57 250 q 140 396 89 358 q 174 424 156 408 q 208 457 189 438 q 251 500 228 476 q 194 554 221 529 q 146 597 167 579 q 101 636 121 618 q 64 693 75 661 q 58 758 54 721 q 101 840 63 796 q 147 874 119 861 q 203 889 174 886 q 261 885 232 892 q 311 861 290 878 z "},"‹":{"ha":625,"x_min":47,"x_max":594,"o":"m 338 15 q 314 31 336 17 q 260 71 292 46 q 190 129 228 96 q 121 202 153 163 q 68 285 89 242 q 47 374 47 328 q 68 460 47 417 q 121 544 89 504 q 190 619 153 585 q 260 680 228 654 q 314 720 292 706 q 338 736 336 735 q 390 757 360 753 q 451 755 421 761 q 509 731 482 749 q 554 686 536 714 q 576 572 592 626 q 508 481 560 518 q 475 453 493 468 q 440 419 460 439 q 397 376 419 400 q 455 322 428 346 q 503 279 482 297 q 547 240 528 258 q 585 183 574 215 q 590 118 594 156 q 547 36 585 81 q 502 3 529 15 q 446 -12 475 -10 q 388 -8 417 -15 q 338 15 358 -1 z "},"›":{"ha":654,"x_min":54,"x_max":601,"o":"m 311 728 q 335 712 313 726 q 389 672 357 697 q 458 614 421 647 q 528 541 496 581 q 581 458 560 501 q 601 369 601 414 q 581 283 601 326 q 528 199 560 239 q 458 124 496 158 q 389 63 421 89 q 335 22 357 38 q 311 7 313 7 q 258 -14 288 -10 q 197 -12 228 -18 q 140 12 167 -6 q 94 57 113 29 q 73 171 57 117 q 140 263 89 225 q 174 290 156 275 q 208 324 189 304 q 251 367 228 343 q 194 421 221 396 q 146 464 167 446 q 101 503 121 485 q 64 560 75 528 q 58 625 54 588 q 101 707 63 663 q 147 740 119 728 q 203 756 174 753 q 261 751 232 758 q 311 728 290 744 z "},"h":{"ha":1015,"x_min":51,"x_max":974,"o":"m 971 319 q 956 171 974 238 q 934 113 947 142 q 899 60 921 85 q 847 18 876 36 q 775 -7 817 0 q 758 -8 775 -7 q 716 -7 742 -10 q 660 5 690 -4 q 604 35 631 14 q 559 93 578 57 q 538 185 540 129 q 526 282 532 239 q 511 349 519 318 q 489 381 503 381 q 494 292 493 329 q 493 228 494 254 q 490 175 492 197 q 458 82 483 122 q 397 17 438 46 q 283 -11 356 -11 q 169 19 211 -11 q 106 85 128 49 q 72 182 81 128 q 56 367 61 265 q 53 572 51 454 q 72 829 56 689 q 103 940 78 892 q 128 981 113 961 q 165 1015 143 1000 q 217 1040 188 1031 q 283 1049 246 1049 q 392 1019 347 1047 q 463 940 436 992 q 501 817 490 889 q 508 654 513 744 q 725 701 628 713 q 808 676 767 697 q 882 612 849 656 q 939 497 915 568 q 971 319 963 426 z "},"-":{"ha":731,"x_min":64,"x_max":678,"o":"m 549 561 q 622 525 596 549 q 660 478 649 501 q 675 419 674 450 q 669 356 678 385 q 641 304 663 329 q 575 267 619 279 q 383 239 472 239 q 196 254 294 239 q 120 285 147 261 q 82 333 93 308 q 67 397 67 363 q 76 465 64 433 q 113 519 88 493 q 194 558 139 546 q 329 576 265 574 q 442 575 393 578 q 549 561 499 571 z "},"i":{"ha":540,"x_min":53,"x_max":503,"o":"m 422 921 q 415 861 425 890 q 384 809 404 832 q 335 772 364 786 q 271 753 306 757 q 203 758 235 749 q 147 785 172 767 q 106 828 122 803 q 86 886 90 854 q 94 945 83 917 q 125 997 104 974 q 175 1035 146 1019 q 239 1054 204 1050 q 305 1049 274 1058 q 361 1022 336 1040 q 403 978 386 1004 q 422 921 419 951 m 482 140 q 439 45 471 78 q 374 -3 407 13 q 288 -21 333 -19 q 190 -5 228 -24 q 131 38 153 14 q 90 100 106 64 q 58 255 63 175 q 60 401 53 335 q 85 551 67 478 q 134 648 101 615 q 199 696 167 681 q 278 714 236 713 q 381 692 342 717 q 444 636 421 668 q 483 550 471 600 q 499 443 493 504 q 501 315 503 390 q 482 140 499 239 z "},"í":{"ha":540,"x_min":49,"x_max":503,"o":"m 482 147 q 440 51 471 85 q 374 3 408 18 q 286 -15 333 -14 q 188 1 226 -18 q 126 43 150 19 q 86 107 100 69 q 53 263 58 183 q 56 410 49 343 q 81 561 63 486 q 131 658 99 625 q 196 707 164 692 q 276 725 233 724 q 381 703 342 728 q 444 646 421 678 q 483 560 471 608 q 499 453 493 514 q 501 324 503 400 q 482 147 499 247 m 122 926 q 155 959 133 940 q 201 995 176 978 q 253 1027 226 1013 q 303 1049 281 1042 q 356 1060 333 1058 q 395 1056 379 1061 q 423 1042 411 1051 q 446 1024 435 1033 q 467 994 457 1013 q 478 956 476 976 q 472 912 481 935 q 438 867 464 889 q 369 824 408 840 q 294 797 331 808 q 211 778 253 785 q 168 775 189 772 q 132 786 150 778 q 103 818 114 794 q 93 858 92 839 q 101 893 94 878 q 122 926 108 910 z "},"î":{"ha":540,"x_min":42,"x_max":503,"o":"m 482 147 q 440 51 471 85 q 374 3 408 18 q 286 -15 333 -14 q 188 1 226 -18 q 126 43 150 19 q 86 107 100 69 q 53 263 58 183 q 56 410 49 343 q 81 561 63 486 q 131 658 99 625 q 196 707 164 692 q 276 725 233 724 q 381 703 342 728 q 444 646 421 678 q 483 560 471 608 q 499 453 493 514 q 501 324 503 400 q 482 147 499 247 m 63 910 q 82 932 64 911 q 129 976 100 953 q 196 1020 158 1000 q 274 1040 233 1040 q 349 1020 313 1040 q 414 975 385 1000 q 460 928 443 950 q 479 906 478 907 q 493 847 499 879 q 460 796 488 815 q 400 782 432 776 q 349 815 368 788 q 326 840 346 817 q 274 882 306 864 q 238 857 254 869 q 210 833 221 844 q 186 811 196 821 q 154 786 171 794 q 119 779 139 779 q 75 799 99 779 q 45 852 49 819 q 63 910 42 885 z "},"ï":{"ha":540,"x_min":49,"x_max":521,"o":"m 482 147 q 440 51 471 85 q 374 3 408 18 q 286 -15 333 -14 q 188 1 226 -18 q 126 43 150 19 q 86 107 100 69 q 53 263 58 183 q 56 410 49 343 q 81 561 63 486 q 131 658 99 625 q 196 707 164 692 q 276 725 233 724 q 381 703 342 728 q 444 646 421 678 q 483 560 471 608 q 499 453 493 514 q 501 324 503 400 q 482 147 499 247 m 267 914 q 240 838 267 869 q 160 806 213 806 q 80 838 107 806 q 53 914 53 869 q 80 990 53 958 q 160 1021 107 1021 q 240 990 213 1021 q 267 914 267 958 m 521 914 q 494 838 521 869 q 414 806 467 806 q 334 838 361 806 q 307 914 307 869 q 334 990 307 958 q 414 1021 361 1021 q 494 990 467 1021 q 521 914 521 958 z "},"ì":{"ha":540,"x_min":49,"x_max":503,"o":"m 482 147 q 440 51 471 85 q 374 3 408 18 q 286 -15 333 -14 q 188 1 226 -18 q 126 43 150 19 q 86 107 100 69 q 53 263 58 183 q 56 410 49 343 q 81 561 63 486 q 131 658 99 625 q 196 707 164 692 q 276 725 233 724 q 381 703 342 728 q 444 646 421 678 q 483 560 471 608 q 499 453 493 514 q 501 324 503 400 q 482 147 499 247 m 257 1051 q 306 1030 279 1044 q 358 998 333 1015 q 405 962 383 981 q 438 929 426 943 q 457 896 450 913 q 466 861 464 881 q 457 821 468 842 q 428 789 446 797 q 392 778 410 781 q 349 781 371 775 q 264 800 306 788 q 190 827 228 811 q 122 869 151 843 q 88 915 96 892 q 81 958 79 938 q 93 997 83 979 q 114 1026 103 1015 q 136 1045 124 1036 q 165 1059 149 1054 q 203 1063 181 1064 q 257 1051 225 1061 z "},"j":{"ha":563,"x_min":-97,"x_max":511,"o":"m 456 897 q 438 838 454 865 q 397 790 422 810 q 339 758 372 769 q 268 749 306 747 q 199 765 231 750 q 143 801 167 779 q 107 853 119 824 q 96 915 94 882 q 113 975 97 947 q 155 1023 129 1003 q 213 1053 181 1043 q 283 1063 246 1064 q 353 1047 321 1061 q 408 1010 385 1033 q 444 958 432 988 q 456 897 457 929 m 482 -96 q 460 -172 475 -135 q 426 -244 447 -206 q 369 -315 404 -282 q 268 -378 325 -360 q 160 -400 211 -396 q 39 -396 100 -406 q -37 -369 -11 -389 q -76 -328 -64 -349 q -93 -275 -92 -303 q -85 -210 -97 -235 q -56 -172 -72 -185 q -8 -151 -36 -157 q 35 -117 21 -147 q 57 -53 50 -87 q 64 39 64 -12 q 67 109 67 69 q 67 206 67 149 q 69 344 67 263 q 76 542 71 425 q 110 640 79 607 q 178 689 142 674 q 272 707 219 706 q 396 681 351 707 q 461 622 440 654 q 490 539 486 586 q 507 351 501 453 q 507 149 511 264 q 482 -96 503 35 z "},"k":{"ha":1001,"x_min":54,"x_max":976,"o":"m 501 754 q 603 852 554 826 q 696 878 653 878 q 751 868 726 878 q 794 847 775 858 q 833 818 815 833 q 870 761 860 790 q 881 701 881 732 q 863 619 881 658 q 826 550 846 581 q 772 482 801 514 q 849 419 811 457 q 914 338 886 382 q 959 247 942 294 q 976 157 976 200 q 960 88 976 119 q 917 33 943 56 q 857 -3 890 10 q 792 -15 824 -15 q 708 7 746 -15 q 637 63 669 29 q 579 135 604 96 q 537 210 554 175 q 510 269 519 244 q 499 299 500 294 q 499 288 499 296 q 500 265 500 279 q 494 185 500 233 q 467 90 488 136 q 405 12 446 44 q 293 -21 364 -21 q 196 8 235 -21 q 133 70 157 36 q 100 133 110 104 q 90 163 90 161 q 63 324 71 242 q 54 483 54 406 q 59 624 54 558 q 71 739 64 690 q 88 844 78 796 q 106 908 94 874 q 138 971 117 942 q 196 1020 160 1000 q 289 1040 232 1040 q 380 1019 343 1040 q 440 967 417 999 q 476 899 464 936 q 494 831 489 863 q 501 777 500 799 q 501 754 501 756 z "},"l":{"ha":547,"x_min":44,"x_max":503,"o":"m 54 281 q 44 447 44 360 q 49 608 44 533 q 61 778 53 694 q 94 915 69 854 q 122 965 106 940 q 160 1010 138 990 q 212 1041 182 1029 q 279 1053 242 1053 q 378 1019 332 1051 q 415 985 396 1006 q 451 932 435 964 q 478 857 467 900 q 494 757 490 814 q 503 544 503 646 q 500 364 503 443 q 488 190 496 271 q 456 83 481 129 q 428 44 444 64 q 390 10 413 25 q 336 -12 367 -4 q 267 -19 306 -21 q 202 -5 231 -18 q 151 29 174 8 q 114 77 129 50 q 88 132 99 104 q 54 281 63 197 z "},"<":{"ha":658,"x_min":47,"x_max":594,"o":"m 338 147 q 314 163 336 149 q 260 203 292 178 q 190 261 228 228 q 121 334 153 294 q 68 417 89 374 q 47 506 47 460 q 68 592 47 549 q 121 676 89 636 q 190 751 153 717 q 260 812 228 786 q 314 852 292 838 q 338 868 336 867 q 390 889 360 885 q 451 887 421 893 q 509 863 482 881 q 554 818 536 846 q 576 704 592 758 q 508 613 560 650 q 475 585 493 600 q 440 551 460 571 q 397 508 419 532 q 455 453 428 478 q 503 411 482 429 q 547 372 528 390 q 585 315 574 347 q 590 250 594 288 q 547 168 585 213 q 502 135 529 147 q 446 119 475 122 q 388 124 417 117 q 338 147 358 131 z "},"m":{"ha":1381,"x_min":47,"x_max":1332,"o":"m 1129 694 q 1215 646 1181 678 q 1272 572 1250 614 q 1306 483 1294 531 q 1322 388 1318 435 q 1313 146 1332 276 q 1276 63 1300 99 q 1221 6 1256 31 q 1129 -19 1186 -19 q 1042 0 1078 -19 q 983 49 1007 19 q 946 115 960 79 q 926 183 932 150 q 918 240 919 215 q 917 274 917 265 q 912 236 915 263 q 899 177 908 210 q 874 108 890 144 q 833 43 858 72 q 772 -5 808 14 q 685 -24 735 -24 q 597 -4 633 -24 q 534 45 560 15 q 492 111 508 75 q 465 181 475 147 q 452 241 456 214 q 447 279 449 268 q 445 245 447 271 q 437 186 443 219 q 417 117 431 153 q 382 50 404 81 q 327 0 360 19 q 249 -19 294 -19 q 147 8 185 -19 q 90 68 110 35 q 60 156 67 106 q 60 393 47 285 q 76 486 65 439 q 107 574 88 533 q 156 647 126 615 q 229 694 186 678 q 370 722 307 724 q 483 700 433 721 q 568 645 532 679 q 629 576 604 611 q 667 508 654 540 q 685 461 681 476 q 702 507 689 476 q 739 572 715 538 q 797 638 763 606 q 881 692 832 671 q 990 716 929 713 q 1129 694 1051 719 z "},"−":{"ha":754,"x_min":64,"x_max":678,"o":"m 549 561 q 622 525 596 549 q 660 478 649 501 q 675 419 674 450 q 669 356 678 385 q 641 304 663 329 q 575 267 619 279 q 383 239 472 239 q 196 254 294 239 q 120 285 147 261 q 82 333 93 308 q 67 397 67 363 q 76 465 64 433 q 113 519 88 493 q 194 558 139 546 q 329 576 265 574 q 442 575 393 578 q 549 561 499 571 z "},"µ":{"ha":1157,"x_min":117,"x_max":899,"o":"m 132 501 q 163 593 139 553 q 221 656 182 628 q 328 685 260 685 q 388 676 363 685 q 431 652 414 667 q 458 619 449 638 q 474 582 468 601 q 479 481 486 536 q 478 400 479 438 q 483 335 478 363 q 500 292 488 308 q 538 276 513 276 q 574 308 564 276 q 586 381 583 340 q 582 485 589 426 q 597 607 575 567 q 649 665 619 647 q 728 685 683 685 q 789 663 763 679 q 834 624 815 647 q 865 574 853 601 q 883 521 876 547 q 897 379 899 457 q 877 229 894 292 q 833 124 860 167 q 771 56 806 82 q 701 17 736 31 q 514 3 618 -15 q 506 -117 514 -61 q 475 -215 497 -174 q 413 -281 453 -257 q 308 -306 372 -306 q 218 -274 251 -306 q 167 -203 185 -242 q 138 -100 146 -157 q 119 140 122 31 q 119 331 117 250 q 132 501 124 425 z "},"×":{"ha":744,"x_min":60,"x_max":694,"o":"m 654 246 q 597 204 628 219 q 534 190 569 192 q 456 217 499 189 q 422 239 439 228 q 390 261 406 250 q 360 235 374 246 q 338 218 347 225 q 318 206 326 210 q 242 177 278 176 q 179 190 207 178 q 119 233 147 206 q 89 281 101 256 q 74 332 78 303 q 83 397 69 361 q 139 490 100 438 q 117 518 125 506 q 101 539 108 531 q 89 557 94 549 q 60 632 60 597 q 74 694 61 667 q 118 754 89 726 q 164 785 139 772 q 215 799 186 794 q 281 789 244 803 q 325 768 301 782 q 374 736 349 754 q 446 786 414 767 q 518 810 485 810 q 576 803 551 811 q 629 771 606 792 q 669 714 656 744 q 682 651 681 688 q 657 574 683 615 q 635 540 646 557 q 614 508 625 524 q 668 429 647 464 q 693 355 692 389 q 686 297 694 321 q 654 246 676 268 z "},"n":{"ha":994,"x_min":49,"x_max":974,"o":"m 971 319 q 956 171 974 238 q 934 113 947 142 q 899 60 921 85 q 847 18 876 36 q 775 -7 817 0 q 758 -8 775 -7 q 716 -7 742 -10 q 660 5 690 -4 q 604 35 631 14 q 559 93 578 57 q 538 185 540 129 q 526 282 532 239 q 511 349 519 318 q 489 381 503 381 q 494 292 493 329 q 493 228 494 254 q 490 175 492 197 q 458 83 483 124 q 397 19 438 49 q 283 -11 356 -10 q 222 -3 249 -11 q 174 18 194 4 q 137 49 153 32 q 110 85 121 67 q 72 182 83 128 q 57 268 63 219 q 50 368 51 310 q 56 501 49 426 q 88 607 63 560 q 113 646 97 626 q 149 681 128 665 q 197 708 169 697 q 258 721 224 718 q 359 715 319 725 q 424 690 399 706 q 462 655 449 674 q 485 619 475 636 q 713 683 610 688 q 799 665 756 682 q 877 606 842 647 q 938 496 913 565 q 971 319 963 426 z "},"ñ":{"ha":994,"x_min":49,"x_max":974,"o":"m 971 319 q 956 171 974 238 q 934 113 947 142 q 899 60 921 85 q 847 18 876 36 q 775 -7 817 0 q 758 -8 775 -7 q 716 -7 742 -10 q 660 5 690 -4 q 604 35 631 14 q 559 93 578 57 q 538 185 540 129 q 526 282 532 239 q 511 349 519 318 q 489 381 503 381 q 494 292 493 329 q 493 228 494 254 q 490 175 492 197 q 458 83 483 124 q 397 19 438 49 q 283 -11 356 -10 q 222 -3 249 -11 q 174 18 194 4 q 137 49 153 32 q 110 85 121 67 q 72 182 83 128 q 57 268 63 219 q 50 368 51 310 q 56 501 49 426 q 88 607 63 560 q 113 646 97 626 q 149 681 128 665 q 197 708 169 697 q 258 721 224 718 q 359 715 319 725 q 424 690 399 706 q 462 655 449 674 q 485 619 475 636 q 713 683 610 688 q 799 665 756 682 q 877 606 842 647 q 938 496 913 565 q 971 319 963 426 m 757 874 q 710 817 736 836 q 656 790 683 797 q 599 788 628 783 q 544 801 571 792 q 417 879 482 825 q 381 813 404 832 q 335 790 358 794 q 278 794 308 785 q 245 814 260 800 q 222 846 231 828 q 212 883 214 864 q 217 921 210 903 q 289 1032 242 996 q 337 1056 310 1047 q 399 1061 364 1065 q 479 1037 435 1057 q 578 975 524 1017 l 581 969 q 626 1033 594 1010 q 701 1042 658 1056 q 757 1007 736 1029 q 780 955 775 988 q 757 874 785 922 z "},"#":{"ha":1054,"x_min":54,"x_max":1006,"o":"m 911 535 q 878 530 896 532 q 833 528 861 528 l 819 458 q 886 441 863 456 q 922 408 910 426 q 936 372 933 390 q 939 344 939 354 q 938 324 939 339 q 927 291 936 308 q 899 260 918 274 q 844 243 879 246 l 772 238 l 749 150 q 724 100 740 118 q 690 74 707 82 q 660 63 674 65 q 642 61 646 61 q 615 65 632 61 q 583 84 599 69 q 555 126 567 99 q 543 200 543 153 q 543 215 543 207 q 544 232 543 224 q 487 232 515 232 q 431 233 458 232 l 410 150 q 386 100 401 118 q 354 74 371 82 q 322 63 338 65 q 300 61 307 61 q 283 64 299 61 q 251 78 268 67 q 219 111 233 89 q 204 171 204 133 q 204 205 204 186 q 206 243 204 224 l 163 247 q 103 265 125 251 q 70 296 81 279 q 57 329 60 313 q 54 354 54 346 q 60 388 54 369 q 86 424 67 407 q 140 451 106 440 q 233 465 175 463 q 246 536 238 500 q 176 551 201 536 q 139 583 151 565 q 124 617 126 601 q 121 635 121 633 q 122 662 121 647 q 133 691 124 676 q 160 719 142 706 q 213 742 179 732 q 296 756 247 751 q 324 849 310 814 q 353 902 338 883 q 385 927 368 921 q 425 933 403 933 q 504 910 474 933 q 535 835 535 888 q 533 801 535 818 q 529 768 532 783 q 583 767 557 768 q 638 767 610 767 q 665 853 651 821 q 694 904 679 886 q 726 928 708 922 q 764 933 743 933 q 841 911 808 933 q 874 831 874 889 q 872 792 874 814 q 867 750 869 771 q 946 732 918 746 q 987 701 974 718 q 1003 666 1000 685 q 1006 633 1006 647 q 1003 603 1006 618 q 990 576 1000 589 q 960 552 979 563 q 911 535 942 542 m 574 476 l 582 521 l 493 525 l 485 478 l 574 476 z "},"o":{"ha":814,"x_min":29,"x_max":793,"o":"m 750 161 q 698 91 728 121 q 640 42 668 61 q 575 4 608 18 q 522 -13 547 -7 q 476 -22 496 -19 q 435 -26 453 -26 q 301 -11 358 -26 q 200 28 243 4 q 127 85 157 53 q 79 150 97 117 q 29 326 33 226 q 47 466 29 407 q 92 567 64 525 q 158 638 121 610 q 232 682 194 665 q 435 717 321 721 q 553 701 501 717 q 642 661 604 686 q 706 605 681 636 q 749 540 732 574 q 793 365 788 464 q 781 250 793 300 q 750 161 769 200 m 426 381 q 385 363 403 381 q 371 322 368 344 q 388 282 374 293 q 426 271 403 271 q 465 285 450 271 q 481 322 481 299 q 467 363 481 344 q 426 381 453 381 z "},"ó":{"ha":814,"x_min":29,"x_max":793,"o":"m 750 161 q 698 91 728 121 q 640 42 668 61 q 575 4 608 18 q 522 -13 547 -7 q 476 -22 496 -19 q 435 -26 453 -26 q 301 -11 358 -26 q 200 28 243 4 q 127 85 157 53 q 79 150 97 117 q 29 326 33 226 q 47 466 29 407 q 92 567 64 525 q 158 638 121 610 q 232 682 194 665 q 435 717 321 721 q 553 701 501 717 q 642 661 604 686 q 706 605 681 636 q 749 540 732 574 q 793 365 788 464 q 781 250 793 300 q 750 161 769 200 m 426 381 q 385 363 403 381 q 371 322 368 344 q 388 282 374 293 q 426 271 403 271 q 465 285 450 271 q 481 322 481 299 q 467 363 481 344 q 426 381 453 381 m 251 926 q 284 959 263 940 q 331 995 306 978 q 383 1027 356 1013 q 432 1049 410 1042 q 485 1060 463 1058 q 524 1056 508 1061 q 552 1042 540 1051 q 575 1024 564 1033 q 596 994 586 1013 q 608 956 606 976 q 601 912 610 935 q 567 867 593 889 q 499 824 538 840 q 424 797 460 808 q 340 778 382 785 q 297 775 318 772 q 261 786 279 778 q 232 818 243 794 q 222 858 221 839 q 231 893 224 878 q 251 926 238 910 z "},"ô":{"ha":814,"x_min":29,"x_max":793,"o":"m 750 161 q 698 91 728 121 q 640 42 668 61 q 575 4 608 18 q 522 -13 547 -7 q 476 -22 496 -19 q 435 -26 453 -26 q 301 -11 358 -26 q 200 28 243 4 q 127 85 157 53 q 79 150 97 117 q 29 326 33 226 q 47 466 29 407 q 92 567 64 525 q 158 638 121 610 q 232 682 194 665 q 435 717 321 721 q 553 701 501 717 q 642 661 604 686 q 706 605 681 636 q 749 540 732 574 q 793 365 788 464 q 781 250 793 300 q 750 161 769 200 m 218 910 q 238 932 219 911 q 285 976 256 953 q 351 1020 314 1000 q 429 1040 389 1040 q 504 1020 468 1040 q 569 975 540 1000 q 616 928 599 950 q 635 906 633 907 q 649 847 654 879 q 615 796 643 815 q 556 782 588 776 q 504 815 524 788 q 481 840 501 817 q 429 882 461 864 q 393 857 410 869 q 365 833 376 844 q 342 811 351 821 q 310 786 326 794 q 274 779 294 779 q 231 799 254 779 q 201 852 204 819 q 218 910 197 885 m 426 381 q 385 363 403 381 q 371 322 368 344 q 388 282 374 293 q 426 271 403 271 q 465 285 450 271 q 481 322 481 299 q 467 363 481 344 q 426 381 453 381 z "},"ö":{"ha":814,"x_min":29,"x_max":793,"o":"m 750 161 q 698 91 728 121 q 640 42 668 61 q 575 4 608 18 q 522 -13 547 -7 q 476 -22 496 -19 q 435 -26 453 -26 q 301 -11 358 -26 q 200 28 243 4 q 127 85 157 53 q 79 150 97 117 q 29 326 33 226 q 47 466 29 407 q 92 567 64 525 q 158 638 121 610 q 232 682 194 665 q 435 717 321 721 q 553 701 501 717 q 642 661 604 686 q 706 605 681 636 q 749 540 732 574 q 793 365 788 464 q 781 250 793 300 q 750 161 769 200 m 426 381 q 385 363 403 381 q 371 322 368 344 q 388 282 374 293 q 426 271 403 271 q 465 285 450 271 q 481 322 481 299 q 467 363 481 344 q 426 381 453 381 m 403 914 q 376 838 403 869 q 296 806 349 806 q 216 838 243 806 q 189 914 189 869 q 216 990 189 958 q 296 1021 243 1021 q 376 990 349 1021 q 403 914 403 958 m 657 914 q 630 838 657 869 q 550 806 603 806 q 470 838 497 806 q 443 914 443 869 q 470 990 443 958 q 550 1021 497 1021 q 630 990 603 1021 q 657 914 657 958 z "},"œ":{"ha":1303,"x_min":47,"x_max":1242,"o":"m 967 274 q 1051 234 1007 242 q 1134 221 1096 226 q 1199 200 1172 215 q 1233 136 1226 185 q 1226 82 1235 108 q 1198 34 1218 58 q 1135 -7 1178 10 q 1003 -32 1074 -26 q 864 -30 942 -37 q 701 13 786 -22 q 686 19 694 14 q 670 29 679 24 q 650 43 661 35 q 627 29 638 35 q 610 19 617 24 q 593 13 601 14 q 540 -5 565 1 q 494 -14 514 -11 q 453 -18 471 -18 q 319 -3 376 -18 q 218 37 261 13 q 145 93 175 61 q 97 158 115 125 q 47 335 51 235 q 65 474 47 415 q 110 576 82 533 q 176 646 139 618 q 250 690 213 674 q 453 725 339 729 q 578 708 525 725 q 671 663 632 690 q 742 699 704 685 q 886 721 813 719 q 952 717 917 721 q 1023 703 988 714 q 1094 674 1058 693 q 1164 625 1131 654 q 1203 575 1186 603 q 1229 515 1218 550 q 1242 431 1240 479 q 1217 342 1242 376 q 1153 289 1193 307 q 1065 267 1114 271 q 967 274 1015 264 m 943 463 q 902 444 919 463 q 888 404 885 426 q 905 364 890 375 q 943 353 919 353 q 982 367 967 353 q 997 404 997 381 q 983 444 997 426 q 943 463 969 463 m 432 394 q 391 376 408 394 q 376 336 374 358 q 394 296 379 307 q 432 285 408 285 q 471 299 456 285 q 486 336 486 313 q 472 376 486 358 q 432 394 458 394 z "},"ò":{"ha":814,"x_min":29,"x_max":793,"o":"m 750 161 q 698 91 728 121 q 640 42 668 61 q 575 4 608 18 q 522 -13 547 -7 q 476 -22 496 -19 q 435 -26 453 -26 q 301 -11 358 -26 q 200 28 243 4 q 127 85 157 53 q 79 150 97 117 q 29 326 33 226 q 47 466 29 407 q 92 567 64 525 q 158 638 121 610 q 232 682 194 665 q 435 717 321 721 q 553 701 501 717 q 642 661 604 686 q 706 605 681 636 q 749 540 732 574 q 793 365 788 464 q 781 250 793 300 q 750 161 769 200 m 426 381 q 385 363 403 381 q 371 322 368 344 q 388 282 374 293 q 426 271 403 271 q 465 285 450 271 q 481 322 481 299 q 467 363 481 344 q 426 381 453 381 m 386 1051 q 435 1030 408 1044 q 488 998 463 1015 q 534 962 513 981 q 567 929 556 943 q 586 896 579 913 q 595 861 593 881 q 586 821 597 842 q 557 789 575 797 q 521 778 539 781 q 478 781 500 775 q 393 800 435 788 q 319 827 357 811 q 251 869 281 843 q 217 915 225 892 q 210 958 208 938 q 222 997 213 979 q 243 1026 232 1015 q 265 1045 253 1036 q 294 1059 278 1054 q 332 1063 310 1064 q 386 1051 354 1061 z "},"ø":{"ha":814,"x_min":25,"x_max":803,"o":"m 750 161 q 698 91 728 121 q 640 42 668 61 q 575 4 608 18 q 522 -13 547 -7 q 476 -22 496 -19 q 435 -26 453 -26 q 340 -19 382 -26 q 261 0 297 -11 q 195 -49 229 -24 q 122 -74 161 -74 q 52 -48 79 -74 q 25 18 25 -22 q 42 81 25 49 q 83 143 58 113 q 52 209 63 176 q 36 268 42 242 q 29 326 31 299 q 47 466 29 407 q 92 567 64 525 q 158 638 121 610 q 232 682 194 665 q 435 717 321 721 q 563 697 507 717 q 642 748 610 733 q 701 763 675 763 q 778 739 754 763 q 803 676 803 715 q 789 611 803 647 q 750 538 775 575 q 774 473 765 504 q 788 418 783 442 q 793 365 793 390 q 781 250 793 300 q 750 161 769 200 m 426 381 q 385 363 403 381 q 371 322 368 344 q 388 282 374 293 q 426 271 403 271 q 465 285 450 271 q 481 322 481 299 q 467 363 481 344 q 426 381 453 381 z "},"õ":{"ha":814,"x_min":29,"x_max":793,"o":"m 750 161 q 698 91 728 121 q 640 42 668 61 q 575 4 608 18 q 522 -13 547 -7 q 476 -22 496 -19 q 435 -26 453 -26 q 301 -11 358 -26 q 200 28 243 4 q 127 85 157 53 q 79 150 97 117 q 29 326 33 226 q 47 466 29 407 q 92 567 64 525 q 158 638 121 610 q 232 682 194 665 q 435 717 321 721 q 553 701 501 717 q 642 661 604 686 q 706 605 681 636 q 749 540 732 574 q 793 365 788 464 q 781 250 793 300 q 750 161 769 200 m 668 874 q 621 817 647 836 q 567 790 594 797 q 510 788 539 783 q 456 801 482 792 q 328 879 393 825 q 292 813 315 832 q 246 790 269 794 q 189 794 219 785 q 156 814 171 800 q 133 846 142 828 q 123 883 125 864 q 128 921 121 903 q 200 1032 153 996 q 248 1056 221 1047 q 310 1061 275 1065 q 390 1037 346 1057 q 489 975 435 1017 l 492 969 q 538 1033 506 1010 q 613 1042 569 1056 q 668 1007 647 1029 q 691 955 686 988 q 668 874 696 922 m 426 381 q 385 363 403 381 q 371 322 368 344 q 388 282 374 293 q 426 271 403 271 q 465 285 450 271 q 481 322 481 299 q 467 363 481 344 q 426 381 453 381 z "},"p":{"ha":953,"x_min":33,"x_max":936,"o":"m 49 -106 q 40 161 33 32 q 52 276 43 217 q 78 392 61 335 q 120 503 94 450 q 183 600 146 557 q 306 688 232 656 q 460 728 379 719 q 624 722 542 736 q 774 669 707 707 q 836 619 807 649 q 885 557 861 594 q 924 469 910 519 q 935 368 935 425 q 925 255 936 311 q 890 149 914 199 q 831 69 867 100 q 763 25 797 42 q 694 0 728 8 q 628 -10 660 -8 q 569 -8 597 -11 q 444 25 504 -3 q 454 -162 464 -81 q 439 -231 450 -197 q 407 -290 428 -264 q 353 -333 386 -317 q 274 -349 321 -349 q 207 -338 236 -349 q 155 -311 178 -328 q 115 -273 132 -294 q 86 -228 99 -251 q 49 -106 58 -174 m 510 381 q 469 363 486 381 q 454 322 451 344 q 472 282 457 293 q 510 271 486 271 q 549 285 533 271 q 564 322 564 299 q 550 363 564 344 q 510 381 536 381 z "},"¶":{"ha":975,"x_min":69,"x_max":838,"o":"m 571 946 q 719 923 667 942 q 797 885 772 904 q 832 832 826 860 q 823 769 838 794 q 789 728 808 743 q 733 699 765 710 q 750 267 750 456 q 746 108 750 186 q 733 -30 742 31 q 708 -127 724 -90 q 667 -164 692 -164 q 624 -127 642 -164 q 595 -30 607 -90 q 576 108 583 31 q 567 267 569 186 q 567 699 560 456 l 533 699 q 531 267 539 456 q 519 108 526 186 q 501 -30 513 31 q 474 -127 490 -90 q 433 -164 457 -164 q 391 -138 408 -164 q 362 -71 374 -112 q 344 24 350 -29 q 335 135 338 78 q 335 433 328 265 q 247 443 285 433 q 181 469 210 453 q 134 506 153 485 q 103 549 115 526 q 69 665 74 600 q 91 773 69 728 q 148 849 113 818 q 228 900 183 881 q 319 931 272 919 q 571 946 429 956 z "},"(":{"ha":617,"x_min":53,"x_max":563,"o":"m 203 1036 q 247 1090 221 1067 q 303 1125 272 1113 q 370 1136 333 1138 q 449 1117 407 1135 q 517 1060 499 1093 q 539 994 536 1026 q 529 917 542 957 q 483 750 499 831 q 464 596 468 669 q 464 457 460 522 q 478 336 468 392 q 547 99 500 207 q 558 26 563 63 q 534 -36 556 -4 q 457 -90 513 -68 q 354 -100 403 -112 q 266 -57 306 -87 q 197 15 226 -26 q 151 89 168 56 q 84 274 106 183 q 58 450 63 365 q 61 610 53 535 q 86 751 69 686 q 203 1036 124 904 z "},")":{"ha":621,"x_min":57,"x_max":567,"o":"m 417 -4 q 372 -58 397 -35 q 317 -93 347 -81 q 249 -104 286 -106 q 171 -85 213 -103 q 101 -28 119 -62 q 81 38 83 6 q 90 115 78 75 q 136 282 121 201 q 156 436 151 363 q 156 575 160 510 q 142 696 151 640 q 72 933 119 825 q 61 1006 57 969 q 85 1067 64 1036 q 163 1122 106 1099 q 265 1132 217 1144 q 353 1089 314 1119 q 422 1017 393 1058 q 468 943 451 976 q 535 757 514 849 q 562 581 557 665 q 558 421 567 497 q 533 279 550 344 q 417 -4 496 126 z "},"%":{"ha":1032,"x_min":39,"x_max":932,"o":"m 379 76 q 336 37 358 47 q 296 26 314 26 q 256 36 275 26 q 224 63 236 46 q 207 102 213 78 q 213 163 201 126 q 253 265 225 204 q 317 397 281 326 q 393 541 353 467 q 472 682 433 615 q 542 803 510 749 q 596 889 575 858 q 645 938 619 925 q 693 950 671 950 q 743 938 718 950 q 776 914 764 931 q 792 873 788 899 q 781 806 796 847 q 669 558 736 685 q 536 322 601 431 q 379 76 460 196 m 426 714 q 396 636 418 667 q 342 588 374 606 q 274 567 311 571 q 200 571 238 564 q 81 641 124 586 q 53 774 39 696 q 78 844 60 811 q 124 901 96 878 q 191 933 153 924 q 278 933 229 942 q 356 903 324 925 q 406 853 388 882 q 428 788 424 824 q 426 714 433 751 m 925 165 q 894 87 917 118 q 841 39 872 56 q 773 18 810 22 q 699 21 736 14 q 630 47 660 28 q 580 92 600 65 q 552 152 560 118 q 551 224 544 186 q 576 294 558 261 q 623 351 594 328 q 690 383 651 374 q 776 385 728 393 q 854 355 822 376 q 904 304 886 333 q 927 239 922 275 q 925 165 932 203 z "},".":{"ha":489,"x_min":68,"x_max":418,"o":"m 418 161 q 407 93 418 125 q 374 38 396 61 q 319 0 351 14 q 243 -14 286 -14 q 169 0 201 -14 q 114 38 136 14 q 80 93 92 61 q 68 161 68 125 q 80 229 68 197 q 114 285 92 261 q 169 322 136 308 q 243 336 201 336 q 319 322 286 336 q 374 285 351 308 q 407 229 396 261 q 418 161 418 197 z "},"+":{"ha":858,"x_min":60,"x_max":801,"o":"m 800 497 q 789 429 801 461 q 753 375 778 401 q 681 338 729 349 q 642 329 661 333 q 603 322 622 325 q 594 256 599 278 q 590 232 592 242 q 557 158 583 183 q 503 122 531 133 q 431 111 469 110 q 375 122 401 113 q 328 149 351 131 q 290 201 306 167 q 274 249 281 222 q 263 307 268 275 q 228 310 243 308 q 201 314 213 311 l 181 318 q 108 351 132 325 q 72 406 83 378 q 61 478 60 439 q 72 533 63 507 q 99 580 81 557 q 151 618 117 603 q 198 634 171 628 q 256 646 225 640 q 262 691 258 669 q 271 732 265 713 q 305 801 282 776 q 351 836 328 825 q 411 851 379 850 q 479 840 447 853 q 533 805 507 829 q 571 732 560 781 q 579 693 575 713 q 586 654 583 674 q 681 638 642 647 q 750 603 725 626 q 786 557 775 581 q 800 497 800 529 z "},"q":{"ha":1010,"x_min":58,"x_max":994,"o":"m 751 -339 q 674 -323 707 -339 q 620 -281 642 -307 q 585 -221 599 -254 q 565 -153 572 -187 q 560 35 550 -71 q 433 -4 500 4 q 374 -8 406 -8 q 308 1 342 -7 q 239 25 274 8 q 171 69 204 42 q 104 153 129 103 q 69 260 79 204 q 62 374 58 317 q 81 479 65 431 q 126 570 97 532 q 183 635 156 608 q 253 688 217 665 q 424 739 331 728 q 606 735 517 750 q 769 683 694 721 q 886 586 844 644 q 935 491 915 544 q 967 380 956 438 q 985 263 979 322 q 992 147 990 203 q 976 -124 994 15 q 939 -232 965 -185 q 871 -306 915 -272 q 751 -339 826 -339 m 524 381 q 483 363 500 381 q 468 322 465 344 q 485 282 471 293 q 524 271 500 271 q 563 285 547 271 q 578 322 578 299 q 564 363 578 344 q 524 381 550 381 z "},"?":{"ha":897,"x_min":81,"x_max":815,"o":"m 707 85 q 656 -27 707 13 q 524 -67 604 -67 q 395 -22 443 -67 q 347 88 347 24 q 395 203 347 163 q 524 243 443 243 q 656 199 604 243 q 707 85 707 156 m 729 403 q 650 318 696 349 q 606 296 631 306 q 553 285 582 286 q 492 292 525 283 q 424 325 460 301 q 388 360 400 339 q 373 406 376 382 q 374 456 369 429 q 386 507 378 482 q 443 631 404 565 q 350 565 397 588 q 259 544 310 546 q 158 585 208 543 q 92 686 110 631 q 82 739 83 710 q 89 801 81 768 q 119 872 97 835 q 179 949 140 908 q 321 1026 242 1001 q 395 1041 354 1036 q 483 1040 436 1046 q 581 1015 529 1033 q 690 960 633 996 q 770 878 743 926 q 806 774 797 829 q 810 663 815 719 q 791 555 804 606 q 760 464 778 504 q 729 403 743 424 z "},"¿":{"ha":897,"x_min":83,"x_max":818,"o":"m 192 614 q 243 726 192 686 q 375 765 294 765 q 503 720 456 765 q 551 611 551 675 q 503 496 551 536 q 375 456 456 456 q 243 499 294 456 q 192 614 192 543 m 169 296 q 249 381 203 350 q 292 403 268 393 q 344 413 315 413 q 405 405 372 414 q 475 374 438 396 q 510 338 499 358 q 525 292 522 317 q 524 242 528 268 q 513 192 521 217 q 456 68 494 133 q 547 132 500 110 q 591 148 568 142 q 639 153 614 154 q 690 144 664 153 q 740 114 715 135 q 807 13 789 68 q 817 -40 815 -11 q 810 -103 818 -69 q 780 -173 801 -136 q 719 -250 758 -210 q 578 -329 657 -306 q 503 -344 544 -340 q 416 -342 463 -349 q 317 -317 369 -336 q 208 -261 265 -297 q 128 -179 156 -228 q 92 -76 101 -131 q 89 36 83 -21 q 108 144 94 93 q 138 234 121 194 q 169 296 156 274 z "},"\"":{"ha":622,"x_min":46,"x_max":563,"o":"m 279 942 q 278 888 281 918 q 270 827 276 857 q 256 771 264 797 q 240 728 249 744 q 218 696 232 710 q 190 674 207 683 q 149 665 172 664 q 108 680 124 667 q 83 708 92 693 q 68 749 72 726 q 51 833 57 790 q 47 912 46 869 q 58 992 47 954 q 85 1042 68 1025 q 123 1065 103 1058 q 163 1069 143 1071 q 199 1063 183 1068 q 224 1049 211 1057 q 249 1029 238 1042 q 268 996 260 1017 q 279 942 276 975 m 561 942 q 560 888 563 918 q 552 827 558 857 q 538 771 546 797 q 522 728 531 744 q 500 696 514 710 q 472 674 489 683 q 431 665 454 664 q 390 680 406 667 q 365 708 374 693 q 350 749 354 726 q 333 833 339 790 q 328 912 328 869 q 340 992 329 954 q 367 1042 350 1025 q 405 1065 385 1058 q 445 1069 425 1071 q 481 1063 465 1068 q 506 1049 493 1057 q 531 1029 519 1042 q 550 996 542 1017 q 561 942 558 975 z "},"„":{"ha":756,"x_min":60,"x_max":697,"o":"m 354 138 q 351 42 357 82 q 333 -27 344 1 q 304 -74 321 -56 q 271 -101 288 -92 q 176 -119 231 -126 q 153 -110 160 -117 q 146 -96 147 -103 q 147 -76 144 -87 q 164 -57 151 -62 q 176 -54 169 -54 q 195 -42 194 -54 q 194 -17 196 -29 q 94 29 128 -12 q 60 131 60 71 q 97 234 60 192 q 206 276 135 276 q 314 236 276 276 q 354 138 351 196 m 694 138 q 691 42 697 82 q 673 -27 685 1 q 644 -74 661 -56 q 611 -101 628 -92 q 517 -119 571 -126 q 494 -110 500 -117 q 486 -96 488 -103 q 488 -76 485 -87 q 504 -57 492 -62 q 517 -54 510 -54 q 535 -42 535 -54 q 535 -17 536 -29 q 434 29 468 -12 q 400 131 400 71 q 438 234 400 192 q 546 276 475 276 q 654 236 617 276 q 694 138 692 196 z "},"“":{"ha":751,"x_min":46,"x_max":683,"o":"m 389 728 q 392 824 386 783 q 410 892 399 864 q 439 938 422 921 q 472 967 456 956 q 567 985 513 992 q 589 975 582 982 q 597 961 596 968 q 596 942 599 953 q 579 922 590 926 q 567 919 574 919 q 548 907 549 919 q 549 882 547 894 q 649 836 615 878 q 683 735 683 794 q 646 631 683 674 q 538 589 608 589 q 429 629 467 589 q 389 728 392 669 m 49 728 q 52 824 46 783 q 70 892 58 864 q 99 938 82 921 q 132 967 115 956 q 226 985 172 992 q 249 975 242 982 q 257 961 256 968 q 256 942 258 953 q 239 922 250 926 q 226 919 233 919 q 208 907 208 919 q 208 882 207 894 q 309 836 275 878 q 343 735 343 794 q 306 631 343 674 q 197 589 268 589 q 89 629 126 589 q 49 728 51 669 z "},"”":{"ha":764,"x_min":60,"x_max":697,"o":"m 354 865 q 351 769 357 810 q 333 701 344 729 q 304 654 321 672 q 271 626 288 636 q 176 608 231 601 q 153 618 160 611 q 146 632 147 625 q 147 651 144 640 q 164 671 151 665 q 176 674 169 674 q 195 686 194 674 q 194 711 196 699 q 94 757 128 715 q 60 858 60 799 q 97 962 60 919 q 206 1004 135 1004 q 314 964 276 1004 q 354 865 351 924 m 694 865 q 691 769 697 810 q 673 701 685 729 q 644 654 661 672 q 611 626 628 636 q 517 608 571 601 q 494 618 500 611 q 486 632 488 625 q 488 651 485 640 q 504 671 492 665 q 517 674 510 674 q 535 686 535 674 q 535 711 536 699 q 434 757 468 715 q 400 858 400 799 q 438 962 400 919 q 546 1004 475 1004 q 654 964 617 1004 q 694 865 692 924 z "},"‘":{"ha":396,"x_min":46,"x_max":343,"o":"m 49 728 q 52 824 46 783 q 70 892 58 864 q 99 938 82 921 q 132 967 115 956 q 226 985 172 992 q 249 975 242 982 q 257 961 256 968 q 256 942 258 953 q 239 922 250 926 q 226 919 233 919 q 208 907 208 919 q 208 882 207 894 q 309 836 275 878 q 343 735 343 794 q 306 631 343 674 q 197 589 268 589 q 89 629 126 589 q 49 728 51 669 z "},"’":{"ha":411,"x_min":53,"x_max":350,"o":"m 347 865 q 344 769 350 810 q 326 701 338 729 q 297 654 314 672 q 264 626 281 636 q 169 608 224 601 q 147 618 153 611 q 139 632 140 625 q 140 651 138 640 q 157 671 144 665 q 169 674 163 674 q 188 686 188 674 q 188 711 189 699 q 87 757 121 715 q 53 858 53 799 q 90 962 53 919 q 199 1004 128 1004 q 307 964 269 1004 q 347 865 344 924 z "},"‚":{"ha":411,"x_min":53,"x_max":350,"o":"m 347 143 q 344 47 350 88 q 326 -22 338 7 q 297 -68 314 -50 q 264 -96 281 -86 q 169 -114 224 -121 q 147 -104 153 -111 q 139 -90 140 -97 q 140 -71 138 -82 q 157 -51 144 -57 q 169 -49 163 -49 q 188 -36 188 -49 q 188 -11 189 -24 q 87 35 121 -7 q 53 136 53 76 q 90 240 53 197 q 199 282 128 282 q 307 242 269 282 q 347 143 344 201 z "},"'":{"ha":311,"x_min":42,"x_max":276,"o":"m 275 942 q 274 888 276 918 q 266 827 272 857 q 252 771 260 797 q 236 728 244 744 q 214 696 228 710 q 185 674 203 683 q 144 665 168 664 q 103 680 119 667 q 79 708 88 693 q 64 749 68 726 q 47 833 53 790 q 42 912 42 869 q 54 992 43 954 q 81 1042 64 1025 q 119 1065 99 1058 q 159 1069 139 1071 q 194 1063 179 1068 q 220 1049 207 1057 q 244 1029 233 1042 q 264 996 256 1017 q 275 942 272 975 z "},"r":{"ha":831,"x_min":31,"x_max":817,"o":"m 440 622 q 519 695 476 674 q 597 722 561 717 q 682 719 640 728 q 750 688 724 708 q 790 642 776 667 q 810 592 804 617 q 815 549 815 567 q 803 472 817 504 q 775 419 790 439 q 732 381 757 394 q 645 356 688 354 q 568 368 603 357 q 492 407 528 382 q 499 261 503 324 q 483 153 496 199 q 449 78 469 108 q 404 31 428 49 q 271 -10 349 -12 q 174 8 211 -12 q 113 56 136 29 q 71 125 86 86 q 38 281 46 200 q 33 428 31 361 q 46 581 35 506 q 95 681 61 647 q 165 731 129 715 q 257 747 207 747 q 351 730 315 750 q 407 686 388 710 q 440 622 431 658 z "},"˚":{"ha":457,"x_min":57,"x_max":397,"o":"m 397 876 q 384 814 397 843 q 348 763 371 785 q 294 729 325 742 q 228 717 263 717 q 161 729 192 717 q 107 763 131 742 q 70 814 83 785 q 57 876 57 843 q 70 938 57 910 q 107 989 83 967 q 161 1024 131 1011 q 228 1036 192 1036 q 294 1024 263 1036 q 348 989 325 1011 q 384 938 371 967 q 397 876 397 910 m 226 951 q 169 931 188 951 q 151 878 151 910 q 169 827 151 847 q 228 807 188 807 q 284 826 268 807 q 300 876 300 846 q 281 932 300 913 q 226 951 261 951 z "},"s":{"ha":779,"x_min":46,"x_max":740,"o":"m 438 442 q 543 419 497 433 q 622 388 589 406 q 676 349 654 369 q 710 310 697 329 q 740 208 740 264 q 727 127 740 163 q 692 66 714 92 q 644 22 671 40 q 589 -8 617 4 q 438 -43 522 -36 q 302 -40 360 -46 q 203 -24 244 -35 q 133 3 161 -12 q 88 35 104 18 q 47 125 47 74 q 56 186 46 160 q 85 232 67 213 q 128 265 104 251 q 176 286 151 278 q 311 308 235 306 q 168 365 217 331 q 99 432 119 400 q 74 511 74 469 q 92 589 75 556 q 134 647 108 622 q 191 687 160 671 q 256 714 222 703 q 429 739 332 739 q 587 723 526 736 q 681 687 647 710 q 725 634 714 664 q 735 571 736 604 q 719 517 733 539 q 685 480 706 494 q 638 456 664 465 q 583 443 611 447 q 438 442 518 433 z "},"š":{"ha":779,"x_min":47,"x_max":740,"o":"m 438 442 q 594 401 535 428 q 686 341 654 374 q 729 273 718 308 q 740 208 740 238 q 722 113 740 153 q 675 44 704 72 q 608 -1 646 15 q 532 -28 571 -18 q 456 -41 493 -37 q 392 -44 419 -44 q 208 -26 276 -44 q 103 19 139 -8 q 58 76 68 46 q 47 133 47 107 q 73 219 47 186 q 138 272 99 253 q 223 299 176 292 q 311 308 269 307 q 188 352 235 326 q 116 406 142 378 q 82 463 90 435 q 74 511 74 490 q 113 625 76 581 q 202 694 149 669 q 316 729 256 719 q 429 739 376 739 q 582 724 522 736 q 676 690 642 711 q 722 642 710 669 q 735 581 735 614 q 713 508 735 536 q 657 464 690 479 q 584 443 624 449 q 510 438 544 438 q 438 442 475 438 m 621 929 q 601 907 619 928 q 554 863 583 886 q 488 819 525 839 q 410 799 450 799 q 333 819 369 799 q 269 864 297 839 q 224 910 242 889 q 204 933 206 931 q 189 978 189 953 q 212 1033 189 1008 q 271 1058 235 1058 q 333 1024 308 1058 q 341 1015 335 1022 q 357 998 347 1008 q 381 976 367 988 q 410 957 394 965 q 459 994 439 975 q 495 1027 479 1013 q 526 1051 511 1042 q 560 1060 540 1060 q 586 1053 572 1060 q 612 1036 600 1047 q 631 1010 624 1025 q 639 978 639 996 q 621 929 639 951 z "},";":{"ha":468,"x_min":69,"x_max":379,"o":"m 379 554 q 340 444 379 488 q 225 400 301 400 q 112 444 151 400 q 72 554 72 488 q 112 663 72 617 q 225 708 151 708 q 340 663 301 708 q 379 554 379 617 m 374 135 q 370 35 376 78 q 351 -36 364 -7 q 323 -84 339 -65 q 289 -112 307 -103 q 192 -131 247 -137 q 167 -122 174 -128 q 160 -107 161 -115 q 161 -86 158 -99 q 169 -74 164 -78 q 179 -67 174 -69 q 192 -64 185 -64 q 210 -51 208 -64 q 210 -25 211 -37 q 105 23 140 -19 q 69 128 69 65 q 108 235 69 192 q 222 279 147 279 q 333 237 294 279 q 374 135 371 194 z "},"/":{"ha":596,"x_min":47,"x_max":561,"o":"m 260 22 q 219 -31 242 -15 q 176 -50 196 -46 q 128 -49 151 -56 q 86 -26 104 -42 q 59 13 71 -12 q 53 83 47 39 q 76 208 58 133 q 119 369 94 282 q 174 549 144 457 q 233 724 204 640 q 288 875 263 807 q 329 982 313 943 q 376 1047 349 1028 q 426 1071 403 1065 q 485 1068 454 1076 q 528 1049 511 1064 q 552 1006 543 1035 q 554 928 561 978 q 524 778 543 856 q 481 624 504 701 q 433 472 458 547 q 383 331 408 397 q 260 22 325 172 z "},"Â":{"ha":1036,"x_min":44,"x_max":993,"o":"m 864 13 q 794 -1 831 1 q 727 1 764 -4 q 654 28 690 7 q 588 83 614 51 q 547 146 563 115 q 526 201 532 176 q 518 238 519 226 q 510 201 517 226 q 489 146 504 176 q 448 83 474 115 q 382 28 422 51 q 309 1 346 7 q 242 -1 272 -4 q 172 13 206 1 q 124 38 144 22 q 91 74 104 54 q 69 117 78 94 q 56 163 60 140 q 47 275 44 215 q 69 456 51 374 q 115 608 88 539 q 174 731 142 676 q 236 831 206 786 q 330 932 282 897 q 419 983 378 967 q 487 1001 460 999 q 518 1003 514 1003 q 549 1001 522 1003 q 617 983 576 999 q 707 932 658 967 q 801 831 756 897 q 863 731 832 786 q 922 608 894 676 q 967 456 949 539 q 989 275 985 374 q 982 163 993 215 q 969 117 978 140 q 946 74 960 94 q 912 38 932 54 q 864 13 892 22 m 308 1169 q 328 1192 310 1171 q 375 1236 346 1213 q 442 1280 404 1260 q 519 1300 479 1300 q 594 1280 558 1300 q 660 1235 631 1260 q 706 1188 689 1210 q 725 1165 724 1167 q 739 1107 744 1139 q 706 1056 733 1075 q 646 1042 678 1036 q 594 1075 614 1047 q 572 1100 592 1076 q 519 1142 551 1124 q 483 1117 500 1129 q 456 1093 467 1104 q 432 1071 442 1081 q 400 1046 417 1054 q 365 1039 385 1039 q 321 1058 344 1039 q 291 1112 294 1079 q 308 1169 288 1144 m 524 513 q 483 494 500 513 q 468 454 465 476 q 485 414 471 425 q 524 403 500 403 q 563 417 547 403 q 578 454 578 431 q 564 494 578 476 q 524 513 550 513 z "},"£":{"ha":979,"x_min":53,"x_max":924,"o":"m 207 368 q 151 366 175 365 q 103 382 126 367 q 65 422 75 399 q 54 469 56 446 q 60 524 53 494 q 95 574 72 558 q 142 594 118 589 q 199 597 168 600 q 208 703 200 658 q 228 781 217 749 q 254 843 240 817 q 306 910 276 883 q 370 952 336 936 q 441 976 404 968 q 514 985 478 983 q 688 967 596 989 q 793 899 754 943 q 853 814 832 854 q 874 728 878 765 q 857 665 871 690 q 813 615 842 636 q 762 594 788 599 q 714 592 736 589 q 675 603 692 594 q 650 625 658 613 q 633 650 642 638 q 613 672 624 663 q 588 686 601 682 q 554 685 574 690 q 526 665 535 679 q 515 636 518 651 q 514 597 511 618 q 590 596 561 603 q 638 578 619 589 q 668 547 657 565 q 685 495 685 521 q 679 450 686 469 q 657 404 672 425 q 614 375 639 382 q 565 368 589 368 q 507 375 538 368 q 504 332 503 347 q 508 308 506 317 q 518 296 513 299 q 579 275 547 282 q 638 269 606 268 q 699 286 669 269 q 770 312 739 310 q 822 308 801 314 q 863 286 847 301 q 915 210 906 247 q 917 144 924 174 q 885 79 910 110 q 831 33 860 51 q 770 3 801 14 q 708 -11 739 -7 q 647 -15 676 -15 q 511 3 581 -15 q 446 18 482 14 q 372 16 414 21 q 279 -11 329 11 q 172 -26 214 -40 q 107 18 131 -11 q 65 104 79 53 q 63 159 60 135 q 76 202 67 183 q 99 234 86 221 q 128 256 113 247 q 211 282 164 276 q 205 308 206 293 q 204 338 204 324 q 207 368 204 353 z "},"t":{"ha":935,"x_min":14,"x_max":921,"o":"m 267 810 q 272 932 257 878 q 292 976 279 954 q 326 1015 304 999 q 381 1042 349 1032 q 457 1053 413 1053 q 532 1042 500 1053 q 585 1014 564 1032 q 621 974 607 996 q 643 929 635 951 q 657 807 661 875 q 789 794 731 811 q 838 774 814 788 q 880 741 861 761 q 910 692 899 721 q 921 622 921 663 q 910 558 921 585 q 882 511 900 531 q 842 479 864 492 q 797 460 819 467 q 674 446 742 443 q 674 214 688 315 q 656 129 668 171 q 624 56 644 88 q 571 3 603 24 q 494 -17 539 -17 q 360 22 406 -17 q 298 125 315 60 q 283 275 281 190 q 293 454 286 360 q 153 456 214 443 q 101 472 126 461 q 57 503 76 483 q 26 551 38 522 q 14 622 14 581 q 40 717 14 681 q 104 774 65 753 q 187 802 143 794 q 267 810 231 810 z "},"þ":{"ha":946,"x_min":29,"x_max":919,"o":"m 854 592 q 898 501 882 553 q 917 396 914 450 q 911 289 919 342 q 883 194 903 236 q 831 110 860 143 q 775 57 801 76 q 714 21 744 33 q 590 -5 651 -7 q 467 4 528 -3 q 474 -47 469 -14 q 478 -121 478 -81 q 471 -203 478 -161 q 445 -281 464 -246 q 394 -341 426 -317 q 310 -368 361 -365 q 249 -362 276 -371 q 200 -337 222 -353 q 161 -302 178 -322 q 132 -261 144 -282 q 88 -144 103 -211 q 57 -6 71 -82 q 38 151 46 61 q 33 351 29 242 q 41 535 33 446 q 60 697 49 625 q 88 857 72 781 q 125 972 99 922 q 192 1049 147 1015 q 310 1081 236 1083 q 385 1060 354 1078 q 435 1014 415 1042 q 464 951 454 986 q 476 881 474 917 q 464 692 483 796 q 608 711 538 713 q 672 705 639 711 q 736 685 704 699 q 799 649 768 672 q 854 592 829 626 m 538 381 q 497 363 514 381 q 482 322 479 344 q 499 282 485 293 q 538 271 514 271 q 576 285 561 271 q 592 322 592 299 q 578 363 592 344 q 538 381 564 381 z "},"˜":{"ha":708,"x_min":64,"x_max":639,"o":"m 611 874 q 564 817 590 836 q 510 790 538 797 q 453 788 482 783 q 399 801 425 792 q 271 879 336 825 q 235 813 258 832 q 189 790 213 794 q 132 794 163 785 q 99 814 114 800 q 76 846 85 828 q 66 883 68 864 q 71 921 64 903 q 143 1032 96 996 q 191 1056 164 1047 q 253 1061 218 1065 q 333 1037 289 1057 q 432 975 378 1017 l 435 969 q 481 1033 449 1010 q 556 1042 513 1056 q 611 1007 590 1029 q 634 955 629 988 q 611 874 639 922 z "},"u":{"ha":944,"x_min":57,"x_max":900,"o":"m 285 714 q 357 688 325 708 q 408 633 385 669 q 433 533 431 597 q 434 481 433 510 q 438 426 435 451 q 451 384 442 401 q 478 367 460 367 q 515 406 510 367 q 521 533 519 446 q 546 639 521 601 q 600 693 571 676 q 679 715 635 713 q 788 695 749 718 q 850 643 828 672 q 885 564 875 608 q 895 424 900 490 q 879 304 890 357 q 843 189 865 243 q 769 81 817 128 q 722 40 749 60 q 661 6 696 21 q 585 -17 626 -8 q 492 -24 543 -25 q 313 2 383 -21 q 201 51 243 25 q 128 121 153 82 q 71 260 85 183 q 58 403 57 336 q 74 560 58 481 q 124 661 89 628 q 194 706 158 694 q 285 714 236 719 z "},"ú":{"ha":944,"x_min":57,"x_max":900,"o":"m 285 714 q 357 688 325 708 q 408 633 385 669 q 433 533 431 597 q 434 481 433 510 q 438 426 435 451 q 451 384 442 401 q 478 367 460 367 q 515 406 510 367 q 521 533 519 446 q 546 639 521 601 q 600 693 571 676 q 679 715 635 713 q 788 695 749 718 q 850 643 828 672 q 885 564 875 608 q 895 424 900 490 q 879 304 890 357 q 843 189 865 243 q 769 81 817 128 q 722 40 749 60 q 661 6 696 21 q 585 -17 626 -8 q 492 -24 543 -25 q 313 2 383 -21 q 201 51 243 25 q 128 121 153 82 q 71 260 85 183 q 58 403 57 336 q 74 560 58 481 q 124 661 89 628 q 194 706 158 694 q 285 714 236 719 m 333 926 q 366 959 344 940 q 413 995 388 978 q 465 1027 438 1013 q 514 1049 492 1042 q 567 1060 544 1058 q 606 1056 590 1061 q 634 1042 622 1051 q 657 1024 646 1033 q 678 994 668 1013 q 690 956 688 976 q 683 912 692 935 q 649 867 675 889 q 581 824 619 840 q 506 797 542 808 q 422 778 464 785 q 379 775 400 772 q 343 786 361 778 q 314 818 325 794 q 304 858 303 839 q 313 893 306 878 q 333 926 319 910 z "},"û":{"ha":944,"x_min":57,"x_max":900,"o":"m 285 714 q 357 688 325 708 q 408 633 385 669 q 433 533 431 597 q 434 481 433 510 q 438 426 435 451 q 451 384 442 401 q 478 367 460 367 q 515 406 510 367 q 521 533 519 446 q 546 639 521 601 q 600 693 571 676 q 679 715 635 713 q 788 695 749 718 q 850 643 828 672 q 885 564 875 608 q 895 424 900 490 q 879 304 890 357 q 843 189 865 243 q 769 81 817 128 q 722 40 749 60 q 661 6 696 21 q 585 -17 626 -8 q 492 -24 543 -25 q 313 2 383 -21 q 201 51 243 25 q 128 121 153 82 q 71 260 85 183 q 58 403 57 336 q 74 560 58 481 q 124 661 89 628 q 194 706 158 694 q 285 714 236 719 m 260 910 q 279 932 261 911 q 326 976 297 953 q 393 1020 356 1000 q 471 1040 431 1040 q 546 1020 510 1040 q 611 975 582 1000 q 658 928 640 950 q 676 906 675 907 q 690 847 696 879 q 657 796 685 815 q 597 782 629 776 q 546 815 565 788 q 523 840 543 817 q 471 882 503 864 q 435 857 451 869 q 407 833 418 844 q 383 811 393 821 q 351 786 368 794 q 316 779 336 779 q 272 799 296 779 q 242 852 246 819 q 260 910 239 885 z "},"ü":{"ha":944,"x_min":57,"x_max":900,"o":"m 285 714 q 357 688 325 708 q 408 633 385 669 q 433 533 431 597 q 434 481 433 510 q 438 426 435 451 q 451 384 442 401 q 478 367 460 367 q 515 406 510 367 q 521 533 519 446 q 546 639 521 601 q 600 693 571 676 q 679 715 635 713 q 788 695 749 718 q 850 643 828 672 q 885 564 875 608 q 895 424 900 490 q 879 304 890 357 q 843 189 865 243 q 769 81 817 128 q 722 40 749 60 q 661 6 696 21 q 585 -17 626 -8 q 492 -24 543 -25 q 313 2 383 -21 q 201 51 243 25 q 128 121 153 82 q 71 260 85 183 q 58 403 57 336 q 74 560 58 481 q 124 661 89 628 q 194 706 158 694 q 285 714 236 719 m 460 914 q 433 838 460 869 q 353 806 406 806 q 273 838 300 806 q 246 914 246 869 q 273 990 246 958 q 353 1021 300 1021 q 433 990 406 1021 q 460 914 460 958 m 714 914 q 687 838 714 869 q 607 806 660 806 q 527 838 554 806 q 500 914 500 869 q 527 990 500 958 q 607 1021 554 1021 q 687 990 660 1021 q 714 914 714 958 z "},"ù":{"ha":944,"x_min":57,"x_max":900,"o":"m 285 714 q 357 688 325 708 q 408 633 385 669 q 433 533 431 597 q 434 481 433 510 q 438 426 435 451 q 451 384 442 401 q 478 367 460 367 q 515 406 510 367 q 521 533 519 446 q 546 639 521 601 q 600 693 571 676 q 679 715 635 713 q 788 695 749 718 q 850 643 828 672 q 885 564 875 608 q 895 424 900 490 q 879 304 890 357 q 843 189 865 243 q 769 81 817 128 q 722 40 749 60 q 661 6 696 21 q 585 -17 626 -8 q 492 -24 543 -25 q 313 2 383 -21 q 201 51 243 25 q 128 121 153 82 q 71 260 85 183 q 58 403 57 336 q 74 560 58 481 q 124 661 89 628 q 194 706 158 694 q 285 714 236 719 m 415 1051 q 465 1030 438 1044 q 517 998 492 1015 q 563 962 542 981 q 596 929 585 943 q 615 896 608 913 q 624 861 622 881 q 615 821 626 842 q 586 789 604 797 q 550 778 568 781 q 507 781 529 775 q 422 800 464 788 q 348 827 386 811 q 281 869 310 843 q 246 915 254 892 q 240 958 238 938 q 251 997 242 979 q 272 1026 261 1015 q 294 1045 282 1036 q 323 1059 307 1054 q 361 1063 339 1064 q 415 1051 383 1061 z "},"_":{"ha":953,"x_min":82,"x_max":900,"o":"m 774 206 q 848 183 822 200 q 885 146 874 165 q 899 96 899 122 q 890 43 900 68 q 862 3 882 22 q 800 -24 842 -17 q 675 -37 747 -32 q 523 -43 603 -42 q 362 -42 443 -44 q 213 -33 281 -39 q 138 -11 164 -29 q 100 26 111 7 q 85 78 86 50 q 96 133 82 108 q 134 176 107 156 q 217 206 161 197 q 416 221 317 219 q 594 219 515 222 q 774 206 688 215 z "}," ":{"ha":594,"x_min":0,"x_max":0,"o":""},"­":{"ha":731,"x_min":64,"x_max":678,"o":"m 549 561 q 622 525 596 549 q 660 478 649 501 q 675 419 674 450 q 669 356 678 385 q 641 304 663 329 q 575 267 619 279 q 383 239 472 239 q 196 254 294 239 q 120 285 147 261 q 82 333 93 308 q 67 397 67 363 q 76 465 64 433 q 113 519 88 493 q 194 558 139 546 q 329 576 265 574 q 442 575 393 578 q 549 561 499 571 z "},"v":{"ha":882,"x_min":10,"x_max":869,"o":"m 450 421 q 497 588 461 517 q 534 644 513 617 q 585 690 556 671 q 652 715 614 708 q 739 713 690 722 q 809 681 782 703 q 849 631 836 660 q 866 569 863 603 q 865 501 869 535 q 815 328 857 422 q 715 160 771 233 q 663 98 692 128 q 600 44 633 68 q 529 6 567 21 q 450 -8 492 -8 q 342 13 392 -8 q 249 69 292 35 q 174 147 207 104 q 115 232 140 189 q 72 313 89 275 q 44 375 54 350 q 19 463 29 411 q 18 565 10 515 q 60 656 26 615 q 165 711 93 696 q 242 711 207 719 q 305 684 276 703 q 355 638 333 665 q 393 582 376 611 q 450 421 431 514 z "},"w":{"ha":1169,"x_min":17,"x_max":1146,"o":"m 825 -18 q 694 8 742 -18 q 622 68 646 35 q 591 133 597 101 q 585 174 585 164 q 574 131 583 163 q 540 65 565 99 q 469 6 515 32 q 350 -19 424 -19 q 249 6 292 -19 q 179 61 207 31 q 125 142 146 97 q 71 272 90 208 q 40 386 51 335 q 24 499 28 444 q 44 629 17 583 q 107 699 71 675 q 204 731 149 724 q 301 713 261 731 q 370 668 342 696 q 415 606 399 640 q 442 538 432 571 q 454 474 451 504 q 458 426 457 444 q 480 507 460 479 q 524 547 500 535 q 586 563 551 563 q 670 537 642 561 q 711 482 699 513 q 726 403 726 446 q 736 515 726 467 q 761 599 746 564 q 797 658 776 635 q 838 696 817 681 q 949 731 886 731 q 1017 720 988 731 q 1068 694 1047 710 q 1103 658 1089 678 q 1126 617 1118 638 q 1146 504 1146 567 q 1128 348 1143 417 q 1097 232 1113 279 q 1056 135 1078 176 q 983 43 1022 74 q 907 -1 943 13 q 825 -18 865 -17 z "},"x":{"ha":867,"x_min":38,"x_max":829,"o":"m 435 596 q 528 693 476 658 q 576 717 550 707 q 631 726 601 726 q 692 712 660 725 q 758 668 724 699 q 806 601 794 635 q 815 533 818 567 q 796 470 811 500 q 764 417 781 440 q 733 380 747 394 q 717 364 719 365 q 736 347 719 363 q 772 308 753 332 q 808 251 792 283 q 827 181 825 218 q 812 103 829 144 q 747 22 794 63 q 660 -28 701 -17 q 585 -34 619 -40 q 523 -8 551 -28 q 474 34 494 11 q 441 78 454 57 q 424 111 428 100 q 340 6 386 43 q 297 -22 321 -11 q 245 -33 272 -32 q 187 -21 218 -33 q 122 22 156 -8 q 66 88 85 56 q 42 149 47 119 q 42 206 38 179 q 58 256 47 232 q 142 356 83 310 q 69 457 93 404 q 54 505 60 479 q 51 558 49 531 q 67 613 54 585 q 110 668 81 640 q 179 717 146 703 q 242 733 213 732 q 299 725 272 735 q 346 700 325 715 q 435 596 396 664 z "},"y":{"ha":988,"x_min":40,"x_max":933,"o":"m 842 701 q 910 636 885 682 q 926 590 919 617 q 933 526 933 563 q 924 444 933 490 q 894 339 915 397 q 813 142 854 231 q 738 -8 772 54 q 660 -139 697 -82 q 571 -253 621 -207 q 524 -288 550 -272 q 469 -312 499 -304 q 406 -317 439 -319 q 338 -296 374 -314 q 271 -239 292 -274 q 246 -163 250 -204 q 251 -78 242 -122 q 273 6 260 -33 q 301 76 286 44 q 324 124 315 107 q 306 140 315 132 q 290 154 297 147 q 275 168 282 161 q 193 239 229 203 q 133 306 157 275 q 85 374 106 342 q 44 479 53 425 q 42 527 40 501 q 51 579 43 553 q 78 633 60 606 q 129 685 97 660 q 222 713 174 710 q 267 710 243 714 q 316 693 290 706 q 369 659 342 681 q 424 603 396 638 q 467 545 447 574 q 506 489 486 517 q 550 565 521 517 q 621 654 579 614 q 718 713 663 694 q 842 701 774 732 z "},"ý":{"ha":988,"x_min":40,"x_max":933,"o":"m 842 701 q 910 636 885 682 q 926 590 919 617 q 933 526 933 563 q 924 444 933 490 q 894 339 915 397 q 813 142 854 231 q 738 -8 772 54 q 660 -139 697 -82 q 571 -253 621 -207 q 524 -288 550 -272 q 469 -312 499 -304 q 406 -317 439 -319 q 338 -296 374 -314 q 271 -239 292 -274 q 246 -163 250 -204 q 251 -78 242 -122 q 273 6 260 -33 q 301 76 286 44 q 324 124 315 107 q 306 140 315 132 q 290 154 297 147 q 275 168 282 161 q 193 239 229 203 q 133 306 157 275 q 85 374 106 342 q 44 479 53 425 q 42 527 40 501 q 51 579 43 553 q 78 633 60 606 q 129 685 97 660 q 222 713 174 710 q 267 710 243 714 q 316 693 290 706 q 369 659 342 681 q 424 603 396 638 q 467 545 447 574 q 506 489 486 517 q 550 565 521 517 q 621 654 579 614 q 718 713 663 694 q 842 701 774 732 m 349 926 q 381 959 360 940 q 428 995 403 978 q 480 1027 453 1013 q 529 1049 507 1042 q 583 1060 560 1058 q 622 1056 606 1061 q 649 1042 638 1051 q 672 1024 661 1033 q 693 994 683 1013 q 705 956 703 976 q 699 912 707 935 q 664 867 690 889 q 596 824 635 840 q 521 797 557 808 q 438 778 479 785 q 394 775 415 772 q 358 786 376 778 q 329 818 340 794 q 319 858 318 839 q 328 893 321 878 q 349 926 335 910 z "},"ÿ":{"ha":988,"x_min":40,"x_max":933,"o":"m 842 701 q 910 636 885 682 q 926 590 919 617 q 933 526 933 563 q 924 444 933 490 q 894 339 915 397 q 813 142 854 231 q 738 -8 772 54 q 660 -139 697 -82 q 571 -253 621 -207 q 524 -288 550 -272 q 469 -312 499 -304 q 406 -317 439 -319 q 338 -296 374 -314 q 271 -239 292 -274 q 246 -163 250 -204 q 251 -78 242 -122 q 273 6 260 -33 q 301 76 286 44 q 324 124 315 107 q 306 140 315 132 q 290 154 297 147 q 275 168 282 161 q 193 239 229 203 q 133 306 157 275 q 85 374 106 342 q 44 479 53 425 q 42 527 40 501 q 51 579 43 553 q 78 633 60 606 q 129 685 97 660 q 222 713 174 710 q 267 710 243 714 q 316 693 290 706 q 369 659 342 681 q 424 603 396 638 q 467 545 447 574 q 506 489 486 517 q 550 565 521 517 q 621 654 579 614 q 718 713 663 694 q 842 701 774 732 m 469 914 q 442 838 469 869 q 363 806 415 806 q 283 838 310 806 q 256 914 256 869 q 283 990 256 958 q 363 1021 310 1021 q 442 990 415 1021 q 469 914 469 958 m 724 914 q 697 838 724 869 q 617 806 669 806 q 537 838 564 806 q 510 914 510 869 q 537 990 510 958 q 617 1021 564 1021 q 697 990 669 1021 q 724 914 724 958 z "},"¥":{"ha":1036,"x_min":28,"x_max":1000,"o":"m 993 735 q 939 610 979 657 q 854 539 899 564 q 740 499 803 510 q 758 428 751 467 q 815 426 790 426 q 858 426 839 426 q 897 425 879 426 q 938 414 925 425 q 958 390 951 403 q 965 357 965 375 q 958 326 964 340 q 942 306 953 315 q 911 293 931 296 q 847 289 883 290 q 765 286 810 288 l 761 254 q 817 253 792 253 q 860 253 842 253 q 897 251 881 253 q 938 240 925 251 q 958 217 951 229 q 965 183 965 201 q 958 154 964 168 q 942 133 953 143 q 911 121 931 122 q 833 116 879 118 q 728 111 786 114 q 719 90 724 99 q 713 74 715 81 q 707 61 708 67 q 639 -1 683 18 q 540 -21 594 -21 q 463 -11 496 -21 q 410 11 431 -1 q 368 43 385 25 q 328 111 342 74 q 252 113 288 113 q 186 117 217 114 q 147 128 160 118 q 126 149 133 138 q 118 178 119 163 q 125 213 118 197 q 147 238 132 226 q 190 250 161 249 q 243 252 217 251 q 297 253 269 253 q 297 269 297 261 q 296 285 296 278 l 186 289 q 147 301 160 290 q 126 322 133 311 q 118 351 119 336 q 126 389 118 374 q 149 414 133 403 q 194 425 164 425 q 247 426 221 425 q 301 426 272 426 q 304 453 303 442 q 307 472 306 464 q 310 489 308 482 q 175 535 235 503 q 125 567 150 549 q 80 610 100 585 q 47 666 60 635 q 31 738 33 697 q 34 817 28 782 q 53 878 40 851 q 84 923 67 904 q 121 954 101 942 q 224 993 165 983 q 311 985 272 994 q 381 958 350 975 q 435 917 413 940 q 475 869 458 894 q 531 738 514 813 q 608 896 560 843 q 701 968 656 949 q 814 986 756 992 q 883 967 854 981 q 933 935 913 954 q 965 894 953 917 q 985 850 978 872 q 993 735 1000 797 z "},"z":{"ha":822,"x_min":44,"x_max":797,"o":"m 88 104 q 94 225 71 168 q 152 326 117 282 q 220 396 188 369 q 257 425 253 422 q 240 425 257 425 q 199 428 224 425 q 147 442 175 432 q 97 472 119 451 q 59 523 74 492 q 47 603 44 554 q 88 692 50 653 q 130 724 104 708 q 194 751 156 739 q 285 769 232 763 q 407 774 338 775 q 565 757 501 771 q 665 720 628 743 q 716 665 703 697 q 722 593 729 632 q 693 519 714 558 q 642 442 675 486 q 554 351 610 399 q 675 332 621 350 q 719 310 697 324 q 759 278 742 297 q 787 233 776 260 q 797 171 797 206 q 765 61 797 100 q 683 5 733 22 q 570 -16 632 -12 q 449 -19 508 -19 q 330 -17 389 -19 q 222 -3 271 -15 q 136 33 172 8 q 88 104 100 58 z "},"ž":{"ha":822,"x_min":47,"x_max":797,"o":"m 88 104 q 81 153 81 135 q 107 257 81 208 q 165 342 133 306 q 226 400 197 378 q 257 425 254 422 l 247 425 q 197 429 231 425 q 131 449 164 433 q 72 498 97 465 q 47 589 47 531 q 59 651 47 618 q 107 710 71 683 q 209 756 143 738 q 382 774 275 774 q 539 763 474 774 q 646 731 604 751 q 706 683 688 711 q 725 621 725 654 q 717 569 725 599 q 689 506 708 540 q 637 432 669 471 q 554 351 604 393 q 634 342 592 350 q 713 315 676 335 q 774 261 750 296 q 797 171 797 226 q 765 61 797 100 q 683 5 733 22 q 570 -16 632 -12 q 449 -19 508 -19 q 330 -17 389 -19 q 221 -3 271 -15 q 135 33 171 8 q 88 104 100 58 m 592 936 q 572 914 590 935 q 525 869 554 893 q 458 826 496 846 q 381 806 421 806 q 304 826 340 806 q 240 871 268 846 q 194 917 213 896 q 175 940 176 938 q 160 985 160 960 q 183 1040 160 1015 q 242 1065 206 1065 q 278 1053 263 1065 q 310 1026 294 1042 q 343 992 326 1010 q 381 964 360 975 q 430 1001 410 982 q 466 1034 450 1019 q 497 1058 482 1049 q 531 1067 511 1067 q 557 1060 543 1067 q 583 1043 571 1054 q 602 1017 594 1032 q 610 985 610 1003 q 592 936 610 958 z "},"…":{"ha":1467,"x_min":68,"x_max":1396,"o":"m 418 161 q 407 93 418 125 q 374 38 396 61 q 319 0 351 14 q 243 -14 286 -14 q 169 0 201 -14 q 114 38 136 14 q 80 93 92 61 q 68 161 68 125 q 80 229 68 197 q 114 285 92 261 q 169 322 136 308 q 243 336 201 336 q 319 322 286 336 q 374 285 351 308 q 407 229 396 261 q 418 161 418 197 m 907 161 q 896 93 907 125 q 863 38 885 61 q 808 0 840 14 q 732 -14 775 -14 q 658 0 690 -14 q 603 38 625 14 q 569 93 581 61 q 557 161 557 125 q 569 229 557 197 q 603 285 581 261 q 658 322 625 308 q 732 336 690 336 q 808 322 775 336 q 863 285 840 308 q 896 229 885 261 q 907 161 907 197 m 1396 161 q 1385 93 1396 125 q 1351 38 1374 61 q 1297 0 1329 14 q 1221 -14 1264 -14 q 1147 0 1179 -14 q 1092 38 1114 14 q 1058 93 1069 61 q 1046 161 1046 125 q 1058 229 1046 197 q 1092 285 1069 261 q 1147 322 1114 308 q 1221 336 1179 336 q 1297 322 1264 336 q 1351 285 1329 308 q 1385 229 1374 261 q 1396 161 1396 197 z "},"A":{"ha":1036,"x_min":44,"x_max":993,"o":"m 864 13 q 794 -1 831 1 q 727 1 764 -4 q 654 28 690 7 q 588 83 614 51 q 547 146 563 115 q 526 201 532 176 q 518 238 519 226 q 510 201 517 226 q 489 146 504 176 q 448 83 474 115 q 382 28 422 51 q 309 1 346 7 q 242 -1 272 -4 q 172 13 206 1 q 124 38 144 22 q 91 74 104 54 q 69 117 78 94 q 56 163 60 140 q 47 275 44 215 q 69 456 51 374 q 115 608 88 539 q 174 731 142 676 q 236 831 206 786 q 330 932 282 897 q 419 983 378 967 q 487 1001 460 999 q 518 1003 514 1003 q 549 1001 522 1003 q 617 983 576 999 q 707 932 658 967 q 801 831 756 897 q 863 731 832 786 q 922 608 894 676 q 967 456 949 539 q 989 275 985 374 q 982 163 993 215 q 969 117 978 140 q 946 74 960 94 q 912 38 932 54 q 864 13 892 22 m 524 513 q 483 494 500 513 q 468 454 465 476 q 485 414 471 425 q 524 403 500 403 q 563 417 547 403 q 578 454 578 431 q 564 494 578 476 q 524 513 550 513 z "},"§":{"ha":779,"x_min":81,"x_max":746,"o":"m 415 542 q 376 525 392 542 q 360 488 360 508 q 376 444 360 456 q 415 432 392 432 q 454 446 439 432 q 469 483 469 460 q 456 524 469 506 q 415 542 442 542 m 461 715 q 609 667 553 696 q 696 609 665 639 q 736 552 726 579 q 746 510 746 525 q 735 443 746 474 q 708 389 725 413 q 668 347 690 365 q 622 314 646 328 q 676 275 657 296 q 704 234 694 254 q 716 199 714 214 q 718 179 718 185 q 696 94 718 129 q 639 35 674 58 q 563 -1 604 13 q 485 -20 522 -14 q 419 -28 447 -26 q 383 -29 392 -29 q 237 -18 294 -29 q 146 13 179 -7 q 100 60 113 32 q 88 119 88 88 q 110 188 88 163 q 166 228 132 214 q 240 247 200 242 q 315 251 279 251 q 349 250 335 251 q 368 249 363 249 l 368 254 q 281 271 331 260 q 188 303 232 282 q 112 355 143 324 q 81 435 81 386 q 111 560 81 507 q 206 656 142 613 q 153 693 172 672 q 125 733 135 714 q 113 767 115 751 q 111 788 111 782 q 133 874 111 839 q 190 933 156 910 q 266 970 225 957 q 344 990 307 983 q 409 997 381 996 q 446 999 438 999 q 592 988 535 999 q 683 956 650 976 q 729 909 717 936 q 742 850 742 882 q 719 781 742 807 q 663 741 697 756 q 589 722 629 726 q 514 717 549 717 q 477 719 490 717 q 461 721 464 721 l 461 715 z "},"†":{"ha":890,"x_min":46,"x_max":836,"o":"m 632 822 q 657 828 643 825 q 684 833 668 831 q 717 835 700 835 q 759 828 738 835 q 797 806 781 821 q 825 768 814 792 q 836 711 836 744 q 822 650 836 674 q 786 613 807 626 q 742 593 765 599 q 699 588 718 588 q 672 589 679 588 q 663 590 667 589 q 668 546 665 571 q 673 497 671 525 q 675 432 675 468 q 667 325 675 371 q 635 249 658 279 q 568 202 611 218 q 456 186 525 186 q 342 197 385 186 q 276 238 299 207 q 247 325 254 268 q 240 474 240 382 q 240 531 240 504 q 242 590 240 557 q 219 585 231 588 q 197 581 208 582 q 169 579 185 579 q 128 585 150 579 q 88 607 106 592 q 58 647 69 622 q 46 708 46 672 q 59 763 46 739 q 93 801 72 786 q 140 823 114 815 q 190 831 165 831 q 217 829 204 831 q 242 825 231 828 q 240 836 240 831 q 239 849 239 842 q 239 868 239 857 q 244 929 239 894 q 267 994 250 964 q 316 1044 283 1024 q 403 1065 349 1065 q 521 1056 475 1065 q 593 1028 567 1047 q 628 981 619 1010 q 638 910 638 951 q 636 868 638 889 q 632 822 635 847 z "},"‡":{"ha":890,"x_min":46,"x_max":836,"o":"m 632 219 q 636 174 635 194 q 638 132 638 153 q 628 61 638 90 q 593 13 619 32 q 521 -15 567 -6 q 403 -24 475 -24 q 316 -3 349 -24 q 267 48 283 18 q 244 112 250 78 q 239 174 239 146 q 239 192 239 183 q 240 206 239 200 q 242 217 240 211 q 217 213 231 214 q 190 211 204 211 q 140 219 165 211 q 93 241 114 226 q 59 278 72 256 q 46 333 46 301 q 58 394 46 369 q 88 435 69 419 q 128 456 106 450 q 169 463 150 463 q 217 458 197 463 q 240 451 236 453 l 240 589 q 215 583 235 588 q 169 579 194 579 q 128 585 150 579 q 88 607 106 592 q 58 647 69 622 q 46 708 46 672 q 59 763 46 739 q 93 801 72 786 q 140 823 114 815 q 190 831 165 831 q 217 829 204 831 q 242 825 231 828 q 240 836 240 831 q 239 849 239 842 q 239 868 239 857 q 244 929 239 894 q 267 994 250 964 q 316 1044 283 1024 q 403 1065 349 1065 q 521 1056 475 1065 q 593 1028 567 1047 q 628 981 619 1010 q 638 910 638 951 q 636 868 638 889 q 632 822 635 847 q 657 828 643 825 q 684 833 668 831 q 717 835 700 835 q 759 828 738 835 q 797 806 781 821 q 825 768 814 792 q 836 711 836 744 q 822 650 836 674 q 786 613 807 626 q 742 593 765 599 q 699 588 718 588 l 675 588 l 675 453 q 699 454 681 454 q 742 449 718 454 q 786 429 765 443 q 822 392 807 415 q 836 331 836 368 q 825 274 836 297 q 797 235 814 250 q 759 214 781 221 q 717 207 738 207 q 684 208 700 207 q 657 213 668 210 q 632 219 643 215 z "},"¦":{"ha":358,"x_min":44,"x_max":307,"o":"m 278 599 q 254 571 269 582 q 222 553 239 560 q 191 544 206 547 q 169 542 176 542 q 138 542 157 542 q 101 548 119 543 q 68 563 82 553 q 53 593 54 574 q 47 676 49 633 q 44 763 44 719 q 51 911 44 856 q 67 1010 57 967 q 108 1057 74 1042 q 182 1072 142 1072 q 223 1068 203 1072 q 260 1056 243 1064 q 287 1035 276 1047 q 299 1008 297 1024 q 305 928 303 964 q 307 854 307 893 q 303 740 307 788 q 293 662 299 693 q 283 615 288 631 q 278 599 279 600 m 278 -25 q 254 -53 269 -42 q 222 -70 239 -64 q 191 -79 206 -76 q 169 -82 176 -82 q 138 -81 157 -82 q 101 -76 119 -81 q 68 -60 82 -71 q 53 -31 54 -50 q 47 47 49 10 q 44 128 44 85 q 51 275 44 221 q 67 372 57 329 q 108 419 74 404 q 182 435 142 435 q 223 431 203 435 q 260 418 243 426 q 287 398 276 410 q 299 371 297 386 q 307 206 307 283 q 303 95 307 139 q 293 26 299 51 q 283 -12 288 0 q 278 -25 279 -24 z "},"¬":{"ha":953,"x_min":85,"x_max":903,"o":"m 757 622 q 840 582 810 611 q 883 515 869 553 q 900 437 897 478 q 903 363 903 396 q 899 292 903 326 q 890 219 896 257 q 847 144 883 174 q 763 114 811 114 q 717 123 740 114 q 673 160 693 132 q 640 240 653 188 q 628 378 628 292 q 544 374 588 375 q 456 372 500 372 q 329 375 388 372 q 213 383 271 378 q 167 393 189 385 q 126 416 144 401 q 96 451 107 431 q 85 501 85 472 q 88 528 85 511 q 105 565 92 546 q 144 599 118 583 q 217 622 171 615 q 342 635 283 632 q 463 639 400 639 q 660 633 588 639 q 757 622 733 628 z "},"«":{"ha":1206,"x_min":47,"x_max":1175,"o":"m 338 15 q 314 31 336 17 q 260 71 292 46 q 190 129 228 96 q 121 202 153 163 q 68 285 89 242 q 47 374 47 328 q 68 460 47 417 q 121 544 89 504 q 190 619 153 585 q 260 680 228 654 q 314 720 292 706 q 338 736 336 735 q 390 757 360 753 q 451 755 421 761 q 509 731 482 749 q 554 686 536 714 q 576 572 592 626 q 508 481 560 518 q 475 453 493 468 q 440 419 460 439 q 397 376 419 400 q 455 322 428 346 q 503 279 482 297 q 547 240 528 258 q 585 183 574 215 q 590 118 594 156 q 547 36 585 81 q 502 3 529 15 q 446 -12 475 -10 q 388 -8 417 -15 q 338 15 358 -1 m 918 15 q 894 31 917 17 q 840 71 872 46 q 771 129 808 96 q 701 202 733 163 q 649 285 669 242 q 628 374 628 328 q 649 460 628 417 q 701 544 669 504 q 771 619 733 585 q 840 680 808 654 q 894 720 872 706 q 918 736 917 735 q 971 757 940 753 q 1032 755 1001 761 q 1090 731 1063 749 q 1135 686 1117 714 q 1156 572 1172 626 q 1089 481 1140 518 q 1056 453 1074 468 q 1020 419 1040 439 q 978 376 1000 400 q 1035 322 1008 346 q 1083 279 1063 297 q 1128 240 1108 258 q 1165 183 1154 215 q 1170 118 1175 156 q 1128 36 1165 81 q 1083 3 1110 15 q 1026 -12 1056 -10 q 968 -8 997 -15 q 918 15 939 -1 z "},"»":{"ha":1206,"x_min":31,"x_max":1158,"o":"m 868 15 q 818 -8 847 -1 q 760 -12 789 -15 q 703 3 731 -10 q 658 36 676 15 q 615 118 619 81 q 621 183 611 156 q 658 240 632 215 q 703 279 678 258 q 751 322 724 297 q 808 376 778 346 q 765 419 785 400 q 731 453 746 439 q 697 481 713 468 q 630 572 646 518 q 651 686 614 626 q 697 731 669 714 q 754 755 724 749 q 815 757 785 761 q 868 736 844 753 q 892 721 869 736 q 946 680 914 706 q 1015 619 978 654 q 1085 544 1053 585 q 1138 460 1117 504 q 1158 374 1158 417 q 1138 285 1158 329 q 1085 202 1117 242 q 1015 129 1053 163 q 946 71 978 96 q 892 31 914 46 q 868 15 869 17 m 288 15 q 238 -8 267 -1 q 179 -12 208 -15 q 123 3 150 -10 q 78 36 96 15 q 35 118 39 81 q 40 183 31 156 q 78 240 51 215 q 122 279 97 258 q 170 322 143 297 q 228 376 197 346 q 185 419 204 400 q 150 453 165 439 q 117 481 132 468 q 49 572 65 518 q 71 686 33 626 q 116 731 89 714 q 174 755 143 749 q 234 757 204 761 q 288 736 264 753 q 311 721 289 736 q 365 680 333 706 q 435 619 397 654 q 504 544 472 585 q 557 460 536 504 q 578 374 578 417 q 557 285 578 329 q 504 202 536 242 q 435 129 472 163 q 365 71 397 96 q 311 31 333 46 q 288 15 289 17 z "},"¤":{"ha":814,"x_min":64,"x_max":757,"o":"m 724 496 q 708 385 724 438 q 664 292 693 333 q 717 201 696 240 q 738 143 738 161 q 733 117 738 128 q 722 100 728 107 q 707 88 715 93 q 696 82 701 85 q 669 76 682 76 q 640 82 656 76 q 610 104 625 88 q 588 128 600 114 q 563 156 576 139 q 532 193 549 172 q 485 182 508 186 q 433 178 461 178 q 373 181 401 178 q 319 192 344 185 q 276 138 296 163 q 242 97 257 114 q 210 63 225 78 q 179 40 194 46 q 150 35 164 35 q 135 36 142 35 q 124 40 129 38 q 113 46 118 43 q 97 58 103 51 q 82 101 82 74 q 108 170 82 122 q 174 281 133 218 q 134 342 147 311 q 114 401 121 374 q 106 463 107 432 q 117 567 106 522 q 150 647 129 613 q 89 748 114 700 q 64 828 64 796 q 68 851 64 842 q 78 865 72 860 q 93 875 83 871 q 106 882 99 878 q 121 888 113 885 q 140 890 129 890 q 203 856 168 890 q 286 758 238 821 q 359 776 325 772 q 413 781 393 781 q 526 765 476 781 q 615 869 578 832 q 681 906 651 906 q 699 903 692 906 q 714 897 707 900 l 728 890 q 742 881 736 886 q 752 866 747 875 q 757 843 757 857 q 731 763 757 811 q 671 663 706 715 q 701 605 690 633 q 717 552 711 576 q 723 513 722 528 q 724 496 724 497 m 418 599 q 365 588 389 599 q 322 558 340 576 q 294 515 304 539 q 283 465 283 492 q 322 361 283 392 q 418 331 361 331 q 514 363 476 331 q 551 461 551 396 q 543 510 551 486 q 518 554 535 535 q 476 586 501 574 q 418 599 451 599 z "},"·":{"ha":489,"x_min":68,"x_max":418,"o":"m 418 346 q 407 278 418 310 q 374 222 396 246 q 319 185 351 199 q 243 171 286 171 q 169 185 201 171 q 114 222 136 199 q 80 278 92 246 q 68 346 68 310 q 80 414 68 382 q 114 469 92 446 q 169 507 136 493 q 243 521 201 521 q 319 507 286 521 q 374 469 351 493 q 407 414 396 446 q 418 346 418 382 z "},"∙":{"ha":489,"x_min":68,"x_max":418,"o":"m 418 346 q 407 278 418 310 q 374 222 396 246 q 319 185 351 199 q 243 171 286 171 q 169 185 201 171 q 114 222 136 199 q 80 278 92 246 q 68 346 68 310 q 80 414 68 382 q 114 469 92 446 q 169 507 136 493 q 243 521 201 521 q 319 507 286 521 q 374 469 351 493 q 407 414 396 446 q 418 346 418 382 z "},"©":{"ha":954,"x_min":72,"x_max":882,"o":"m 456 51 q 306 80 375 51 q 184 163 236 108 q 102 297 132 217 q 72 479 72 376 q 99 655 72 575 q 176 792 125 735 q 303 882 226 850 q 479 914 379 914 q 644 884 569 914 q 771 799 718 854 q 853 666 824 744 q 882 490 882 588 q 856 320 882 400 q 778 181 831 240 q 644 86 725 121 q 456 51 564 51 m 460 144 q 603 172 543 144 q 704 247 664 200 q 764 357 744 294 q 783 489 783 419 q 759 631 783 569 q 693 733 735 692 q 596 794 651 774 q 478 815 540 815 q 351 792 407 815 q 257 726 296 769 q 197 620 218 682 q 176 481 176 558 q 199 340 176 403 q 260 234 221 278 q 350 167 299 190 q 460 144 401 144 m 489 715 q 541 710 515 715 q 587 694 567 704 q 619 673 607 685 q 632 647 632 661 q 624 616 632 628 q 594 604 615 604 q 550 614 575 604 q 476 624 525 624 q 386 589 415 624 q 357 492 357 554 q 390 383 357 421 q 486 344 424 344 q 536 351 515 344 q 572 365 557 357 q 597 380 586 374 q 617 386 607 386 q 640 376 631 386 q 649 346 649 367 q 633 310 649 326 q 594 283 618 294 q 542 265 571 271 q 489 258 514 258 q 322 317 381 258 q 263 483 263 375 q 276 573 263 531 q 319 647 290 615 q 390 697 347 678 q 489 715 432 715 z "},"®":{"ha":954,"x_min":139,"x_max":815,"o":"m 456 344 q 331 368 389 344 q 231 438 274 392 q 164 550 189 483 q 139 701 139 617 q 160 849 139 782 q 225 965 182 917 q 332 1039 268 1013 q 479 1065 396 1065 q 617 1040 556 1065 q 723 969 679 1015 q 791 858 767 924 q 815 713 815 793 q 794 569 815 636 q 728 453 772 503 q 615 374 683 403 q 456 344 547 344 m 460 421 q 581 444 529 421 q 666 508 632 468 q 717 600 700 547 q 733 711 733 653 q 713 832 733 781 q 658 917 693 883 q 577 968 624 951 q 478 985 531 985 q 292 911 360 985 q 225 703 225 838 q 244 583 225 636 q 294 494 263 531 q 369 440 326 458 q 460 421 411 421 m 453 653 l 397 653 l 397 538 q 385 517 397 522 q 364 513 374 513 q 349 515 356 513 q 340 528 343 518 q 336 559 338 539 q 335 615 335 579 l 335 804 q 360 888 335 858 q 456 918 386 918 q 517 912 489 918 q 565 891 544 906 q 598 853 586 876 q 610 794 610 829 q 519 665 610 679 l 610 556 q 622 532 622 543 q 608 517 622 522 q 579 513 593 513 q 564 516 571 513 q 547 532 557 519 l 453 653 m 554 783 q 529 835 554 815 q 443 854 504 854 q 408 837 417 854 q 399 757 399 819 l 399 711 q 408 710 401 710 q 419 710 414 710 l 433 710 q 519 722 485 710 q 554 783 554 735 z "},"±":{"ha":858,"x_min":97,"x_max":764,"o":"m 764 654 q 760 622 764 642 q 740 583 757 603 q 688 544 724 563 q 589 517 653 526 q 575 453 585 483 q 547 400 565 424 q 501 363 529 376 q 431 349 472 349 q 399 353 419 349 q 354 372 378 357 q 309 419 331 388 q 276 504 288 450 q 208 515 240 507 q 151 538 175 522 q 112 578 126 553 q 97 640 97 603 q 101 663 97 647 q 123 697 106 679 q 175 733 140 715 q 269 761 210 750 q 297 852 278 818 q 339 903 317 886 q 381 926 361 921 q 411 931 401 931 q 447 927 424 931 q 494 908 469 924 q 540 859 518 892 q 572 769 561 826 q 682 744 643 761 q 739 710 721 728 q 760 676 757 692 q 764 654 764 660 m 618 272 q 663 257 640 267 q 704 233 686 247 q 734 197 722 218 q 746 149 746 176 q 742 124 746 139 q 728 95 739 110 q 698 68 718 81 q 644 47 678 56 q 538 29 588 35 q 439 24 489 24 q 354 26 397 24 q 265 35 311 28 q 218 47 242 38 q 176 71 194 56 q 146 108 157 86 q 135 157 135 129 q 140 181 135 165 q 158 213 144 196 q 198 246 172 231 q 264 269 224 261 q 359 282 313 279 q 446 285 406 285 q 515 283 483 285 q 569 278 546 281 q 618 272 596 275 z "},"μ":{"ha":1157,"x_min":117,"x_max":899,"o":"m 132 501 q 163 593 139 553 q 221 656 182 628 q 328 685 260 685 q 388 676 363 685 q 431 652 414 667 q 458 619 449 638 q 474 582 468 601 q 479 481 486 536 q 478 400 479 438 q 483 335 478 363 q 500 292 488 308 q 538 276 513 276 q 574 308 564 276 q 586 381 583 340 q 582 485 589 426 q 597 607 575 567 q 649 665 619 647 q 728 685 683 685 q 789 663 763 679 q 834 624 815 647 q 865 574 853 601 q 883 521 876 547 q 897 379 899 457 q 877 229 894 292 q 833 124 860 167 q 771 56 806 82 q 701 17 736 31 q 514 3 618 -15 q 506 -117 514 -61 q 475 -215 497 -174 q 413 -281 453 -257 q 308 -306 372 -306 q 218 -274 251 -306 q 167 -203 185 -242 q 138 -100 146 -157 q 119 140 122 31 q 119 331 117 250 q 132 501 124 425 z "},"ƒ":{"ha":890,"x_min":44,"x_max":838,"o":"m 632 713 q 732 725 688 728 q 801 701 769 722 q 836 622 833 679 q 811 540 838 565 q 751 507 785 515 q 663 504 713 497 q 671 108 682 283 q 654 -38 667 33 q 619 -167 642 -110 q 560 -261 596 -225 q 474 -300 525 -297 q 335 -253 383 -307 q 266 -93 288 -199 q 242 165 244 13 q 242 504 239 317 q 147 494 189 489 q 112 503 129 496 q 80 522 94 510 q 56 555 65 535 q 46 606 47 575 q 65 672 44 647 q 115 708 85 697 q 181 720 146 719 q 242 715 215 721 q 244 796 239 754 q 266 876 250 832 q 317 965 282 921 q 410 1036 354 1010 q 533 1068 458 1060 q 714 1049 607 1076 q 769 1021 744 1038 q 806 981 790 1006 q 817 921 821 957 q 804 876 815 896 q 776 847 794 860 q 722 835 757 833 q 688 829 703 835 q 660 815 674 825 q 639 786 646 806 q 635 768 636 779 q 632 713 631 747 z "},"‰":{"ha":1468,"x_min":39,"x_max":1390,"o":"m 379 76 q 336 37 358 47 q 296 26 314 26 q 256 36 275 26 q 224 63 236 46 q 207 102 213 78 q 213 163 201 126 q 253 265 225 204 q 317 397 281 326 q 393 541 353 467 q 472 682 433 615 q 542 803 510 749 q 596 889 575 858 q 645 938 619 925 q 693 950 671 950 q 743 938 718 950 q 776 914 764 931 q 792 873 788 899 q 781 806 796 847 q 669 558 736 685 q 536 322 601 431 q 379 76 460 196 m 426 714 q 396 636 418 667 q 342 588 374 606 q 274 567 311 571 q 200 571 238 564 q 81 641 124 586 q 53 774 39 696 q 78 844 60 811 q 124 901 96 878 q 191 933 153 924 q 278 933 229 942 q 356 903 324 925 q 406 853 388 882 q 428 788 424 824 q 426 714 433 751 m 925 165 q 894 87 917 118 q 841 39 872 56 q 773 18 810 22 q 699 21 736 14 q 630 47 660 28 q 580 92 600 65 q 552 152 560 118 q 551 224 544 186 q 576 294 558 261 q 623 351 594 328 q 690 383 651 374 q 776 385 728 393 q 854 355 822 376 q 904 304 886 333 q 927 239 922 275 q 925 165 932 203 m 1383 165 q 1353 87 1375 118 q 1299 39 1331 56 q 1231 18 1268 22 q 1157 21 1194 14 q 1088 47 1118 28 q 1038 92 1058 65 q 1010 152 1018 118 q 1010 224 1003 186 q 1035 294 1017 261 q 1081 351 1053 328 q 1148 383 1110 374 q 1235 385 1186 393 q 1313 355 1281 376 q 1363 304 1344 333 q 1385 239 1381 275 q 1383 165 1390 203 z "},"˝":{"ha":892,"x_min":38,"x_max":843,"o":"m 68 926 q 101 959 79 940 q 147 995 122 978 q 199 1027 172 1013 q 249 1049 226 1042 q 302 1060 279 1058 q 341 1056 325 1061 q 369 1042 357 1051 q 392 1024 381 1033 q 413 994 403 1013 q 424 956 422 976 q 418 912 426 935 q 383 867 410 889 q 315 824 354 840 q 240 797 276 808 q 157 778 199 785 q 114 775 135 772 q 78 786 96 778 q 49 818 60 794 q 39 858 38 839 q 47 893 40 878 q 68 926 54 910 m 485 926 q 517 959 496 940 q 564 995 539 978 q 616 1027 589 1013 q 665 1049 643 1042 q 719 1060 696 1058 q 758 1056 742 1061 q 785 1042 774 1051 q 808 1024 797 1033 q 829 994 819 1013 q 841 956 839 976 q 835 912 843 935 q 800 867 826 889 q 732 824 771 840 q 657 797 693 808 q 574 778 615 785 q 531 775 551 772 q 494 786 513 778 q 465 818 476 794 q 456 858 454 839 q 464 893 457 878 q 485 926 471 910 z "},"∕":{"ha":594,"x_min":46,"x_max":560,"o":"m 258 36 q 217 -17 240 -1 q 175 -36 194 -32 q 126 -35 150 -42 q 85 -12 103 -28 q 58 27 69 1 q 51 97 46 53 q 75 221 57 146 q 118 383 93 296 q 173 563 143 471 q 232 738 203 654 q 286 889 261 821 q 328 996 311 957 q 374 1060 347 1042 q 425 1085 401 1079 q 483 1082 453 1090 q 526 1063 510 1078 q 551 1020 542 1049 q 553 942 560 992 q 522 792 542 869 q 480 638 503 715 q 432 486 457 561 q 382 344 407 411 q 258 36 324 186 z "},"˛":{"ha":432,"x_min":72,"x_max":357,"o":"m 357 21 q 276 -37 307 -11 q 229 -87 246 -64 q 207 -128 213 -110 q 201 -161 201 -146 q 220 -200 201 -190 q 264 -210 239 -210 q 308 -219 288 -210 q 328 -261 328 -229 q 309 -305 328 -287 q 264 -322 290 -322 q 239 -323 251 -322 q 214 -324 226 -324 q 112 -287 151 -324 q 72 -179 72 -251 q 124 -49 72 -112 q 258 76 175 14 l 357 21 z "},"˙":{"ha":540,"x_min":83,"x_max":425,"o":"m 422 921 q 415 861 425 890 q 384 809 404 832 q 335 772 364 786 q 271 753 306 757 q 203 758 235 749 q 147 785 172 767 q 106 828 122 803 q 86 886 90 854 q 94 945 83 917 q 125 997 104 974 q 175 1035 146 1019 q 239 1054 204 1050 q 305 1049 274 1058 q 361 1022 336 1040 q 403 978 386 1004 q 422 921 419 951 z "},"ç":{"ha":792,"x_min":53,"x_max":769,"o":"m 533 396 q 485 403 506 404 q 451 392 465 401 q 436 356 436 382 q 449 325 438 336 q 478 312 458 315 q 535 324 497 308 q 614 339 575 339 q 685 321 647 338 q 753 256 722 304 q 769 183 769 219 q 753 113 769 151 q 683 36 736 74 q 629 8 660 22 q 567 -14 603 -3 q 486 -28 531 -25 l 486 -57 q 549 -67 519 -57 q 602 -94 579 -76 q 639 -137 625 -111 q 653 -196 653 -162 q 638 -259 653 -232 q 599 -304 624 -286 q 544 -331 575 -322 q 483 -340 514 -340 q 458 -340 471 -340 q 433 -339 446 -339 q 389 -321 407 -339 q 371 -276 371 -303 q 390 -235 371 -244 q 433 -226 410 -226 q 449 -227 440 -226 q 468 -228 458 -228 q 506 -222 489 -228 q 524 -192 524 -215 q 504 -161 524 -169 q 451 -154 483 -154 q 408 -151 419 -154 q 386 -143 396 -149 q 361 -100 361 -131 l 361 -21 q 231 19 299 -10 q 142 90 181 44 q 81 194 108 129 q 53 354 53 258 q 81 506 54 435 q 110 567 92 536 q 154 626 128 597 q 217 677 181 654 q 303 715 254 700 q 442 736 371 735 q 572 719 501 738 q 703 646 642 701 q 732 603 721 628 q 745 549 742 581 q 733 476 749 517 q 693 425 719 446 q 631 396 669 407 q 533 396 593 385 z "},"Ç":{"ha":965,"x_min":36,"x_max":939,"o":"m 690 592 q 613 593 647 599 q 558 569 583 588 q 531 507 533 551 q 546 449 529 474 q 594 413 561 428 q 694 406 628 399 q 807 400 757 413 q 849 385 828 394 q 888 358 871 375 q 919 315 906 340 q 936 254 932 289 q 929 174 939 213 q 898 103 921 140 q 826 39 875 65 q 768 15 803 25 q 697 -1 739 6 q 600 -10 654 -8 l 600 -57 q 663 -67 633 -57 q 716 -94 693 -76 q 753 -137 739 -111 q 767 -196 767 -162 q 752 -259 767 -232 q 713 -304 738 -286 q 658 -331 689 -322 q 597 -340 628 -340 q 572 -340 585 -340 q 547 -339 560 -339 q 503 -321 521 -339 q 485 -276 485 -303 q 504 -235 485 -244 q 547 -226 524 -226 q 563 -227 554 -226 q 582 -228 572 -228 q 620 -222 603 -228 q 638 -192 638 -215 q 618 -161 638 -169 q 565 -154 597 -154 q 522 -151 533 -154 q 500 -143 510 -149 q 475 -100 475 -131 l 475 -1 q 409 8 443 1 q 338 26 375 15 q 185 115 251 54 q 128 177 156 142 q 81 260 101 213 q 48 369 60 308 q 39 506 36 431 q 78 708 40 614 q 120 790 94 749 q 185 867 146 831 q 278 932 225 903 q 404 978 332 961 q 551 996 475 994 q 692 984 615 997 q 842 928 769 971 q 901 864 879 901 q 918 827 911 847 q 927 783 925 807 q 925 732 929 760 q 907 672 921 704 q 864 619 892 640 q 798 590 840 601 q 690 592 756 579 z "},"ȷ":{"ha":563,"x_min":-97,"x_max":511,"o":"m 482 -96 q 460 -172 475 -135 q 426 -244 447 -206 q 369 -315 404 -282 q 268 -378 325 -360 q 160 -400 211 -396 q 39 -396 100 -406 q -37 -369 -11 -389 q -76 -328 -64 -349 q -93 -275 -92 -303 q -85 -210 -97 -235 q -56 -172 -72 -185 q -8 -151 -36 -157 q 35 -117 21 -147 q 57 -53 50 -87 q 64 39 64 -12 q 67 109 67 69 q 67 206 67 149 q 69 344 67 263 q 76 542 71 425 q 110 640 79 607 q 178 689 142 674 q 272 707 219 706 q 396 681 351 707 q 461 622 440 654 q 490 539 486 586 q 507 351 501 453 q 507 149 511 264 q 482 -96 503 35 z "},"Ł":{"ha":1010,"x_min":15,"x_max":975,"o":"m 599 394 q 707 439 658 426 q 793 450 756 451 q 859 435 831 449 q 907 404 888 422 q 972 286 953 361 q 974 247 975 274 q 963 188 974 221 q 930 121 953 156 q 865 57 907 86 q 757 8 822 28 q 599 -15 692 -12 q 481 -7 533 -18 q 388 23 429 4 q 316 67 347 42 q 263 118 285 92 q 186 258 210 179 q 174 300 179 278 q 164 346 168 322 q 119 340 143 340 q 43 368 71 340 q 15 431 15 396 q 56 517 15 479 q 154 583 97 556 q 159 653 156 621 q 165 708 163 685 q 172 758 169 735 q 224 894 188 847 q 297 961 260 942 q 390 985 340 985 q 470 971 436 986 q 528 929 504 956 q 569 867 553 903 q 596 790 586 832 q 651 797 631 797 q 702 789 681 797 q 737 767 724 781 q 757 739 750 754 q 764 710 764 724 q 724 619 764 668 q 613 526 683 569 q 608 474 610 497 q 603 432 606 450 q 599 394 600 411 z "},"ł":{"ha":776,"x_min":14,"x_max":763,"o":"m 164 318 q 141 314 153 315 q 118 313 129 313 q 42 340 69 313 q 14 403 14 368 q 58 492 14 451 q 160 560 101 532 q 164 644 161 604 q 169 714 167 685 q 175 778 172 749 q 208 915 183 854 q 235 965 219 940 q 274 1010 251 990 q 326 1041 296 1029 q 393 1053 356 1053 q 489 1021 444 1051 q 526 988 507 1008 q 562 935 546 967 q 590 862 578 904 q 607 764 601 819 q 630 768 619 767 q 650 769 640 769 q 701 761 679 769 q 735 740 722 753 q 756 711 749 726 q 763 682 763 696 q 724 594 763 642 q 617 503 685 546 q 614 378 617 435 q 608 279 611 321 q 601 190 604 231 q 569 83 594 129 q 542 44 558 64 q 503 10 526 25 q 450 -12 481 -4 q 381 -19 419 -21 q 316 -5 344 -18 q 265 29 288 8 q 228 77 243 50 q 201 132 213 104 q 168 281 176 197 l 164 318 z "},"˘":{"ha":546,"x_min":46,"x_max":494,"o":"m 46 958 q 68 1017 46 993 q 117 1040 90 1040 q 163 1023 143 1040 q 200 984 183 1006 q 234 945 217 963 q 275 928 251 928 q 314 945 300 928 q 342 983 328 963 q 373 1020 356 1003 q 422 1038 390 1038 q 476 1013 457 1038 q 494 958 494 989 q 478 897 494 929 q 431 839 461 865 q 361 796 401 813 q 275 779 321 779 q 181 797 222 779 q 108 840 139 814 q 62 897 78 865 q 46 958 46 929 z "},"¯":{"ha":731,"x_min":93,"x_max":649,"o":"m 385 1075 q 585 1052 521 1075 q 649 974 649 1029 q 585 894 649 919 q 399 868 521 868 q 171 893 249 868 q 93 971 93 918 q 168 1049 93 1024 q 385 1075 243 1075 z "},"ˉ":{"ha":731,"x_min":93,"x_max":649,"o":"m 385 1075 q 585 1052 521 1075 q 649 974 649 1029 q 585 894 649 919 q 399 868 521 868 q 171 893 249 868 q 93 971 93 918 q 168 1049 93 1024 q 385 1075 243 1075 z "},"ﬁ":{"ha":1333,"x_min":-1,"x_max":1296,"o":"m 586 713 q 686 725 642 728 q 756 701 724 722 q 790 622 788 679 q 765 540 792 565 q 706 507 739 515 q 617 504 667 497 q 625 244 636 360 q 608 149 621 196 q 573 64 596 101 q 515 3 550 26 q 428 -22 479 -21 q 290 9 338 -26 q 220 114 242 44 q 196 282 199 183 q 196 504 193 381 q 101 494 143 489 q 66 503 83 496 q 34 522 49 510 q 10 555 19 535 q 0 606 1 575 q 19 672 -1 647 q 69 708 39 697 q 135 720 100 719 q 196 715 169 721 q 199 796 193 754 q 220 876 204 832 q 271 965 236 921 q 364 1036 308 1010 q 487 1068 413 1060 q 668 1049 561 1076 q 724 1021 699 1038 q 760 981 744 1006 q 771 921 775 957 q 758 876 769 896 q 730 847 749 860 q 676 835 711 833 q 642 829 657 835 q 614 815 628 825 q 593 786 600 806 q 589 768 590 779 q 586 713 585 747 m 1215 921 q 1208 861 1218 890 q 1177 809 1197 832 q 1128 772 1157 786 q 1064 753 1099 757 q 997 758 1028 749 q 940 785 965 767 q 899 828 915 803 q 879 886 883 854 q 887 945 876 917 q 918 997 897 974 q 968 1035 939 1019 q 1032 1054 997 1050 q 1098 1049 1067 1058 q 1154 1022 1129 1040 q 1196 978 1179 1004 q 1215 921 1213 951 m 1275 140 q 1232 45 1264 78 q 1167 -3 1200 13 q 1081 -21 1126 -19 q 983 -5 1021 -24 q 924 38 946 14 q 883 100 899 64 q 851 255 856 175 q 853 401 846 335 q 878 551 860 478 q 927 648 894 615 q 992 696 960 681 q 1071 714 1029 713 q 1174 692 1135 717 q 1238 636 1214 668 q 1276 550 1264 600 q 1292 443 1286 504 q 1294 315 1296 390 q 1275 140 1292 239 z "},"ﬂ":{"ha":1340,"x_min":-1,"x_max":1296,"o":"m 586 713 q 686 725 642 728 q 756 701 724 722 q 790 622 788 679 q 765 540 792 565 q 706 507 739 515 q 617 504 667 497 q 625 244 636 360 q 608 149 621 196 q 573 64 596 101 q 515 3 550 26 q 428 -22 479 -21 q 290 9 338 -26 q 220 114 242 44 q 196 282 199 183 q 196 504 193 381 q 101 494 143 489 q 66 503 83 496 q 34 522 49 510 q 10 555 19 535 q 0 606 1 575 q 19 672 -1 647 q 69 708 39 697 q 135 720 100 719 q 196 715 169 721 q 199 796 193 754 q 220 876 204 832 q 271 965 236 921 q 364 1036 308 1010 q 487 1068 413 1060 q 668 1049 561 1076 q 724 1021 699 1038 q 760 981 744 1006 q 771 921 775 957 q 758 876 769 896 q 730 847 749 860 q 676 835 711 833 q 642 829 657 835 q 614 815 628 825 q 593 786 600 806 q 589 768 590 779 q 586 713 585 747 m 847 281 q 838 447 838 360 q 842 608 838 533 q 854 778 846 694 q 888 915 863 854 q 915 965 899 940 q 953 1010 931 990 q 1005 1041 975 1029 q 1072 1053 1035 1053 q 1171 1019 1125 1051 q 1208 985 1189 1006 q 1244 932 1228 964 q 1272 857 1260 900 q 1288 757 1283 814 q 1296 544 1296 646 q 1293 364 1296 443 q 1281 190 1289 271 q 1249 83 1274 129 q 1222 44 1238 64 q 1183 10 1206 25 q 1129 -12 1160 -4 q 1060 -19 1099 -21 q 995 -5 1024 -18 q 944 29 967 8 q 907 77 922 50 q 881 132 892 104 q 847 281 856 197 z "},"™":{"ha":1521,"x_min":46,"x_max":1414,"o":"m 1135 719 q 1124 639 1131 672 q 1107 585 1118 606 q 1079 555 1096 564 q 1036 546 1063 546 q 966 590 989 546 q 935 721 943 633 l 926 721 q 905 594 918 643 q 876 518 892 546 q 842 480 861 490 q 806 469 824 469 q 720 491 751 469 q 674 541 689 513 q 655 597 658 569 q 651 638 651 625 q 661 765 651 707 q 682 864 671 822 q 703 928 693 906 q 714 951 714 951 q 756 1017 732 993 q 802 1053 779 1040 q 845 1068 825 1065 q 876 1071 865 1071 q 957 1048 926 1071 q 1003 995 988 1025 q 1025 935 1019 965 q 1033 889 1031 904 l 1039 889 q 1049 935 1042 904 q 1074 996 1057 965 q 1120 1049 1092 1026 q 1193 1072 1149 1072 q 1264 1052 1233 1072 q 1314 1008 1294 1032 q 1354 946 1338 981 q 1389 841 1376 893 q 1407 746 1401 789 q 1414 650 1413 696 q 1398 548 1414 585 q 1361 494 1382 511 q 1320 473 1340 476 q 1292 469 1300 469 q 1216 494 1244 469 q 1172 557 1188 519 q 1150 638 1156 594 q 1143 719 1144 682 l 1135 719 m 214 821 q 208 819 213 819 l 193 819 q 151 823 176 819 q 102 838 125 826 q 63 871 79 849 q 46 931 46 893 q 63 997 46 972 q 100 1033 79 1021 q 156 1054 125 1049 q 247 1067 201 1064 q 333 1071 293 1071 q 404 1068 371 1071 q 461 1063 438 1065 q 513 1056 489 1058 q 566 1033 547 1049 q 594 1000 585 1017 q 606 969 604 983 q 608 950 608 956 q 592 884 608 908 q 554 847 576 860 q 508 830 532 833 q 471 826 485 826 l 453 826 q 463 749 460 785 q 465 683 465 713 q 453 565 465 608 q 424 501 442 522 q 385 473 406 479 q 346 467 364 467 q 300 471 325 467 q 253 496 275 475 q 218 560 232 517 q 204 681 204 603 q 208 779 204 739 q 214 821 211 801 z "},"ª":{"ha":682,"x_min":61,"x_max":606,"o":"m 261 1036 q 320 1027 297 1036 q 357 1006 343 1018 q 377 984 371 994 q 385 969 383 974 q 390 983 385 972 q 406 1007 394 994 q 435 1030 417 1019 q 481 1040 453 1040 q 521 1031 503 1040 q 552 1007 539 1022 q 574 972 565 992 q 589 933 583 953 q 606 828 603 888 q 591 693 606 740 q 557 623 576 646 q 517 596 538 600 q 486 592 497 592 q 467 593 481 592 q 438 601 453 594 q 409 625 422 608 q 392 671 396 642 q 367 632 383 649 q 326 606 351 617 q 256 594 300 594 q 239 595 247 594 q 221 597 231 596 q 193 601 218 597 q 139 626 168 606 q 85 690 110 647 q 61 808 61 732 q 66 866 61 828 q 91 942 71 904 q 151 1008 111 979 q 261 1036 192 1036 m 317 875 q 275 856 292 875 q 258 817 258 838 q 276 770 258 783 q 317 757 293 757 q 357 772 340 757 q 374 815 374 788 q 360 855 374 835 q 317 875 346 875 z "},"º":{"ha":581,"x_min":61,"x_max":519,"o":"m 493 707 q 462 664 479 682 q 428 635 444 646 q 388 613 408 621 q 356 603 371 606 q 329 597 340 600 q 304 594 315 594 q 224 603 258 594 q 163 627 189 613 q 120 661 138 642 q 92 700 103 681 q 61 806 65 746 q 90 935 61 888 q 156 1006 118 982 q 233 1035 194 1029 q 290 1040 271 1040 q 387 1025 347 1040 q 451 987 426 1010 q 490 938 476 964 q 510 888 504 911 q 518 847 517 864 q 519 829 519 831 q 512 760 519 790 q 493 707 504 731 m 297 875 q 254 858 271 875 q 238 818 238 840 q 256 772 238 783 q 297 760 274 760 q 338 774 321 760 q 356 815 356 788 q 340 856 356 838 q 297 875 325 875 z "},"¹":{"ha":472,"x_min":83,"x_max":389,"o":"m 211 911 q 188 896 200 901 q 164 886 176 890 q 139 882 151 882 q 101 900 118 882 q 83 950 83 918 q 99 1001 83 978 q 140 1042 115 1025 q 193 1067 164 1058 q 249 1076 222 1076 q 326 1053 297 1076 q 368 992 354 1029 q 385 909 382 956 q 389 817 389 863 q 377 690 389 735 q 349 625 365 646 q 316 600 333 604 q 288 596 299 596 q 238 611 257 596 q 209 651 219 626 q 194 703 199 675 q 190 758 190 732 q 193 817 190 789 q 200 865 196 844 q 211 911 206 890 z "},"²":{"ha":526,"x_min":83,"x_max":443,"o":"m 219 1076 q 288 1069 254 1076 q 347 1044 321 1061 q 388 1000 372 1028 q 404 931 404 972 q 393 866 404 896 q 368 813 382 836 q 332 763 353 786 q 351 761 333 763 q 390 751 369 760 q 426 724 410 743 q 443 671 443 706 q 423 623 443 640 q 374 597 403 606 q 315 585 346 588 q 265 582 285 582 q 213 585 243 582 q 156 599 183 589 q 110 629 129 610 q 92 682 92 649 q 113 742 92 717 q 159 788 133 767 q 206 830 185 810 q 226 876 226 850 q 216 906 226 897 q 194 915 206 915 q 162 911 176 915 q 138 907 147 907 q 108 917 118 907 q 92 938 97 926 q 83 968 86 951 q 104 1024 83 1003 q 150 1057 125 1046 q 197 1072 175 1068 q 219 1076 218 1076 z "},"³":{"ha":554,"x_min":83,"x_max":471,"o":"m 94 988 q 111 1033 94 1015 q 152 1060 128 1050 q 204 1073 176 1069 q 256 1076 232 1076 q 307 1074 278 1076 q 362 1060 336 1071 q 406 1030 388 1050 q 424 976 424 1010 q 419 944 424 958 q 408 918 414 929 q 396 900 401 907 q 389 892 390 893 q 449 836 426 874 q 471 751 471 799 q 456 678 471 710 q 413 624 440 646 q 350 591 386 603 q 274 579 314 579 q 220 584 253 579 q 158 601 188 589 q 106 633 128 614 q 83 682 83 653 q 92 721 83 707 q 111 742 100 735 q 133 751 122 749 q 150 753 144 753 q 174 748 163 753 q 197 738 186 743 q 220 727 208 732 q 246 722 232 722 q 269 726 261 722 q 281 736 278 731 q 285 747 285 742 q 286 756 286 753 q 280 776 286 768 q 266 787 274 783 q 250 791 258 790 q 238 792 242 792 q 192 799 208 792 q 167 817 175 807 q 156 839 158 828 q 154 856 154 850 q 165 888 154 875 q 190 910 176 901 q 217 922 204 918 q 233 926 229 926 l 232 931 q 213 926 224 928 q 196 925 203 925 q 140 933 160 925 q 110 951 119 940 q 97 972 100 961 q 94 988 94 982 z "},"⁴":{"ha":571,"x_min":83,"x_max":488,"o":"m 488 786 q 479 753 488 764 q 460 735 471 742 q 433 726 447 728 q 435 718 433 724 q 435 709 435 714 q 436 697 436 704 q 433 660 436 681 q 419 623 429 640 q 389 593 408 606 q 336 581 369 581 q 288 593 306 581 q 260 624 269 606 q 247 663 250 642 q 244 699 244 683 l 244 718 q 246 726 244 722 q 161 733 193 726 q 132 740 144 736 q 94 767 104 747 q 83 811 83 786 q 90 862 83 835 q 107 911 97 889 q 132 961 118 936 q 176 1020 153 997 q 222 1056 199 1043 q 265 1072 244 1068 q 303 1076 286 1076 q 374 1053 347 1076 q 413 999 400 1031 q 431 932 426 967 q 435 872 435 897 q 434 861 435 865 q 433 854 433 857 l 433 847 q 464 837 453 846 q 481 817 475 828 q 488 786 486 803 m 235 901 q 209 890 219 901 q 199 865 199 879 q 209 837 199 844 q 235 829 219 829 q 260 838 250 829 q 271 864 271 847 q 262 890 271 878 q 235 901 253 901 z "},"₁":{"ha":472,"x_min":83,"x_max":389,"o":"m 211 217 q 188 201 200 207 q 164 192 176 196 q 139 188 151 188 q 101 206 118 188 q 83 256 83 224 q 99 307 83 283 q 140 347 115 331 q 193 373 164 364 q 249 382 222 382 q 326 358 297 382 q 368 298 354 335 q 385 215 382 261 q 389 122 389 168 q 377 -4 389 40 q 349 -69 365 -49 q 316 -94 333 -90 q 288 -99 299 -99 q 238 -83 257 -99 q 209 -44 219 -68 q 194 9 199 -19 q 190 64 190 38 q 193 122 190 94 q 200 171 196 150 q 211 217 206 196 z "},"₂":{"ha":526,"x_min":83,"x_max":443,"o":"m 219 382 q 288 374 254 382 q 347 350 321 367 q 388 306 372 333 q 404 236 404 278 q 393 172 404 201 q 368 118 382 142 q 332 68 353 92 q 351 67 333 68 q 390 57 369 65 q 426 30 410 49 q 443 -24 443 11 q 423 -72 443 -54 q 374 -98 403 -89 q 315 -110 346 -107 q 265 -112 285 -112 q 213 -109 243 -112 q 156 -95 183 -106 q 110 -65 129 -85 q 92 -12 92 -46 q 113 47 92 22 q 159 94 133 72 q 206 135 185 115 q 226 182 226 156 q 216 212 226 203 q 194 221 206 221 q 162 217 176 221 q 138 213 147 213 q 108 222 118 213 q 92 243 97 232 q 83 274 86 257 q 104 330 83 308 q 150 363 125 351 q 197 378 175 374 q 219 382 218 382 z "},"₃":{"ha":554,"x_min":83,"x_max":471,"o":"m 94 293 q 111 338 94 321 q 152 365 128 356 q 204 378 176 375 q 256 382 232 382 q 307 379 278 382 q 362 366 336 376 q 406 335 388 356 q 424 282 424 315 q 418 249 424 264 q 406 222 413 233 q 389 197 399 208 q 449 142 426 179 q 471 57 471 104 q 456 -17 471 15 q 413 -70 440 -49 q 350 -103 386 -92 q 274 -115 314 -115 q 220 -110 253 -115 q 158 -93 188 -106 q 106 -61 128 -81 q 83 -12 83 -42 q 92 26 83 13 q 111 47 100 40 q 133 56 122 54 q 150 58 144 58 q 174 53 163 58 q 197 43 186 49 q 220 33 208 38 q 246 28 232 28 q 269 32 261 28 q 281 42 278 36 q 285 53 285 47 q 286 61 286 58 q 280 81 286 74 q 266 92 274 89 q 250 97 258 96 q 238 97 242 97 q 192 105 208 97 q 167 123 175 113 q 156 144 158 133 q 154 161 154 156 q 163 190 154 178 q 183 210 171 201 q 207 223 194 218 q 226 229 219 228 q 210 230 218 229 q 196 231 203 231 q 140 238 160 231 q 110 256 119 246 q 97 277 100 267 q 94 293 94 288 z "},"₄":{"ha":571,"x_min":83,"x_max":488,"o":"m 488 92 q 479 58 488 69 q 460 40 471 47 q 433 32 447 33 q 435 24 433 29 q 435 15 435 19 q 436 3 436 10 q 433 -34 436 -14 q 419 -72 429 -54 q 389 -101 408 -89 q 336 -114 369 -114 q 288 -101 306 -114 q 260 -71 269 -89 q 247 -32 250 -53 q 244 4 244 -11 l 244 24 q 246 32 244 28 q 161 39 193 32 q 132 46 144 42 q 94 72 104 53 q 83 117 83 92 q 90 167 83 140 q 107 217 97 194 q 132 267 118 242 q 176 326 153 303 q 222 361 199 349 q 265 378 244 374 q 303 382 286 382 q 374 359 347 382 q 413 304 400 336 q 431 238 426 272 q 435 178 435 203 q 434 167 435 171 q 433 160 433 163 l 433 153 q 464 142 453 151 q 481 122 475 133 q 488 92 486 108 m 235 207 q 209 196 219 207 q 199 171 199 185 q 209 142 199 150 q 235 135 219 135 q 260 144 250 135 q 271 169 271 153 q 262 195 271 183 q 235 207 253 207 z "},"½":{"ha":1217,"x_min":83,"x_max":1165,"o":"m 494 22 q 453 -31 476 -15 q 411 -50 431 -46 q 363 -49 386 -56 q 321 -26 339 -42 q 294 13 306 -12 q 288 83 282 39 q 311 208 293 133 q 354 369 329 282 q 409 549 379 457 q 468 724 439 640 q 522 875 497 807 q 564 982 547 943 q 610 1047 583 1028 q 661 1071 638 1065 q 719 1068 689 1076 q 763 1049 746 1064 q 787 1006 778 1035 q 789 928 796 978 q 758 778 778 856 q 716 624 739 701 q 668 472 693 547 q 618 331 643 397 q 494 22 560 172 m 211 911 q 188 896 200 901 q 164 886 176 890 q 139 882 151 882 q 101 900 118 882 q 83 950 83 918 q 99 1001 83 978 q 140 1042 115 1025 q 193 1067 164 1058 q 249 1076 222 1076 q 326 1053 297 1076 q 368 992 354 1029 q 385 909 382 956 q 389 817 389 863 q 377 690 389 735 q 349 625 365 646 q 316 600 333 604 q 288 596 299 596 q 238 611 257 596 q 209 651 219 626 q 194 703 199 675 q 190 758 190 732 q 193 817 190 789 q 200 865 196 844 q 211 911 206 890 m 942 504 q 1010 497 976 504 q 1069 472 1043 489 q 1110 428 1094 456 q 1126 358 1126 400 q 1115 294 1126 324 q 1090 240 1104 264 q 1054 190 1075 214 q 1074 189 1056 190 q 1112 179 1092 188 q 1149 152 1132 171 q 1165 99 1165 133 q 1145 51 1165 68 q 1097 24 1125 33 q 1038 13 1068 15 q 988 10 1007 10 q 935 13 965 10 q 878 27 906 17 q 833 57 851 38 q 814 110 814 76 q 835 169 814 144 q 881 216 856 194 q 928 258 907 238 q 949 304 949 278 q 938 334 949 325 q 917 343 928 343 q 884 339 899 343 q 860 335 869 335 q 830 344 840 335 q 814 365 819 354 q 806 396 808 379 q 826 452 806 431 q 872 485 847 474 q 919 500 897 496 q 942 504 940 504 z "}}}
